if (_typeface_js && _typeface_js.loadFace) _typeface_js.loadFace({"glyphs":{"ǻ":{"x_min":62,"x_max":786.859375,"ha":832,"o":"m 322 1166 q 356 1203 337 1182 q 394 1246 375 1224 q 429 1290 413 1268 q 457 1331 446 1311 l 675 1331 l 675 1320 q 632 1283 662 1305 q 565 1236 602 1261 q 488 1190 528 1212 q 416 1153 448 1167 l 322 1153 l 322 1166 m 277 206 q 296 116 277 146 q 356 87 315 87 q 410 99 386 87 q 451 135 434 112 q 477 191 468 158 q 487 265 487 224 l 487 369 l 424 365 q 354 352 383 363 q 309 321 326 341 q 285 273 292 301 q 277 206 277 244 m 401 677 q 356 666 374 677 q 327 634 338 654 q 312 587 316 614 q 308 527 308 559 q 167 548 214 527 q 120 620 120 569 q 143 685 120 658 q 204 729 165 712 q 295 754 243 746 q 406 762 347 762 q 534 749 479 762 q 625 709 588 736 q 679 636 661 681 q 698 526 698 591 l 698 172 q 702 124 698 143 q 716 94 706 105 q 742 78 725 83 q 781 73 758 73 l 786 73 l 786 0 l 528 0 l 499 95 l 487 95 q 443 46 464 67 q 400 12 423 26 q 348 -7 377 -1 q 280 -14 319 -14 q 194 0 234 -14 q 125 41 154 13 q 78 111 95 69 q 62 212 62 154 q 139 379 62 325 q 373 438 217 434 l 487 443 l 487 519 q 484 583 487 554 q 472 633 481 612 q 446 665 464 654 q 401 677 429 677 m 586 962 q 573 897 586 925 q 537 849 560 868 q 484 820 515 830 q 419 811 454 811 q 354 820 384 811 q 301 849 323 830 q 265 897 278 868 q 253 962 253 925 q 265 1028 253 999 q 301 1075 278 1056 q 354 1104 323 1094 q 419 1114 384 1114 q 484 1104 454 1114 q 537 1075 515 1094 q 573 1028 560 1056 q 586 962 586 999 m 501 962 q 494 997 501 982 q 477 1020 488 1011 q 451 1033 465 1029 q 419 1038 436 1038 q 387 1033 402 1038 q 361 1020 373 1029 q 344 997 350 1011 q 337 962 337 982 q 344 927 337 942 q 361 904 350 913 q 387 891 373 895 q 419 887 402 887 q 451 891 436 887 q 477 904 465 895 q 494 927 488 913 q 501 962 501 942 "},"Á":{"x_min":5.8125,"x_max":1046.21875,"ha":1046,"o":"m 303 326 l 262 206 q 251 167 257 189 q 245 127 245 144 q 251 103 245 113 q 265 87 256 93 q 285 77 274 80 q 308 73 296 73 l 367 73 l 367 0 l 5 0 l 5 73 l 22 73 q 56 77 41 73 q 84 93 71 82 q 109 124 98 104 q 134 175 121 143 l 435 992 l 625 992 l 916 173 q 937 125 926 144 q 961 94 948 105 q 989 78 975 83 q 1021 73 1004 73 l 1046 73 l 1046 0 l 587 0 l 587 73 l 642 73 q 663 76 652 73 q 682 86 673 80 q 696 103 690 92 q 701 127 701 113 q 697 160 701 144 q 689 187 693 175 l 640 326 l 303 326 m 539 639 q 524 689 532 662 q 508 742 516 715 q 493 796 500 769 q 481 847 486 823 q 467 801 475 826 q 449 749 458 776 q 431 696 440 723 q 414 645 422 670 l 332 411 l 612 411 l 539 639 m 436 1089 q 469 1134 450 1108 q 506 1187 487 1160 q 542 1242 525 1215 q 569 1293 558 1269 l 788 1293 l 788 1278 q 745 1233 775 1260 q 678 1175 715 1205 q 602 1118 641 1146 q 530 1071 562 1089 l 436 1071 l 436 1089 "},"ĥ":{"x_min":23.703125,"x_max":889.65625,"ha":926,"o":"m 581 0 l 581 456 q 575 536 581 501 q 556 595 569 571 q 521 631 543 618 q 470 643 500 643 q 412 626 435 643 q 375 579 389 608 q 356 510 362 549 q 349 429 349 471 l 349 164 q 357 117 349 134 q 377 89 364 99 q 408 76 389 79 q 450 73 427 73 l 454 73 l 454 0 l 27 0 l 27 73 l 30 73 q 73 76 54 73 q 108 90 93 80 q 130 119 122 100 q 139 169 139 138 l 139 897 q 129 941 139 924 q 104 967 119 958 q 72 979 89 976 q 39 981 54 981 l 23 981 l 23 1055 l 349 1055 l 349 826 q 348 768 349 799 q 344 710 346 736 q 339 649 341 679 l 351 649 q 395 711 372 688 q 445 744 418 733 q 501 758 471 755 q 563 762 530 762 q 659 746 616 762 q 731 698 701 730 q 776 615 760 665 q 792 494 792 564 l 792 172 q 797 120 792 139 q 815 90 803 101 q 844 77 826 80 q 885 73 861 73 l 889 73 l 889 0 l 581 0 m 207 1127 q 245 1172 223 1146 q 289 1225 267 1198 q 330 1280 310 1253 q 360 1331 349 1307 l 547 1331 q 577 1280 558 1307 q 618 1225 596 1253 q 662 1172 640 1198 q 700 1127 683 1146 l 700 1109 l 604 1109 q 570 1136 590 1120 q 529 1168 550 1151 q 488 1202 508 1185 q 453 1233 468 1219 q 417 1202 437 1219 q 376 1168 397 1185 q 336 1136 356 1151 q 303 1109 317 1120 l 207 1109 l 207 1127 "},"Κ":{"x_min":38.453125,"x_max":1019,"ha":1019,"o":"m 602 739 q 640 782 625 763 q 664 818 655 802 q 677 850 673 835 q 681 879 681 865 q 664 911 681 902 q 603 920 646 920 l 603 992 l 980 992 l 980 920 q 926 911 951 920 q 876 886 901 902 q 828 847 852 869 q 780 797 804 825 l 597 596 l 855 185 q 894 131 875 153 q 932 97 913 110 q 970 79 951 84 q 1013 73 990 73 l 1019 73 l 1019 0 l 944 0 q 851 3 891 0 q 781 13 811 6 q 729 30 751 20 q 691 55 707 41 q 661 87 675 69 q 635 127 648 105 l 448 447 l 387 398 l 387 164 q 392 116 387 134 q 408 89 398 99 q 431 76 417 80 q 459 73 444 73 l 517 73 l 517 0 l 38 0 l 38 73 l 96 73 q 124 76 111 73 q 147 87 137 79 q 162 112 157 96 q 168 156 168 129 l 168 833 q 162 878 168 861 q 147 903 157 895 q 124 915 137 912 q 96 918 111 918 l 38 918 l 38 992 l 517 992 l 517 918 l 459 918 q 431 915 444 918 q 408 903 417 912 q 392 876 398 893 q 387 828 387 858 l 387 504 l 602 739 "},"»":{"x_min":90.046875,"x_max":679,"ha":770,"o":"m 679 339 l 466 97 l 369 97 l 510 375 l 369 654 l 466 654 l 679 411 l 679 339 m 400 339 l 187 97 l 90 97 l 230 375 l 90 654 l 187 654 l 400 411 l 400 339 "},"∆":{"x_min":68,"x_max":904,"ha":973,"o":"m 904 0 l 68 0 l 68 90 l 393 992 l 591 992 l 904 99 l 904 0 m 689 109 l 510 632 q 471 751 489 694 q 441 860 453 809 q 414 759 431 810 q 376 644 398 709 l 192 109 l 689 109 "},"ў":{"x_min":-0.265625,"x_max":804.234375,"ha":804,"o":"m 804 745 l 804 671 q 767 666 783 671 q 738 649 751 661 q 714 618 725 637 q 693 569 703 599 q 642 428 668 500 q 588 284 615 356 q 535 140 562 212 q 483 0 508 69 q 437 -118 458 -67 q 391 -206 415 -169 q 338 -268 367 -243 q 270 -307 309 -292 q 180 -327 231 -321 q 60 -334 129 -334 l 37 -334 l 37 -253 q 160 -235 109 -253 q 246 -185 211 -217 q 304 -107 281 -152 q 344 -6 327 -61 l 94 604 q 75 635 85 624 q 53 653 65 647 q 28 661 42 659 q 0 662 15 662 l 0 745 l 395 745 l 395 671 q 331 660 355 671 q 308 619 308 650 q 313 592 308 607 q 321 565 317 576 q 347 502 334 536 q 373 433 360 468 q 397 367 385 399 q 417 311 408 335 q 434 263 427 284 q 445 224 441 242 q 452 192 450 207 q 456 164 455 178 q 462 195 458 178 q 471 228 466 212 q 480 257 475 244 q 487 275 485 270 l 579 547 q 584 563 581 554 q 588 582 586 572 q 591 600 590 591 q 592 615 592 609 q 566 659 592 647 q 491 671 539 671 l 491 745 l 804 745 m 407 918 q 499 952 467 918 q 539 1059 531 986 l 713 1059 q 695 977 708 1016 q 649 908 682 938 q 559 859 617 877 q 407 842 501 842 q 256 859 314 842 q 165 908 198 877 q 119 977 132 938 q 102 1059 106 1016 l 275 1059 q 315 952 283 986 q 407 918 348 918 "},"ţ":{"x_min":29.546875,"x_max":534,"ha":562,"o":"m 436 97 q 487 101 463 97 q 534 110 512 105 l 534 20 q 504 9 523 15 q 461 -2 485 2 q 405 -10 436 -7 q 337 -14 374 -14 q 253 -2 291 -14 q 188 34 215 8 q 148 102 162 60 q 134 205 134 144 l 134 650 l 29 650 l 29 721 q 109 738 74 721 q 165 779 144 756 q 229 917 208 824 l 344 917 l 344 745 l 521 745 l 521 650 l 344 650 l 344 219 q 366 127 344 156 q 436 97 387 97 m 179 -289 q 193 -242 185 -268 q 209 -189 201 -216 q 223 -134 216 -161 q 233 -85 229 -108 l 395 -85 l 395 -98 q 370 -147 385 -120 q 336 -202 354 -174 q 299 -257 318 -230 q 262 -307 280 -285 l 179 -307 l 179 -289 "},"«":{"x_min":90,"x_max":678.28125,"ha":770,"o":"m 90 411 l 302 654 l 399 654 l 259 375 l 399 97 l 302 97 l 90 339 l 90 411 m 369 411 l 581 654 l 678 654 l 538 375 l 678 97 l 581 97 l 369 339 l 369 411 "},"í":{"x_min":23.703125,"x_max":532,"ha":489,"o":"m 39 73 q 72 76 55 73 q 104 89 90 80 q 129 116 119 99 q 139 164 139 134 l 139 586 q 129 630 139 614 q 104 656 119 647 q 72 668 89 665 q 39 671 54 671 l 23 671 l 23 745 l 349 745 l 349 164 q 359 116 349 134 q 384 89 369 99 q 416 76 398 80 q 448 73 434 73 l 465 73 l 465 0 l 23 0 l 23 73 l 39 73 m 180 860 q 213 905 194 879 q 250 958 231 931 q 286 1013 269 986 q 313 1064 302 1040 l 532 1064 l 532 1049 q 489 1004 519 1031 q 422 946 459 976 q 346 889 385 917 q 274 842 306 860 l 180 842 l 180 860 "},"ņ":{"x_min":27.78125,"x_max":889.65625,"ha":926,"o":"m 581 0 l 581 456 q 575 536 581 501 q 556 595 569 571 q 521 631 543 618 q 470 643 500 643 q 412 626 435 643 q 375 579 389 608 q 356 510 362 549 q 349 429 349 471 l 349 164 q 357 117 349 134 q 377 89 364 99 q 408 76 389 80 q 450 73 427 73 l 454 73 l 454 0 l 27 0 l 27 73 l 30 73 q 73 76 54 73 q 108 90 93 80 q 130 119 122 100 q 139 169 139 138 l 139 580 q 131 627 139 610 q 111 655 124 645 q 80 668 98 664 q 38 671 61 671 l 34 671 l 34 745 l 326 745 l 344 645 l 351 645 q 395 707 372 684 q 445 743 418 730 q 501 758 471 755 q 563 762 530 762 q 659 746 616 762 q 731 698 701 730 q 776 615 760 665 q 792 494 792 564 l 792 172 q 797 120 792 139 q 815 90 803 101 q 844 77 826 80 q 885 73 861 73 l 889 73 l 889 0 l 581 0 m 344 -289 q 358 -242 350 -268 q 374 -189 366 -216 q 388 -134 381 -161 q 398 -85 394 -108 l 560 -85 l 560 -98 q 535 -147 550 -120 q 501 -202 519 -174 q 464 -257 483 -230 q 427 -307 445 -285 l 344 -307 l 344 -289 "},"µ":{"x_min":112.71875,"x_max":888.453125,"ha":924,"o":"m 389 -14 q 290 7 331 -14 q 222 67 249 28 q 227 -39 222 9 q 247 -124 232 -87 q 292 -183 263 -161 q 371 -212 322 -206 q 362 -261 371 -239 q 336 -299 353 -283 q 296 -324 320 -315 q 242 -334 272 -334 q 193 -324 217 -334 q 151 -293 169 -315 q 123 -237 133 -272 q 112 -151 112 -202 q 114 -64 112 -110 q 119 35 116 -19 q 125 158 122 90 q 129 312 128 225 l 129 745 l 340 745 l 340 285 q 345 215 340 248 q 362 157 350 182 q 394 118 374 132 q 445 104 415 104 q 498 119 475 104 q 538 163 522 135 q 564 231 555 191 q 573 319 573 271 l 573 745 l 784 745 l 784 191 q 807 101 784 128 q 878 73 830 73 l 888 73 l 888 0 l 767 0 q 650 33 695 0 q 586 120 604 66 l 579 120 q 545 64 563 89 q 505 22 527 39 q 454 -4 482 4 q 389 -14 425 -14 "},"ỳ":{"x_min":-0.265625,"x_max":804.234375,"ha":804,"o":"m 804 745 l 804 671 q 767 666 783 671 q 738 649 751 661 q 714 618 725 637 q 693 569 703 599 q 642 428 668 500 q 588 284 615 356 q 535 140 562 212 q 483 0 508 69 q 437 -118 458 -67 q 391 -206 415 -169 q 338 -268 367 -243 q 270 -307 309 -292 q 180 -327 231 -321 q 60 -334 129 -334 l 37 -334 l 37 -253 q 160 -235 109 -253 q 246 -185 211 -217 q 304 -107 281 -152 q 344 -6 327 -61 l 94 604 q 75 635 85 624 q 53 653 65 647 q 28 661 42 659 q 0 662 15 662 l 0 745 l 395 745 l 395 671 q 331 660 355 671 q 308 619 308 650 q 313 592 308 607 q 321 565 317 576 q 347 502 334 536 q 373 433 360 468 q 397 367 385 399 q 417 311 408 335 q 434 263 427 284 q 445 224 441 242 q 452 192 450 207 q 456 164 455 178 q 462 195 458 178 q 471 228 466 212 q 480 257 475 244 q 487 275 485 270 l 579 547 q 584 563 581 554 q 588 582 586 572 q 591 600 590 591 q 592 615 592 609 q 566 659 592 647 q 491 671 539 671 l 491 745 l 804 745 m 420 842 q 348 889 388 860 q 271 946 308 917 q 204 1004 234 976 q 162 1049 174 1031 l 162 1064 l 379 1064 q 407 1013 390 1040 q 443 958 424 986 q 481 905 461 931 q 515 860 500 879 l 515 842 l 420 842 "},"Ι":{"x_min":38.453125,"x_max":517.953125,"ha":557,"o":"m 38 0 l 38 73 l 96 73 q 125 76 112 73 q 147 89 138 80 q 162 116 157 99 q 168 164 168 134 l 168 827 q 162 875 168 857 q 147 902 157 892 q 125 915 138 911 q 96 918 112 918 l 38 918 l 38 992 l 517 992 l 517 918 l 459 918 q 431 915 444 918 q 408 902 418 911 q 393 875 399 892 q 388 827 388 857 l 388 164 q 393 116 388 134 q 408 89 399 99 q 431 76 418 80 q 459 73 444 73 l 517 73 l 517 0 l 38 0 "},"Ύ":{"x_min":-52,"x_max":1166.5625,"ha":1167,"o":"m 432 0 l 432 73 l 497 73 q 528 75 514 73 q 554 86 543 77 q 571 111 565 94 q 578 157 578 128 l 578 351 l 321 844 q 301 879 310 865 q 281 902 292 893 q 256 914 270 910 q 222 918 243 918 l 204 918 l 204 992 l 669 992 l 669 918 l 645 918 q 583 901 603 918 q 562 856 562 884 q 568 817 562 838 q 583 779 575 797 l 686 575 q 722 496 708 530 q 747 430 736 462 q 780 510 761 467 q 822 600 799 553 l 902 766 q 922 817 917 797 q 926 850 926 838 q 903 902 926 886 q 834 918 881 918 l 803 918 l 803 992 l 1166 992 l 1166 918 l 1140 918 q 1109 913 1122 918 q 1086 897 1097 909 q 1063 863 1075 884 q 1035 810 1051 842 l 799 349 l 799 159 q 805 112 799 129 q 821 86 811 95 q 846 75 832 77 q 876 73 860 73 l 944 73 l 944 0 l 432 0 m -52 788 q -37 835 -45 809 q -22 888 -30 861 q -8 943 -15 916 q 1 993 -2 969 l 191 993 l 191 978 q 164 930 181 957 q 128 875 148 903 q 86 820 108 847 q 44 770 64 793 l -52 770 l -52 788 "},"ѕ":{"x_min":41.765625,"x_max":623,"ha":678,"o":"m 321 -14 q 192 -1 245 -14 q 105 32 139 10 q 57 83 72 53 q 41 148 41 113 q 54 202 41 182 q 88 234 68 223 q 130 250 108 246 q 171 253 153 253 q 182 175 171 210 q 212 117 193 141 q 259 80 232 93 q 321 67 287 67 q 383 74 357 67 q 425 95 409 82 q 450 126 442 108 q 458 162 458 143 q 450 203 458 185 q 422 237 441 221 q 369 268 402 253 q 287 300 336 283 q 188 342 231 320 q 116 392 145 364 q 71 457 86 421 q 56 540 56 493 q 77 637 56 596 q 138 706 98 678 q 232 747 177 733 q 354 761 287 761 q 466 749 420 761 q 541 720 512 738 q 584 678 570 702 q 597 632 597 655 q 565 560 597 585 q 456 536 532 536 q 425 644 456 605 q 334 682 394 682 q 291 676 311 682 q 255 660 270 671 q 230 633 239 649 q 221 596 221 617 q 229 556 221 573 q 259 522 238 538 q 317 490 281 506 q 411 454 354 473 q 496 417 457 437 q 563 369 535 396 q 607 308 591 342 q 623 230 623 274 q 602 127 623 172 q 544 50 582 81 q 449 2 505 19 q 321 -14 393 -14 "},"Ш":{"x_min":38.453125,"x_max":1541.859375,"ha":1581,"o":"m 38 0 l 38 73 l 96 73 q 123 76 111 73 q 146 88 136 79 q 162 114 156 97 q 168 158 168 130 l 168 828 q 162 876 168 858 q 147 903 157 893 q 124 915 137 912 q 96 918 111 918 l 38 918 l 38 992 l 495 992 l 495 918 l 450 918 q 422 915 435 918 q 399 903 409 912 q 384 876 390 893 q 378 828 378 858 l 378 84 l 685 84 l 685 828 q 679 876 685 858 q 664 903 674 893 q 641 915 654 912 q 613 918 628 918 l 568 918 l 568 992 l 1011 992 l 1011 918 l 966 918 q 939 916 952 918 q 917 904 927 913 q 901 879 907 895 q 895 835 895 863 l 895 84 l 1202 84 l 1202 828 q 1196 876 1202 858 q 1181 903 1190 893 q 1158 915 1171 912 q 1130 918 1145 918 l 1084 918 l 1084 992 l 1541 992 l 1541 918 l 1483 918 q 1456 915 1469 918 q 1433 903 1443 912 q 1418 876 1423 893 q 1413 828 1413 858 l 1413 158 q 1418 114 1413 130 q 1434 88 1424 97 q 1456 76 1444 79 q 1483 73 1469 73 l 1541 73 l 1541 0 l 38 0 "},"M":{"x_min":38.453125,"x_max":1283.875,"ha":1323,"o":"m 839 0 l 839 73 l 853 73 q 891 76 874 73 q 918 87 908 79 q 935 110 929 95 q 940 151 940 126 l 940 855 l 660 0 l 565 0 l 271 855 l 271 164 q 278 116 271 134 q 299 89 286 99 q 331 76 312 80 q 374 73 350 73 l 383 73 l 383 0 l 38 0 l 38 73 l 96 73 q 124 76 111 73 q 147 87 137 79 q 162 112 157 96 q 168 156 168 129 l 168 833 q 162 878 168 861 q 147 903 157 895 q 124 915 137 912 q 96 918 111 918 l 38 918 l 38 992 l 438 992 l 669 320 l 891 992 l 1283 992 l 1283 918 l 1225 918 q 1197 915 1210 918 q 1175 903 1184 912 q 1160 876 1165 893 q 1155 828 1155 858 l 1155 164 q 1160 116 1155 134 q 1175 89 1165 99 q 1197 76 1184 80 q 1225 73 1210 73 l 1283 73 l 1283 0 l 839 0 "},"Ψ":{"x_min":30.046875,"x_max":1322.9375,"ha":1356,"o":"m 522 330 q 385 341 444 330 q 285 375 327 353 q 215 426 243 396 q 172 490 188 455 q 150 564 156 525 q 144 645 144 604 l 144 818 q 134 870 144 850 q 110 901 125 890 q 74 915 95 911 q 30 918 53 918 l 30 992 l 346 992 l 346 664 q 355 550 346 598 q 385 471 363 502 q 445 425 407 439 q 544 410 484 410 l 575 410 l 575 832 q 565 876 575 860 q 541 903 556 893 q 505 915 526 912 q 461 918 484 918 l 442 918 l 442 992 l 909 992 l 909 918 l 891 918 q 847 915 868 918 q 811 903 826 912 q 786 876 796 893 q 777 832 777 860 l 777 410 l 808 410 q 906 425 868 410 q 967 471 945 439 q 997 550 989 502 q 1006 664 1006 598 l 1006 992 l 1322 992 l 1322 918 q 1278 915 1299 918 q 1242 901 1257 911 q 1218 870 1227 890 q 1209 818 1209 850 l 1209 645 q 1202 564 1209 604 q 1180 490 1196 525 q 1137 426 1164 455 q 1067 375 1109 396 q 967 341 1025 353 q 830 330 908 330 l 777 330 l 777 157 q 786 114 777 130 q 811 88 796 97 q 847 76 826 79 q 891 73 868 73 l 909 73 l 909 0 l 442 0 l 442 73 l 461 73 q 505 76 484 73 q 541 88 526 79 q 565 114 556 97 q 575 157 575 130 l 575 330 l 522 330 "},"ũ":{"x_min":36.34375,"x_max":891.4375,"ha":926,"o":"m 614 0 l 584 97 l 577 97 q 532 39 556 61 q 479 6 507 17 q 421 -9 452 -5 q 358 -14 390 -14 q 191 53 249 -14 q 134 260 134 120 l 134 572 q 128 622 134 603 q 111 652 123 641 q 82 667 100 662 q 39 671 64 671 l 36 671 l 36 745 l 344 745 l 344 299 q 349 218 344 254 q 367 157 355 182 q 399 117 379 131 q 450 104 419 104 q 507 118 483 104 q 546 160 531 133 q 568 227 561 188 q 576 315 576 266 l 576 582 q 567 630 576 612 q 546 657 559 647 q 514 668 532 666 q 475 671 496 671 l 471 671 l 471 745 l 787 745 l 787 161 q 794 113 787 130 q 813 87 801 96 q 842 76 825 78 q 879 73 859 73 l 891 73 l 891 0 l 614 0 m 573 974 q 600 980 588 974 q 621 996 612 986 q 634 1020 629 1006 q 641 1047 639 1033 l 732 1047 q 716 968 729 1005 q 680 902 702 930 q 626 858 657 874 q 558 842 595 842 q 490 855 521 842 q 434 885 460 869 q 385 916 408 902 q 340 929 363 929 q 313 923 325 929 q 292 907 301 917 q 279 883 284 897 q 272 856 274 870 l 182 856 q 197 935 184 898 q 234 1001 211 973 q 288 1045 257 1029 q 356 1062 319 1062 q 424 1048 394 1062 q 480 1018 454 1034 q 529 987 506 1001 q 573 974 552 974 "},"ŭ":{"x_min":36.34375,"x_max":891.4375,"ha":926,"o":"m 614 0 l 584 97 l 577 97 q 532 39 556 61 q 479 6 507 17 q 421 -9 452 -5 q 358 -14 390 -14 q 191 53 249 -14 q 134 260 134 120 l 134 572 q 128 622 134 603 q 111 652 123 641 q 82 667 100 662 q 39 671 64 671 l 36 671 l 36 745 l 344 745 l 344 299 q 349 218 344 254 q 367 157 355 182 q 399 117 379 131 q 450 104 419 104 q 507 118 483 104 q 546 160 531 133 q 568 227 561 188 q 576 315 576 266 l 576 582 q 567 630 576 612 q 546 657 559 647 q 514 668 532 666 q 475 671 496 671 l 471 671 l 471 745 l 787 745 l 787 161 q 794 113 787 130 q 813 87 801 96 q 842 76 825 78 q 879 73 859 73 l 891 73 l 891 0 l 614 0 m 454 842 q 358 861 399 842 q 289 911 317 880 q 247 981 261 942 q 232 1060 233 1020 l 323 1060 q 369 987 335 1009 q 454 965 402 965 q 539 987 505 965 q 584 1060 573 1009 l 677 1060 q 661 981 675 1020 q 619 911 647 942 q 550 861 591 880 q 454 842 509 842 "},"―":{"x_min":-7,"x_max":1396,"ha":1389,"o":"m 1396 331 l -7 331 l -7 414 l 1396 414 l 1396 331 "},"{":{"x_min":41.59375,"x_max":572.640625,"ha":614,"o":"m 440 -174 q 337 -159 382 -174 q 263 -118 293 -145 q 218 -53 233 -91 q 203 31 203 -15 l 203 269 q 190 334 203 309 q 156 373 177 358 q 105 393 134 387 q 41 400 75 398 l 41 485 q 105 491 75 486 q 156 511 134 497 q 190 550 177 525 q 203 613 203 575 l 203 852 q 263 1002 203 949 q 440 1055 323 1055 l 572 1055 l 572 981 l 518 981 q 469 972 488 981 q 439 947 450 964 q 423 904 428 930 q 419 846 419 879 l 419 611 q 383 507 419 548 q 266 449 347 467 l 266 437 q 383 377 346 417 q 419 273 419 336 l 419 35 q 423 -22 419 3 q 439 -65 428 -47 q 469 -91 450 -82 q 518 -100 488 -100 l 572 -100 l 572 -174 l 440 -174 "},"¼":{"x_min":7.015625,"x_max":1139.84375,"ha":1167,"o":"m 300 999 l 300 512 q 305 484 300 495 q 319 468 310 474 q 339 461 327 463 q 364 460 351 460 l 421 460 l 421 399 l 29 399 l 29 460 l 99 460 q 124 461 113 460 q 144 468 135 463 q 158 484 153 474 q 163 512 163 495 l 163 906 q 105 844 130 868 q 54 821 79 821 q 20 840 34 821 q 7 889 7 860 q 62 909 32 895 q 135 952 93 923 l 197 999 l 300 999 m 392 0 l 284 0 l 779 992 l 887 992 l 392 0 m 1032 163 l 1032 114 q 1036 86 1032 97 q 1049 70 1041 76 q 1068 63 1057 65 q 1090 62 1078 62 l 1118 62 l 1118 1 l 798 1 l 798 62 l 837 62 q 859 63 848 62 q 877 70 869 65 q 889 86 884 76 q 894 114 894 97 l 894 163 l 630 163 l 630 218 l 906 601 l 1032 601 l 1032 237 l 1139 237 l 1139 163 l 1032 163 m 894 403 q 896 446 894 425 q 901 493 897 468 q 889 471 895 482 q 880 454 883 459 l 721 237 l 894 237 l 894 403 "},"Ḿ":{"x_min":38.453125,"x_max":1283.875,"ha":1323,"o":"m 839 0 l 839 73 l 853 73 q 891 76 874 73 q 918 87 908 79 q 935 110 929 95 q 940 151 940 126 l 940 855 l 660 0 l 565 0 l 271 855 l 271 164 q 278 116 271 134 q 299 89 286 99 q 331 76 312 80 q 374 73 350 73 l 383 73 l 383 0 l 38 0 l 38 73 l 96 73 q 124 76 111 73 q 147 87 137 79 q 162 112 157 96 q 168 156 168 129 l 168 833 q 162 878 168 861 q 147 903 157 895 q 124 915 137 912 q 96 918 111 918 l 38 918 l 38 992 l 438 992 l 669 320 l 891 992 l 1283 992 l 1283 918 l 1225 918 q 1197 915 1210 918 q 1175 903 1184 912 q 1160 876 1165 893 q 1155 828 1155 858 l 1155 164 q 1160 116 1155 134 q 1175 89 1165 99 q 1197 76 1184 80 q 1225 73 1210 73 l 1283 73 l 1283 0 l 839 0 m 578 1108 q 611 1153 592 1127 q 648 1206 629 1179 q 684 1261 667 1234 q 711 1312 700 1288 l 930 1312 l 930 1297 q 887 1252 917 1279 q 820 1194 857 1224 q 744 1137 783 1165 q 672 1090 704 1108 l 578 1090 l 578 1108 "},"ι":{"x_min":129,"x_max":533,"ha":546,"o":"m 339 745 l 339 227 q 361 128 339 159 q 432 97 383 97 q 484 100 457 97 q 533 108 511 104 l 533 15 q 507 6 524 11 q 468 -3 490 0 q 417 -10 445 -7 q 359 -14 389 -14 q 262 -2 305 -14 q 190 33 219 8 q 144 100 160 58 q 129 201 129 141 l 129 745 l 339 745 "},"Ĳ":{"x_min":38.453125,"x_max":1052.96875,"ha":1068,"o":"m 38 0 l 38 73 l 96 73 q 125 76 112 73 q 147 89 138 80 q 162 116 157 99 q 168 164 168 134 l 168 827 q 162 875 168 857 q 147 902 157 892 q 125 915 138 911 q 96 918 112 918 l 38 918 l 38 992 l 517 992 l 517 918 l 459 918 q 431 915 444 918 q 408 902 418 911 q 393 875 399 892 q 388 827 388 857 l 388 164 q 393 116 388 134 q 408 89 399 99 q 431 76 418 80 q 459 73 444 73 l 517 73 l 517 0 l 38 0 m 1052 918 l 994 918 q 966 915 979 918 q 943 903 953 912 q 928 876 934 893 q 922 828 922 858 l 922 -2 q 908 -114 922 -65 q 869 -200 894 -163 q 809 -263 844 -237 q 733 -304 774 -288 q 646 -326 692 -319 q 553 -334 600 -334 l 502 -334 l 502 -253 l 528 -253 q 592 -240 561 -253 q 648 -199 624 -228 q 688 -121 673 -169 q 703 -4 703 -74 l 703 833 q 697 878 703 861 q 682 903 692 895 q 659 915 672 912 q 632 918 646 918 l 574 918 l 574 992 l 1052 992 l 1052 918 "},"Ê":{"x_min":38.453125,"x_max":863,"ha":907,"o":"m 388 84 l 666 84 q 702 92 687 84 q 728 114 717 100 q 745 148 739 128 q 755 190 752 167 l 766 256 l 863 256 l 852 0 l 38 0 l 38 73 l 96 73 q 124 76 111 73 q 147 87 137 79 q 162 112 157 96 q 168 156 168 129 l 168 828 q 162 876 168 858 q 147 903 157 893 q 125 915 138 912 q 96 918 112 918 l 38 918 l 38 992 l 809 992 l 815 736 l 718 736 l 711 801 q 685 880 705 852 q 622 907 665 907 l 388 907 l 388 560 l 718 560 l 718 476 l 388 476 l 388 84 m 196 1089 q 234 1134 212 1108 q 278 1187 256 1160 q 319 1242 299 1215 q 349 1293 338 1269 l 536 1293 q 566 1242 547 1269 q 607 1187 585 1215 q 651 1134 629 1160 q 689 1089 672 1108 l 689 1071 l 593 1071 q 559 1098 579 1082 q 518 1130 539 1113 q 477 1164 497 1147 q 442 1195 457 1181 q 406 1164 426 1181 q 365 1130 386 1147 q 325 1098 345 1113 q 292 1071 306 1082 l 196 1071 l 196 1089 "},"Ά":{"x_min":5.8125,"x_max":1046.21875,"ha":1046,"o":"m 303 326 l 262 206 q 251 167 257 189 q 245 127 245 144 q 251 103 245 113 q 265 87 256 93 q 285 77 274 80 q 308 73 296 73 l 367 73 l 367 0 l 5 0 l 5 73 l 22 73 q 56 77 41 73 q 84 93 71 82 q 109 124 98 104 q 134 175 121 143 l 435 992 l 625 992 l 916 173 q 937 125 926 144 q 961 94 948 105 q 989 78 975 83 q 1021 73 1004 73 l 1046 73 l 1046 0 l 587 0 l 587 73 l 642 73 q 663 76 652 73 q 682 86 673 80 q 696 103 690 92 q 701 127 701 113 q 697 160 701 144 q 689 187 693 175 l 640 326 l 303 326 m 539 639 q 524 689 532 662 q 508 742 516 715 q 493 796 500 769 q 481 847 486 823 q 467 801 475 826 q 449 749 458 776 q 431 696 440 723 q 414 645 422 670 l 332 411 l 612 411 l 539 639 m 63 788 q 77 835 69 809 q 92 888 84 861 q 106 943 99 916 q 116 993 112 969 l 306 993 l 306 978 q 279 930 296 957 q 243 875 263 903 q 201 820 223 847 q 159 770 179 793 l 63 770 l 63 788 "},")":{"x_min":45,"x_max":476,"ha":555,"o":"m 252 441 q 244 603 252 524 q 213 752 235 682 q 149 882 190 823 q 45 984 109 941 l 45 1072 q 242 963 160 1025 q 376 822 324 901 q 452 648 428 743 q 476 441 476 553 q 452 233 476 329 q 376 58 428 137 q 242 -83 324 -20 q 45 -193 160 -146 l 45 -104 q 149 -1 109 -61 q 213 128 190 57 q 244 279 235 199 q 252 441 252 358 "},"ε":{"x_min":52,"x_max":691,"ha":743,"o":"m 285 560 q 290 512 285 535 q 306 470 296 488 q 333 440 317 452 q 369 426 348 428 q 433 442 398 434 q 500 450 468 450 q 549 437 531 450 q 567 397 567 425 q 542 346 567 366 q 474 327 517 327 q 445 329 463 327 q 407 335 427 331 q 370 344 387 339 q 340 353 352 348 q 285 308 306 343 q 265 219 265 273 q 309 122 265 155 q 436 89 353 89 q 512 98 478 89 q 574 121 546 107 q 622 155 601 136 q 659 192 643 173 q 681 169 671 186 q 691 135 691 153 q 674 79 691 106 q 619 31 657 52 q 521 -1 582 11 q 374 -14 461 -14 q 232 3 292 -14 q 131 51 171 21 q 71 122 91 81 q 52 209 52 163 q 65 280 52 251 q 100 328 78 308 q 149 362 121 348 q 208 385 178 375 l 208 393 q 152 419 177 402 q 109 459 127 437 q 81 509 91 482 q 72 563 72 535 q 94 648 72 611 q 156 710 116 685 q 254 748 196 735 q 383 761 311 761 q 509 747 456 761 q 597 713 563 734 q 648 667 632 693 q 664 615 664 640 q 617 551 664 571 q 474 531 571 531 q 450 642 474 602 q 378 682 426 682 q 334 672 352 682 q 305 645 316 662 q 290 607 294 629 q 285 560 285 585 "},"э":{"x_min":47,"x_max":656,"ha":721,"o":"m 313 63 q 366 78 343 63 q 405 125 389 92 q 430 211 421 158 q 441 343 439 265 l 199 343 l 199 432 l 441 432 q 433 536 439 489 q 413 615 426 582 q 377 665 399 647 q 320 682 354 682 q 270 667 292 682 q 234 627 249 651 q 213 573 220 602 q 206 514 206 543 q 102 540 135 514 q 70 611 70 567 q 84 665 70 638 q 130 713 98 692 q 211 748 161 735 q 333 761 262 761 q 470 740 410 761 q 571 675 530 719 q 634 560 612 630 q 656 390 656 489 q 631 200 656 276 q 563 76 607 123 q 457 8 519 28 q 320 -12 395 -12 q 188 0 241 -12 q 104 34 135 13 q 59 84 72 56 q 47 146 47 113 q 81 225 47 196 q 184 253 116 253 q 192 178 184 213 q 217 118 201 143 q 257 78 233 93 q 313 63 281 63 "},"ш":{"x_min":23.703125,"x_max":1358.296875,"ha":1382,"o":"m 494 745 l 888 745 l 888 671 l 885 671 q 854 668 871 671 q 825 655 838 664 q 802 628 811 645 q 793 580 793 610 l 793 79 l 1038 79 l 1038 580 q 1029 628 1038 610 q 1006 655 1020 645 q 977 668 993 664 q 947 671 961 671 l 944 671 l 944 745 l 1358 745 l 1358 671 l 1341 671 q 1309 668 1326 671 q 1277 655 1291 664 q 1252 628 1262 645 q 1243 580 1243 610 l 1243 158 q 1252 114 1243 130 q 1277 88 1262 97 q 1309 76 1292 79 q 1341 73 1327 73 l 1358 73 l 1358 0 l 23 0 l 23 73 l 39 73 q 72 76 54 73 q 104 88 89 79 q 129 114 119 97 q 139 158 139 130 l 139 580 q 129 628 139 610 q 104 655 119 645 q 72 668 90 664 q 39 671 55 671 l 23 671 l 23 745 l 437 745 l 437 671 l 434 671 q 404 668 420 671 q 375 655 388 664 q 352 628 361 645 q 343 580 343 610 l 343 79 l 589 79 l 589 586 q 579 630 589 614 q 556 656 570 647 q 526 668 542 665 q 497 671 511 671 l 494 671 l 494 745 "},"Я":{"x_min":-7,"x_max":942.53125,"ha":981,"o":"m 942 0 l 463 0 l 463 73 l 522 73 q 549 76 536 73 q 571 87 562 79 q 587 112 581 96 q 593 156 593 129 l 593 431 l 489 431 l 350 152 q 296 73 325 103 q 232 26 268 42 q 148 5 195 10 q 38 0 100 0 l -7 0 l -7 73 l -1 73 q 74 100 38 73 q 143 187 109 126 l 295 469 q 228 506 261 484 q 170 561 195 528 q 129 637 144 594 q 114 735 114 680 q 205 926 114 860 q 494 992 297 992 l 942 992 l 942 918 l 884 918 q 857 915 869 918 q 834 903 844 912 q 818 878 824 895 q 813 833 813 861 l 813 156 q 818 112 813 129 q 834 87 824 96 q 857 76 844 79 q 884 73 869 73 l 942 73 l 942 0 m 593 909 l 518 909 q 439 899 472 909 q 386 865 407 888 q 356 805 366 842 q 347 716 347 768 q 355 626 347 665 q 383 563 363 588 q 435 524 403 537 q 515 512 467 512 l 593 512 l 593 909 "},"a":{"x_min":62,"x_max":786.859375,"ha":832,"o":"m 277 206 q 296 116 277 146 q 356 87 315 87 q 410 99 386 87 q 451 135 434 112 q 477 191 468 158 q 487 265 487 224 l 487 369 l 424 365 q 354 352 383 363 q 309 321 326 341 q 285 273 292 301 q 277 206 277 244 m 401 677 q 356 666 374 677 q 327 634 338 654 q 312 587 316 614 q 308 527 308 559 q 167 548 214 527 q 120 620 120 569 q 143 685 120 658 q 204 729 165 712 q 295 754 243 746 q 406 762 347 762 q 534 749 479 762 q 625 709 588 736 q 679 636 661 681 q 698 526 698 591 l 698 172 q 702 124 698 143 q 716 94 706 105 q 742 78 725 83 q 781 73 758 73 l 786 73 l 786 0 l 528 0 l 499 95 l 487 95 q 443 46 464 67 q 400 12 423 26 q 348 -7 377 -1 q 280 -14 319 -14 q 194 0 234 -14 q 125 41 154 13 q 78 111 95 69 q 62 212 62 154 q 139 379 62 325 q 373 438 217 434 l 487 443 l 487 519 q 484 583 487 554 q 472 633 481 612 q 446 665 464 654 q 401 677 429 677 "},"Ę":{"x_min":38.453125,"x_max":863,"ha":907,"o":"m 388 84 l 666 84 q 702 92 687 84 q 728 114 717 100 q 745 148 739 128 q 755 190 752 167 l 766 256 l 863 256 l 852 0 l 38 0 l 38 73 l 96 73 q 124 76 111 73 q 147 87 137 79 q 162 112 157 96 q 168 156 168 129 l 168 828 q 162 876 168 858 q 147 903 157 893 q 125 915 138 912 q 96 918 112 918 l 38 918 l 38 992 l 809 992 l 815 736 l 718 736 l 711 801 q 685 880 705 852 q 622 907 665 907 l 388 907 l 388 560 l 718 560 l 718 476 l 388 476 l 388 84 m 484 -180 q 497 -118 484 -147 q 534 -65 511 -89 q 586 -24 557 -41 q 648 0 616 -7 l 755 0 q 710 -20 733 -6 q 668 -53 687 -33 q 637 -100 650 -74 q 625 -160 625 -127 q 632 -193 625 -179 q 652 -215 639 -207 q 683 -229 665 -224 q 721 -233 700 -233 q 761 -230 740 -233 q 809 -222 783 -228 l 809 -311 q 782 -321 798 -317 q 749 -327 766 -325 q 717 -332 733 -330 q 690 -334 701 -334 q 536 -297 589 -334 q 484 -180 484 -260 "},"Z":{"x_min":58,"x_max":864,"ha":925,"o":"m 833 921 l 310 84 l 610 84 q 680 96 653 84 q 723 128 707 108 q 746 172 739 147 q 756 223 754 197 l 763 286 l 864 286 l 857 0 l 58 0 l 58 69 l 578 907 l 305 907 q 251 898 272 907 q 217 873 230 889 q 199 833 205 856 q 191 781 193 809 l 183 706 l 84 706 l 90 992 l 833 992 l 833 921 "}," ":{"x_min":0,"x_max":0,"ha":231},"k":{"x_min":23.703125,"x_max":884,"ha":884,"o":"m 884 0 l 864 0 q 736 3 788 0 q 647 18 685 6 q 583 55 610 31 q 529 123 556 80 l 405 318 l 349 276 l 349 164 q 359 116 349 134 q 384 89 369 99 q 416 76 398 80 q 448 73 434 73 l 465 73 l 465 0 l 23 0 l 23 73 l 39 73 q 72 76 55 73 q 104 89 90 80 q 129 116 119 99 q 139 164 139 134 l 139 897 q 129 941 139 924 q 104 967 119 958 q 72 979 89 976 q 39 981 54 981 l 23 981 l 23 1055 l 349 1055 l 349 519 q 348 475 349 500 q 346 428 347 451 q 343 375 344 402 l 518 571 q 548 612 541 597 q 555 637 555 627 q 536 665 555 655 q 483 675 518 675 l 483 745 l 833 745 l 833 675 q 739 646 785 675 q 637 557 692 618 l 550 457 l 734 181 q 808 100 771 126 q 879 73 846 73 l 884 73 l 884 0 "},"Ù":{"x_min":22.78125,"x_max":1015.21875,"ha":1038,"o":"m 1015 918 l 955 918 q 928 915 941 918 q 905 903 915 912 q 890 875 895 893 q 885 828 885 858 l 885 286 q 865 160 885 216 q 802 66 845 104 q 694 6 760 27 q 537 -14 628 -14 q 375 3 447 -14 q 254 58 304 20 q 179 156 205 96 q 153 302 153 216 l 153 833 q 147 878 153 861 q 131 903 141 894 q 109 915 121 912 q 82 918 96 918 l 22 918 l 22 992 l 501 992 l 501 918 l 443 918 q 416 915 429 918 q 393 903 403 912 q 378 875 383 893 q 372 828 372 858 l 372 291 q 387 193 372 233 q 428 129 401 153 q 494 94 456 105 q 579 84 531 84 q 662 96 625 84 q 726 133 699 108 q 766 197 752 158 q 780 288 780 235 l 780 833 q 775 878 780 861 q 759 903 769 894 q 737 915 750 912 q 710 918 724 918 l 651 918 l 651 992 l 1015 992 l 1015 918 m 551 1071 q 479 1118 519 1089 q 402 1175 439 1146 q 335 1233 365 1205 q 293 1278 305 1260 l 293 1293 l 510 1293 q 538 1242 521 1269 q 574 1187 555 1215 q 612 1134 592 1160 q 646 1089 631 1108 l 646 1071 l 551 1071 "},"Ů":{"x_min":22.78125,"x_max":1015.21875,"ha":1038,"o":"m 1015 918 l 955 918 q 928 915 941 918 q 905 903 915 912 q 890 875 895 893 q 885 828 885 858 l 885 286 q 865 160 885 216 q 802 66 845 104 q 694 6 760 27 q 537 -14 628 -14 q 375 3 447 -14 q 254 58 304 20 q 179 156 205 96 q 153 302 153 216 l 153 833 q 147 878 153 861 q 131 903 141 894 q 109 915 121 912 q 82 918 96 918 l 22 918 l 22 992 l 501 992 l 501 918 l 443 918 q 416 915 429 918 q 393 903 403 912 q 378 875 383 893 q 372 828 372 858 l 372 291 q 387 193 372 233 q 428 129 401 153 q 494 94 456 105 q 579 84 531 84 q 662 96 625 84 q 726 133 699 108 q 766 197 752 158 q 780 288 780 235 l 780 833 q 775 878 780 861 q 759 903 769 894 q 737 915 750 912 q 710 918 724 918 l 651 918 l 651 992 l 1015 992 l 1015 918 m 696 1208 q 683 1142 696 1170 q 647 1095 670 1114 q 594 1066 624 1076 q 529 1057 563 1057 q 463 1066 494 1057 q 410 1095 433 1076 q 374 1142 387 1114 q 362 1208 362 1170 q 374 1273 362 1244 q 410 1320 387 1301 q 463 1349 433 1339 q 529 1359 494 1359 q 594 1349 563 1359 q 647 1320 624 1339 q 683 1273 670 1301 q 696 1208 696 1244 m 611 1208 q 604 1242 611 1228 q 587 1265 598 1256 q 560 1278 575 1274 q 529 1282 545 1282 q 497 1278 512 1282 q 470 1265 482 1274 q 453 1242 459 1256 q 446 1208 446 1228 q 453 1173 446 1187 q 470 1150 459 1159 q 497 1137 482 1141 q 529 1132 512 1132 q 560 1137 545 1132 q 587 1150 575 1141 q 604 1173 598 1159 q 611 1208 611 1187 "},"¢":{"x_min":79,"x_max":720,"ha":777,"o":"m 387 115 q 260 143 317 119 q 163 212 203 166 q 101 327 123 257 q 79 496 79 397 q 102 672 79 600 q 166 791 125 745 q 263 860 207 837 q 387 889 320 883 l 387 991 l 473 991 l 473 889 q 579 873 532 885 q 656 841 625 860 q 704 797 688 821 q 720 744 720 772 q 712 700 720 722 q 684 663 704 679 q 629 636 664 646 q 540 626 595 626 q 537 683 540 655 q 526 734 534 711 q 505 774 518 757 q 473 798 492 790 l 473 218 q 539 227 508 218 q 595 251 570 237 q 640 286 621 266 q 672 330 660 306 q 698 302 690 319 q 707 266 707 285 q 693 217 707 242 q 650 170 679 192 q 577 134 621 149 q 473 115 533 119 l 473 0 l 387 0 l 387 115 m 291 498 q 314 325 291 391 q 387 234 336 259 l 387 796 q 346 764 364 785 q 316 707 329 743 q 297 620 304 671 q 291 498 291 568 "},"В":{"x_min":38.453125,"x_max":884,"ha":933,"o":"m 842 739 q 829 659 842 693 q 793 600 816 624 q 738 557 770 575 q 666 527 706 539 l 666 520 q 754 487 715 508 q 823 435 794 466 q 868 363 852 404 q 884 272 884 322 q 784 67 884 135 q 486 0 684 0 l 38 0 l 38 73 l 95 73 q 124 76 111 73 q 146 89 137 80 q 162 116 156 99 q 168 164 168 134 l 168 829 q 162 874 168 857 q 146 901 156 892 q 123 915 136 911 q 95 918 110 918 l 38 918 l 38 992 l 444 992 q 742 930 642 992 q 842 739 842 869 m 387 84 l 479 84 q 558 94 525 84 q 611 127 590 105 q 640 187 631 150 q 650 276 650 223 q 641 365 650 327 q 614 427 633 402 q 562 464 594 451 q 482 476 530 476 l 387 476 l 387 84 m 387 561 l 440 561 q 521 571 489 561 q 573 602 553 581 q 600 657 592 624 q 608 739 608 691 q 599 818 608 786 q 569 870 590 850 q 516 898 549 889 q 437 906 484 906 l 387 906 l 387 561 "},"І":{"x_min":38.453125,"x_max":517.953125,"ha":557,"o":"m 38 0 l 38 73 l 96 73 q 125 76 112 73 q 147 89 138 80 q 162 116 157 99 q 168 164 168 134 l 168 827 q 162 875 168 857 q 147 902 157 892 q 125 915 138 911 q 96 918 112 918 l 38 918 l 38 992 l 517 992 l 517 918 l 459 918 q 431 915 444 918 q 408 902 418 911 q 393 875 399 892 q 388 827 388 857 l 388 164 q 393 116 388 134 q 408 89 399 99 q 431 76 418 80 q 459 73 444 73 l 517 73 l 517 0 l 38 0 "},"ē":{"x_min":65,"x_max":735,"ha":793,"o":"m 412 671 q 319 614 354 671 q 282 445 285 556 l 522 445 q 516 540 522 497 q 497 611 510 582 q 463 656 483 640 q 412 671 442 671 m 425 -14 q 269 11 337 -14 q 156 86 202 37 q 88 206 111 135 q 65 367 65 277 q 88 539 65 465 q 155 662 111 613 q 263 737 199 712 q 409 762 327 762 q 545 740 485 762 q 648 677 606 719 q 712 572 690 635 q 735 427 735 510 l 735 356 l 279 356 q 294 236 281 286 q 331 153 307 186 q 388 105 354 120 q 465 89 421 89 q 531 98 501 89 q 587 121 562 106 q 630 157 612 137 q 661 202 649 178 q 699 134 699 182 q 682 77 699 104 q 632 30 666 51 q 547 -1 598 10 q 425 -14 496 -14 m 623 842 l 220 842 l 220 951 l 623 951 l 623 842 "},"β":{"x_min":129,"x_max":856,"ha":921,"o":"m 129 -334 l 129 793 q 155 924 129 871 q 229 1009 182 977 q 339 1056 276 1042 q 475 1070 402 1070 q 621 1054 558 1070 q 725 1009 684 1038 q 788 937 767 979 q 809 842 809 894 q 801 779 809 808 q 780 727 793 751 q 752 685 768 704 q 718 651 735 666 q 628 597 678 618 l 628 588 q 717 550 676 573 q 790 494 759 527 q 838 415 820 460 q 856 309 856 370 q 834 168 856 229 q 772 67 812 107 q 674 6 731 26 q 546 -14 617 -14 q 421 2 472 -14 q 339 48 370 19 l 339 -334 l 129 -334 m 507 67 q 562 81 537 67 q 605 125 587 95 q 634 200 624 155 q 644 307 644 245 q 635 401 644 362 q 610 468 626 440 q 568 514 593 495 q 511 544 543 532 q 472 531 494 537 q 422 526 451 526 q 383 540 399 526 q 368 579 368 554 q 438 635 368 635 q 457 633 446 635 q 480 631 468 632 q 504 628 493 630 q 521 624 515 626 q 587 692 565 645 q 610 818 610 738 q 601 889 610 857 q 576 945 593 922 q 534 980 559 968 q 476 993 509 993 q 416 980 441 993 q 373 942 390 966 q 347 883 356 918 q 339 804 339 848 l 339 149 q 369 119 352 133 q 408 93 386 104 q 454 74 429 81 q 507 67 478 67 "},"≠":{"x_min":87,"x_max":690,"ha":777,"o":"m 386 679 l 424 822 l 521 822 l 483 679 l 690 679 l 690 582 l 458 582 l 413 409 l 690 409 l 690 313 l 388 313 l 352 169 l 253 169 l 289 313 l 87 313 l 87 409 l 315 409 l 360 582 l 87 582 l 87 679 l 386 679 "},"‼":{"x_min":144.875,"x_max":730.421875,"ha":874,"o":"m 144 992 l 386 992 l 305 317 l 226 317 l 144 992 m 153 99 q 161 152 153 131 q 185 187 170 174 q 222 205 201 200 q 267 211 243 211 q 310 205 290 211 q 347 187 331 200 q 371 152 362 174 q 381 99 381 131 q 371 47 381 68 q 347 13 362 26 q 310 -5 331 0 q 267 -11 290 -11 q 222 -5 243 -11 q 185 13 201 0 q 161 47 170 26 q 153 99 153 68 m 488 992 l 730 992 l 649 317 l 570 317 l 488 992 m 497 99 q 505 152 497 131 q 529 187 514 174 q 566 205 545 200 q 611 211 587 211 q 654 205 634 211 q 691 187 675 200 q 715 152 706 174 q 725 99 725 131 q 715 47 725 68 q 691 13 706 26 q 654 -5 675 0 q 611 -11 634 -11 q 566 -5 587 -11 q 529 13 545 0 q 505 47 514 26 q 497 99 497 68 "},"¥":{"x_min":-4.265625,"x_max":749.859375,"ha":749,"o":"m 132 0 l 132 73 l 164 73 q 207 74 187 73 q 243 82 227 75 q 267 105 258 89 q 278 152 277 122 l 278 229 l 83 229 l 83 311 l 278 311 l 278 392 l 83 392 l 83 474 l 254 474 l 90 844 q 72 880 80 865 q 53 902 63 894 q 30 915 43 911 q 0 918 17 918 l -4 918 l -4 992 l 393 992 l 393 918 l 383 918 q 322 905 340 918 q 304 864 304 893 q 310 827 304 847 q 326 782 315 807 l 379 650 q 409 565 396 606 q 427 496 422 524 q 442 541 431 515 q 463 598 452 568 l 522 750 q 536 791 530 774 q 544 821 541 808 q 548 844 547 834 q 549 863 549 854 q 530 905 549 891 q 465 918 511 918 l 460 918 l 460 992 l 749 992 l 749 918 l 745 918 q 714 914 728 918 q 689 897 701 909 q 665 863 677 884 q 640 810 654 842 l 497 474 l 678 474 l 678 392 l 484 392 l 484 311 l 678 311 l 678 229 l 484 229 l 484 159 q 494 109 484 126 q 518 83 503 91 q 554 74 533 75 q 598 73 575 73 l 630 73 l 630 0 l 132 0 "},"Ĥ":{"x_min":38.453125,"x_max":1097.859375,"ha":1137,"o":"m 618 0 l 618 73 l 678 73 q 705 76 692 73 q 728 89 718 80 q 743 116 738 99 q 749 164 749 134 l 749 475 l 387 475 l 387 164 q 392 116 387 134 q 408 89 398 99 q 430 76 417 80 q 458 73 443 73 l 517 73 l 517 0 l 38 0 l 38 73 l 96 73 q 124 76 111 73 q 147 89 137 80 q 162 116 157 99 q 168 164 168 134 l 168 833 q 162 877 168 861 q 146 903 156 894 q 123 915 136 911 q 96 918 111 918 l 38 918 l 38 992 l 517 992 l 517 918 l 458 918 q 430 915 443 918 q 408 902 417 911 q 392 875 398 892 q 387 827 387 857 l 387 560 l 749 560 l 749 827 q 743 875 749 857 q 728 902 738 892 q 705 915 718 911 q 678 918 692 918 l 618 918 l 618 992 l 1097 992 l 1097 918 l 1039 918 q 1012 915 1025 918 q 989 902 999 911 q 974 875 979 892 q 969 827 969 857 l 969 156 q 974 112 969 129 q 990 87 980 96 q 1012 76 1000 79 q 1039 73 1025 73 l 1097 73 l 1097 0 l 618 0 m 323 1089 q 361 1134 339 1108 q 405 1187 383 1160 q 446 1242 426 1215 q 476 1293 465 1269 l 663 1293 q 693 1242 674 1269 q 734 1187 712 1215 q 778 1134 756 1160 q 816 1089 799 1108 l 816 1071 l 720 1071 q 686 1098 706 1082 q 645 1130 666 1113 q 604 1164 624 1147 q 569 1195 584 1181 q 533 1164 553 1181 q 492 1130 513 1147 q 452 1098 472 1113 q 419 1071 433 1082 l 323 1071 l 323 1089 "},"U":{"x_min":22.78125,"x_max":1015.21875,"ha":1038,"o":"m 1015 918 l 955 918 q 928 915 941 918 q 905 903 915 912 q 890 875 895 893 q 885 828 885 858 l 885 286 q 865 160 885 216 q 802 66 845 104 q 694 6 760 27 q 537 -14 628 -14 q 375 3 447 -14 q 254 58 304 20 q 179 156 205 96 q 153 302 153 216 l 153 833 q 147 878 153 861 q 131 903 141 894 q 109 915 121 912 q 82 918 96 918 l 22 918 l 22 992 l 501 992 l 501 918 l 443 918 q 416 915 429 918 q 393 903 403 912 q 378 875 383 893 q 372 828 372 858 l 372 291 q 387 193 372 233 q 428 129 401 153 q 494 94 456 105 q 579 84 531 84 q 662 96 625 84 q 726 133 699 108 q 766 197 752 158 q 780 288 780 235 l 780 833 q 775 878 780 861 q 759 903 769 894 q 737 915 750 912 q 710 918 724 918 l 651 918 l 651 992 l 1015 992 l 1015 918 "},"Ñ":{"x_min":38.453125,"x_max":1070.859375,"ha":1095,"o":"m 813 0 l 271 765 l 271 164 q 277 116 271 134 q 292 89 283 99 q 315 76 302 80 q 342 73 328 73 l 401 73 l 401 0 l 38 0 l 38 73 l 96 73 q 124 76 111 73 q 147 89 137 80 q 162 116 157 99 q 168 164 168 134 l 168 833 q 162 878 168 861 q 146 903 156 895 q 123 915 136 912 q 96 918 111 918 l 38 918 l 38 992 l 347 992 l 837 298 l 837 833 q 831 878 837 861 q 816 903 826 895 q 793 915 806 912 q 766 918 780 918 l 708 918 l 708 992 l 1070 992 l 1070 918 l 1012 918 q 985 915 998 918 q 962 903 972 912 q 947 876 952 893 q 942 828 942 858 l 942 0 l 813 0 m 676 1203 q 703 1209 691 1203 q 724 1225 715 1215 q 737 1249 732 1235 q 744 1276 742 1262 l 835 1276 q 819 1197 832 1234 q 783 1131 805 1159 q 729 1087 760 1103 q 661 1071 698 1071 q 593 1084 624 1071 q 537 1114 563 1098 q 488 1145 511 1131 q 443 1158 466 1158 q 416 1152 428 1158 q 395 1136 404 1146 q 382 1112 387 1126 q 375 1085 377 1099 l 285 1085 q 300 1164 287 1127 q 337 1230 314 1202 q 391 1274 360 1258 q 459 1291 422 1291 q 527 1277 497 1291 q 583 1247 557 1263 q 632 1216 609 1230 q 676 1203 655 1203 "},"F":{"x_min":38.453125,"x_max":815,"ha":863,"o":"m 718 736 l 711 803 q 677 882 704 858 q 608 907 650 907 l 387 907 l 387 528 l 716 528 l 716 445 l 387 445 l 387 164 q 392 116 387 134 q 408 89 398 99 q 431 76 417 80 q 459 73 444 73 l 545 73 l 545 0 l 38 0 l 38 73 l 96 73 q 124 76 111 73 q 147 87 137 79 q 162 112 157 96 q 168 156 168 129 l 168 833 q 162 878 168 861 q 147 903 157 895 q 124 915 137 912 q 96 918 111 918 l 38 918 l 38 992 l 808 992 l 815 736 l 718 736 "},"ϑ":{"x_min":21.453125,"x_max":937.203125,"ha":958,"o":"m 629 668 q 609 796 623 740 q 576 892 596 853 q 531 952 556 932 q 475 973 505 973 q 411 945 437 973 q 386 859 386 917 q 406 774 386 810 q 458 715 425 738 q 536 680 491 691 q 629 668 580 668 m 844 592 q 846 556 845 576 q 847 514 847 536 q 821 300 847 397 q 744 133 796 202 q 614 24 692 63 q 432 -14 536 -14 q 282 6 343 -14 q 183 59 221 26 q 129 135 146 92 q 113 226 113 179 q 115 282 113 253 q 120 338 117 310 q 126 389 123 365 q 129 430 129 413 q 116 476 129 459 q 65 494 102 494 l 21 494 l 21 568 l 165 568 q 301 537 260 568 q 343 446 343 506 q 340 393 343 423 q 335 331 338 363 q 329 268 332 300 q 326 211 326 237 q 332 156 326 182 q 353 113 338 131 q 391 84 367 94 q 449 73 414 73 q 533 105 497 73 q 592 194 569 136 q 627 332 615 251 q 638 512 638 413 q 638 555 638 533 q 636 592 637 578 q 432 613 517 594 q 292 668 346 633 q 211 750 237 702 q 185 858 185 799 q 203 943 185 905 q 258 1007 222 980 q 345 1047 294 1033 q 464 1061 397 1061 q 616 1032 552 1061 q 725 952 680 1003 q 797 827 770 900 q 838 666 824 754 l 937 666 l 937 592 l 844 592 "},"Ќ":{"x_min":38.453125,"x_max":1000,"ha":1000,"o":"m 901 0 q 807 8 847 0 q 738 33 768 16 q 687 75 709 50 q 648 132 665 99 l 516 372 q 485 419 499 403 q 455 445 471 436 q 419 456 439 454 q 373 458 400 458 l 373 164 q 379 116 373 134 q 394 89 385 99 q 417 76 404 80 q 445 73 430 73 l 503 73 l 503 0 l 38 0 l 38 73 l 96 73 q 124 76 111 73 q 147 87 137 79 q 162 112 157 96 q 168 156 168 129 l 168 833 q 162 878 168 861 q 147 903 157 895 q 124 915 137 912 q 96 918 111 918 l 38 918 l 38 992 l 503 992 l 503 918 l 445 918 q 417 915 430 918 q 394 903 404 912 q 379 875 385 893 q 373 828 373 858 l 373 538 q 413 540 396 538 q 442 546 429 542 q 467 558 456 550 q 488 577 477 566 q 538 647 507 597 q 606 773 568 697 q 663 877 637 834 q 719 947 690 920 q 781 987 748 974 q 856 1000 814 1000 q 940 975 915 1000 q 966 912 966 950 q 947 842 966 869 q 898 809 929 815 q 889 836 895 823 q 873 859 883 849 q 851 875 864 869 q 820 881 837 881 q 781 872 799 881 q 748 846 764 864 q 714 798 732 827 q 675 727 697 769 q 635 652 652 684 q 601 597 617 620 q 571 558 586 575 q 540 530 556 542 q 598 521 570 530 q 650 494 626 511 q 694 453 674 477 q 731 400 715 429 l 844 198 q 879 141 863 165 q 914 103 896 118 q 950 81 932 88 q 991 73 969 73 l 1000 73 l 1000 0 l 901 0 m 449 1089 q 482 1134 463 1108 q 519 1187 500 1160 q 555 1242 538 1215 q 582 1293 571 1269 l 801 1293 l 801 1278 q 758 1233 788 1260 q 691 1175 728 1205 q 615 1118 654 1146 q 543 1071 575 1089 l 449 1071 l 449 1089 "},"å":{"x_min":62,"x_max":786.859375,"ha":832,"o":"m 277 206 q 296 116 277 146 q 356 87 315 87 q 410 99 386 87 q 451 135 434 112 q 477 191 468 158 q 487 265 487 224 l 487 369 l 424 365 q 354 352 383 363 q 309 321 326 341 q 285 273 292 301 q 277 206 277 244 m 401 677 q 356 666 374 677 q 327 634 338 654 q 312 587 316 614 q 308 527 308 559 q 167 548 214 527 q 120 620 120 569 q 143 685 120 658 q 204 729 165 712 q 295 754 243 746 q 406 762 347 762 q 534 749 479 762 q 625 709 588 736 q 679 636 661 681 q 698 526 698 591 l 698 172 q 702 124 698 143 q 716 94 706 105 q 742 78 725 83 q 781 73 758 73 l 786 73 l 786 0 l 528 0 l 499 95 l 487 95 q 443 46 464 67 q 400 12 423 26 q 348 -7 377 -1 q 280 -14 319 -14 q 194 0 234 -14 q 125 41 154 13 q 78 111 95 69 q 62 212 62 154 q 139 379 62 325 q 373 438 217 434 l 487 443 l 487 519 q 484 583 487 554 q 472 633 481 612 q 446 665 464 654 q 401 677 429 677 m 587 979 q 574 913 587 941 q 538 866 561 885 q 485 837 515 847 q 420 828 454 828 q 354 837 385 828 q 301 866 324 847 q 265 913 278 885 q 253 979 253 941 q 265 1044 253 1015 q 301 1091 278 1072 q 354 1120 324 1110 q 420 1130 385 1130 q 485 1120 454 1130 q 538 1091 515 1110 q 574 1044 561 1072 q 587 979 587 1015 m 502 979 q 495 1013 502 999 q 478 1036 489 1027 q 451 1049 466 1045 q 420 1053 436 1053 q 388 1049 403 1053 q 361 1036 373 1045 q 344 1013 350 1027 q 337 979 337 999 q 344 944 337 958 q 361 921 350 930 q 388 908 373 912 q 420 903 403 903 q 451 908 436 903 q 478 921 466 912 q 495 944 489 930 q 502 979 502 958 "},"Ϋ":{"x_min":0.34375,"x_max":962.5625,"ha":962,"o":"m 228 0 l 228 73 l 293 73 q 324 75 310 73 q 350 86 339 77 q 367 111 361 94 q 374 157 374 128 l 374 351 l 117 844 q 97 879 106 865 q 77 902 88 893 q 52 914 66 910 q 18 918 39 918 l 0 918 l 0 992 l 465 992 l 465 918 l 441 918 q 379 901 399 918 q 358 856 358 884 q 364 817 358 838 q 379 779 371 797 l 482 575 q 518 496 504 530 q 543 430 532 462 q 576 510 557 467 q 618 600 595 553 l 698 766 q 718 817 713 797 q 722 850 722 838 q 699 902 722 886 q 630 918 677 918 l 599 918 l 599 992 l 962 992 l 962 918 l 936 918 q 905 913 918 918 q 882 897 893 909 q 859 863 871 884 q 831 810 847 842 l 595 349 l 595 159 q 601 112 595 129 q 617 86 607 95 q 642 75 628 77 q 672 73 656 73 l 740 73 l 740 0 l 228 0 m 272 1184 q 278 1224 272 1207 q 296 1251 285 1240 q 322 1265 307 1261 q 353 1270 337 1270 q 384 1265 370 1270 q 411 1251 399 1261 q 429 1224 422 1240 q 437 1184 437 1207 q 429 1144 437 1160 q 411 1117 422 1127 q 384 1102 399 1107 q 353 1098 370 1098 q 322 1102 337 1098 q 296 1117 307 1107 q 278 1144 285 1127 q 272 1184 272 1160 m 557 1184 q 563 1224 557 1207 q 582 1251 570 1240 q 608 1265 593 1261 q 640 1270 623 1270 q 670 1265 655 1270 q 696 1251 684 1261 q 714 1224 707 1240 q 722 1184 722 1207 q 714 1144 722 1160 q 696 1117 707 1127 q 670 1102 684 1107 q 640 1098 655 1098 q 608 1102 623 1098 q 582 1117 593 1107 q 563 1144 570 1127 q 557 1184 557 1160 "},"0":{"x_min":47,"x_max":730,"ha":777,"o":"m 730 497 q 710 288 730 382 q 650 126 691 193 q 544 22 609 59 q 388 -14 479 -14 q 228 22 293 -14 q 122 126 163 59 q 64 288 82 193 q 47 498 47 383 q 64 707 47 613 q 122 867 82 801 q 228 970 163 934 q 390 1006 294 1006 q 545 970 480 1006 q 650 867 609 934 q 710 707 691 801 q 730 497 730 613 m 262 497 q 267 319 262 397 q 286 187 272 241 q 325 104 300 133 q 388 76 349 76 q 452 104 427 76 q 490 187 476 133 q 509 319 504 241 q 515 497 515 397 q 509 674 515 596 q 491 805 504 752 q 452 887 477 859 q 390 915 428 915 q 326 887 351 915 q 287 805 301 859 q 267 674 272 752 q 262 497 262 596 "},"ō":{"x_min":65,"x_max":786,"ha":851,"o":"m 786 374 q 694 82 786 178 q 423 -14 602 -14 q 273 10 340 -14 q 160 82 207 34 q 89 203 114 130 q 65 374 65 277 q 156 666 65 570 q 427 762 248 762 q 577 738 511 762 q 690 666 643 714 q 761 545 736 618 q 786 374 786 472 m 280 374 q 288 244 280 300 q 313 150 296 188 q 358 92 330 112 q 426 73 386 73 q 494 92 466 73 q 538 150 521 112 q 563 244 556 188 q 571 374 571 300 q 563 505 571 449 q 538 598 555 561 q 492 654 520 635 q 425 673 465 673 q 357 654 385 673 q 312 598 329 635 q 288 505 295 561 q 280 374 280 449 m 623 842 l 220 842 l 220 951 l 623 951 l 623 842 "},"”":{"x_min":61.96875,"x_max":601,"ha":679,"o":"m 311 839 q 297 753 311 795 q 254 676 283 712 q 176 613 224 641 q 61 567 129 585 l 61 638 q 115 660 92 649 q 153 684 138 671 q 176 711 168 696 q 184 747 184 727 q 176 769 184 761 q 158 784 169 777 q 133 800 146 792 q 109 820 120 807 q 90 850 97 832 q 83 896 83 868 q 111 967 83 943 q 182 992 140 992 q 276 951 241 992 q 311 839 311 910 m 601 839 q 587 753 601 795 q 544 676 573 712 q 466 613 514 641 q 351 567 419 585 l 351 638 q 405 660 382 649 q 443 684 428 671 q 466 711 458 696 q 474 747 474 727 q 466 769 474 761 q 448 784 459 777 q 423 800 436 792 q 399 820 410 807 q 380 850 387 832 q 373 896 373 868 q 401 967 373 943 q 472 992 430 992 q 566 951 531 992 q 601 839 601 910 "},"ö":{"x_min":65,"x_max":786,"ha":851,"o":"m 786 374 q 694 82 786 178 q 423 -14 602 -14 q 273 10 340 -14 q 160 82 207 34 q 89 203 114 130 q 65 374 65 277 q 156 666 65 570 q 427 762 248 762 q 577 738 511 762 q 690 666 643 714 q 761 545 736 618 q 786 374 786 472 m 280 374 q 288 244 280 300 q 313 150 296 188 q 358 92 330 112 q 426 73 386 73 q 494 92 466 73 q 538 150 521 112 q 563 244 556 188 q 571 374 571 300 q 563 505 571 449 q 538 598 555 561 q 492 654 520 635 q 425 673 465 673 q 357 654 385 673 q 312 598 329 635 q 288 505 295 561 q 280 374 280 449 m 199 955 q 205 995 199 978 q 223 1022 212 1011 q 249 1036 234 1032 q 280 1041 264 1041 q 311 1036 297 1041 q 338 1022 326 1032 q 356 995 349 1011 q 364 955 364 978 q 356 915 364 931 q 338 888 349 898 q 311 873 326 878 q 280 869 297 869 q 249 873 264 869 q 223 888 234 878 q 205 915 212 898 q 199 955 199 931 m 484 955 q 490 995 484 978 q 509 1022 497 1011 q 535 1036 520 1032 q 567 1041 550 1041 q 597 1036 582 1041 q 623 1022 611 1032 q 641 995 634 1011 q 649 955 649 978 q 641 915 649 931 q 623 888 634 898 q 597 873 611 878 q 567 869 582 869 q 535 873 550 869 q 509 888 520 878 q 490 915 497 898 q 484 955 484 931 "},"ć":{"x_min":65,"x_max":681,"ha":732,"o":"m 409 -14 q 269 5 332 -14 q 160 70 206 25 q 90 189 115 116 q 65 369 65 262 q 91 557 65 481 q 163 677 117 632 q 271 742 208 723 q 405 762 333 762 q 524 750 472 762 q 610 719 575 739 q 663 673 645 700 q 681 616 681 646 q 673 572 681 593 q 645 534 665 551 q 590 508 625 518 q 501 498 555 498 q 496 566 501 534 q 482 623 492 599 q 454 662 472 648 q 410 677 437 677 q 356 662 380 677 q 314 612 332 648 q 288 518 297 577 q 279 370 279 459 q 317 159 279 229 q 444 89 356 89 q 511 98 480 89 q 569 121 543 106 q 614 157 594 137 q 645 202 633 178 q 670 174 662 192 q 679 138 679 157 q 663 85 679 112 q 614 35 647 57 q 531 0 581 13 q 409 -14 480 -14 m 304 860 q 337 905 318 879 q 374 958 355 931 q 410 1013 393 986 q 437 1064 426 1040 l 656 1064 l 656 1049 q 613 1004 643 1031 q 546 946 583 976 q 470 889 509 917 q 398 842 430 860 l 304 842 l 304 860 "},"þ":{"x_min":18.703125,"x_max":831,"ha":896,"o":"m 34 -260 q 67 -257 49 -260 q 99 -244 85 -253 q 124 -217 114 -234 q 134 -169 134 -199 l 134 884 q 126 935 134 916 q 107 964 119 954 q 77 978 94 974 q 40 981 60 981 l 30 981 l 30 1055 l 344 1055 l 344 800 q 342 752 344 780 q 336 698 339 724 q 327 635 332 667 l 334 635 q 368 685 348 663 q 415 724 388 707 q 473 749 441 740 q 546 758 506 758 q 668 735 615 758 q 757 664 721 712 q 812 543 793 616 q 831 369 831 470 q 812 196 831 269 q 758 75 794 123 q 671 5 723 28 q 551 -17 619 -17 q 422 13 472 -17 q 343 94 373 43 l 334 94 q 339 31 336 62 q 343 -23 341 5 q 344 -74 344 -52 l 344 -169 q 354 -217 344 -199 q 379 -244 364 -234 q 411 -257 393 -253 q 443 -260 428 -260 l 473 -260 l 473 -334 l 18 -334 l 18 -260 l 34 -260 m 486 86 q 586 156 556 86 q 616 368 616 226 q 586 580 616 506 q 487 654 556 654 q 418 635 445 654 q 374 580 391 616 q 351 491 358 544 q 344 369 344 437 q 351 244 344 297 q 374 155 358 191 q 418 103 391 120 q 486 86 445 86 "},"]":{"x_min":51.453125,"x_max":436,"ha":575,"o":"m 436 1055 l 436 -178 l 51 -178 l 51 -104 l 111 -104 q 155 -101 134 -104 q 191 -87 176 -97 q 215 -56 206 -76 q 225 -4 225 -36 l 225 881 q 215 934 225 914 q 191 964 206 953 q 155 978 176 974 q 111 981 134 981 l 51 981 l 51 1055 l 436 1055 "},"А":{"x_min":5.8125,"x_max":1046.21875,"ha":1046,"o":"m 303 326 l 262 206 q 251 167 257 189 q 245 127 245 144 q 251 103 245 113 q 265 87 256 93 q 285 77 274 80 q 308 73 296 73 l 367 73 l 367 0 l 5 0 l 5 73 l 22 73 q 56 77 41 73 q 84 93 71 82 q 109 124 98 104 q 134 175 121 143 l 435 992 l 625 992 l 916 173 q 937 125 926 144 q 961 94 948 105 q 989 78 975 83 q 1021 73 1004 73 l 1046 73 l 1046 0 l 587 0 l 587 73 l 642 73 q 663 76 652 73 q 682 86 673 80 q 696 103 690 92 q 701 127 701 113 q 697 160 701 144 q 689 187 693 175 l 640 326 l 303 326 m 539 639 q 524 689 532 662 q 508 742 516 715 q 493 796 500 769 q 481 847 486 823 q 467 801 475 826 q 449 749 458 776 q 431 696 440 723 q 414 645 422 670 l 332 411 l 612 411 l 539 639 "},"′":{"x_min":93,"x_max":310.03125,"ha":403,"o":"m 93 992 l 310 992 l 247 610 l 155 610 l 93 992 "},"Ы":{"x_min":38.453125,"x_max":1332.859375,"ha":1372,"o":"m 545 992 l 545 918 l 460 918 q 405 900 423 918 q 387 835 387 881 l 387 558 l 460 558 q 630 537 560 558 q 745 480 700 517 q 809 392 789 444 q 830 280 830 341 q 807 166 830 218 q 738 77 784 114 q 620 20 691 40 q 453 0 550 0 l 38 0 l 38 73 l 96 73 q 131 79 117 73 q 153 94 144 84 q 164 123 161 105 q 168 165 168 141 l 168 828 q 162 874 168 857 q 148 902 157 892 q 126 915 139 911 q 96 918 113 918 l 38 918 l 38 992 l 545 992 m 387 82 l 441 82 q 512 93 483 82 q 560 129 541 105 q 586 189 578 153 q 595 273 595 225 q 585 367 595 328 q 556 431 576 406 q 503 466 535 455 q 426 477 471 477 l 387 477 l 387 82 m 854 0 l 854 73 l 912 73 q 940 76 927 73 q 962 89 953 80 q 977 116 972 99 q 982 164 982 134 l 982 828 q 977 876 982 858 q 962 903 972 893 q 940 915 953 912 q 912 918 927 918 l 854 918 l 854 992 l 1332 992 l 1332 918 l 1274 918 q 1246 915 1259 918 q 1224 903 1233 912 q 1209 876 1214 893 q 1204 828 1204 858 l 1204 164 q 1209 116 1204 134 q 1224 89 1214 99 q 1246 76 1233 80 q 1274 73 1259 73 l 1332 73 l 1332 0 l 854 0 "},"ẁ":{"x_min":-4.40625,"x_max":1190.078125,"ha":1189,"o":"m 686 737 l 821 327 q 846 242 838 277 q 858 181 853 207 l 862 181 q 868 215 865 199 q 876 247 871 230 q 886 284 880 264 q 899 330 891 304 l 960 533 q 970 571 966 550 q 973 603 973 591 q 951 654 973 638 q 881 671 928 671 l 871 671 l 871 745 l 1190 745 l 1190 671 l 1172 671 q 1137 667 1152 671 q 1110 651 1122 662 q 1089 617 1099 639 q 1068 562 1078 596 l 888 0 l 739 0 l 587 461 l 427 0 l 276 0 l 98 597 q 81 633 90 619 q 61 656 72 648 q 34 667 49 664 q 0 671 20 671 l -4 671 l -4 745 l 402 745 l 402 671 l 384 671 q 321 659 342 671 q 300 612 300 647 q 304 584 300 601 q 312 553 308 568 l 363 372 q 376 320 370 347 q 388 269 382 294 q 398 221 393 244 q 405 181 402 199 l 409 181 q 425 253 415 216 q 454 341 436 290 l 595 737 l 686 737 m 632 842 q 560 889 600 860 q 483 946 520 917 q 416 1004 446 976 q 374 1049 386 1031 l 374 1064 l 591 1064 q 619 1013 602 1040 q 655 958 636 986 q 693 905 673 931 q 727 860 712 879 l 727 842 l 632 842 "},"ĭ":{"x_min":12,"x_max":465.234375,"ha":489,"o":"m 39 73 q 72 76 55 73 q 104 89 90 80 q 129 116 119 99 q 139 164 139 134 l 139 586 q 129 630 139 614 q 104 656 119 647 q 72 668 89 665 q 39 671 54 671 l 23 671 l 23 745 l 349 745 l 349 164 q 359 116 349 134 q 384 89 369 99 q 416 76 398 80 q 448 73 434 73 l 465 73 l 465 0 l 23 0 l 23 73 l 39 73 m 234 842 q 138 861 179 842 q 69 911 97 880 q 27 981 41 942 q 12 1060 13 1020 l 103 1060 q 149 987 115 1009 q 234 965 182 965 q 319 987 285 965 q 364 1060 353 1009 l 457 1060 q 441 981 455 1020 q 399 911 427 942 q 330 861 371 880 q 234 842 289 842 "},"8":{"x_min":41,"x_max":735,"ha":777,"o":"m 41 252 q 55 333 41 297 q 97 398 70 369 q 162 453 124 428 q 245 501 200 478 q 118 610 162 549 q 74 752 74 671 q 90 846 74 801 q 145 927 107 892 q 244 984 183 963 q 396 1006 306 1006 q 524 987 469 1006 q 617 936 580 969 q 673 859 654 904 q 692 762 692 815 q 678 689 692 720 q 641 631 665 657 q 582 582 616 604 q 504 537 547 560 q 610 476 566 507 q 682 411 654 445 q 722 341 709 378 q 735 262 735 304 q 710 145 735 196 q 640 58 686 93 q 529 4 595 23 q 379 -14 463 -14 q 228 7 292 -14 q 122 64 164 28 q 61 148 81 100 q 41 252 41 197 m 385 64 q 450 77 422 64 q 500 113 479 90 q 531 168 520 136 q 542 238 542 200 q 530 299 542 272 q 494 351 519 327 q 431 398 469 375 q 339 445 393 421 q 295 411 316 430 q 260 367 275 391 q 237 313 245 343 q 228 247 228 283 q 240 172 228 206 q 272 115 251 139 q 321 77 292 91 q 385 64 350 64 m 517 765 q 508 823 517 794 q 483 875 500 852 q 443 911 467 897 q 387 925 419 925 q 336 913 358 925 q 299 880 314 901 q 277 831 284 860 q 269 769 269 803 q 279 706 269 733 q 308 657 289 679 q 354 618 327 636 q 419 584 382 601 q 463 616 445 599 q 493 655 481 633 q 511 703 505 676 q 517 765 517 730 "},"R":{"x_min":38.453125,"x_max":987.734375,"ha":982,"o":"m 38 73 l 96 73 q 123 76 111 73 q 146 87 136 79 q 162 112 156 96 q 168 156 168 129 l 168 833 q 162 878 168 861 q 146 903 156 895 q 123 915 136 912 q 96 918 111 918 l 38 918 l 38 992 l 486 992 q 775 926 683 992 q 867 735 867 860 q 850 637 867 680 q 807 562 834 594 q 746 508 780 530 q 677 472 712 486 l 843 187 q 877 136 860 157 q 910 100 894 114 q 945 80 927 86 q 982 73 962 73 l 987 73 l 987 0 l 942 0 q 833 4 879 0 q 751 23 786 9 q 691 61 716 37 q 644 124 666 86 l 479 431 l 387 431 l 387 156 q 392 112 387 129 q 408 87 398 96 q 431 76 418 79 q 458 73 444 73 l 517 73 l 517 0 l 38 0 l 38 73 m 387 512 l 465 512 q 545 524 513 512 q 597 563 577 537 q 625 626 616 588 q 633 716 633 665 q 624 805 633 768 q 594 865 614 842 q 541 899 573 888 q 462 909 508 909 l 387 909 l 387 512 "},"Ż":{"x_min":58,"x_max":864,"ha":925,"o":"m 833 921 l 310 84 l 610 84 q 680 96 653 84 q 723 128 707 108 q 746 172 739 147 q 756 223 754 197 l 763 286 l 864 286 l 857 0 l 58 0 l 58 69 l 578 907 l 305 907 q 251 898 272 907 q 217 873 230 889 q 199 833 205 856 q 191 781 193 809 l 183 706 l 84 706 l 90 992 l 833 992 l 833 921 m 368 1198 q 377 1243 368 1224 q 402 1274 386 1262 q 439 1292 418 1286 q 486 1298 460 1298 q 531 1292 509 1298 q 569 1274 553 1286 q 595 1243 585 1262 q 605 1198 605 1224 q 595 1153 605 1172 q 569 1122 585 1134 q 531 1104 553 1110 q 486 1098 509 1098 q 439 1104 460 1098 q 402 1122 418 1110 q 377 1153 386 1134 q 368 1198 368 1172 "},"ħ":{"x_min":18.28125,"x_max":889.65625,"ha":926,"o":"m 139 876 l 139 897 q 129 941 139 924 q 104 967 119 958 q 72 979 89 976 q 39 981 54 981 l 23 981 l 23 1055 l 349 1055 l 349 876 l 565 876 l 565 802 l 349 802 l 349 784 q 348 726 349 757 q 344 669 346 695 q 339 608 341 638 l 351 608 q 395 670 372 647 q 445 703 418 692 q 501 717 471 714 q 563 721 530 721 q 659 705 616 721 q 731 657 701 689 q 776 574 760 624 q 792 453 792 523 l 792 172 q 797 120 792 139 q 815 90 803 101 q 844 77 826 80 q 885 73 861 73 l 889 73 l 889 0 l 581 0 l 581 415 q 575 494 581 459 q 556 553 569 529 q 521 590 543 577 q 470 602 500 602 q 412 585 435 602 q 375 537 389 567 q 356 469 362 508 q 349 387 349 430 l 349 164 q 357 117 349 134 q 377 89 364 99 q 408 76 389 80 q 450 73 427 73 l 454 73 l 454 0 l 27 0 l 27 73 l 30 73 q 73 76 54 73 q 108 90 93 80 q 130 119 122 100 q 139 169 139 138 l 139 802 l 18 802 l 18 876 l 139 876 "},"õ":{"x_min":65,"x_max":786,"ha":851,"o":"m 786 374 q 694 82 786 178 q 423 -14 602 -14 q 273 10 340 -14 q 160 82 207 34 q 89 203 114 130 q 65 374 65 277 q 156 666 65 570 q 427 762 248 762 q 577 738 511 762 q 690 666 643 714 q 761 545 736 618 q 786 374 786 472 m 280 374 q 288 244 280 300 q 313 150 296 188 q 358 92 330 112 q 426 73 386 73 q 494 92 466 73 q 538 150 521 112 q 563 244 556 188 q 571 374 571 300 q 563 505 571 449 q 538 598 555 561 q 492 654 520 635 q 425 673 465 673 q 357 654 385 673 q 312 598 329 635 q 288 505 295 561 q 280 374 280 449 m 538 974 q 565 980 553 974 q 586 996 577 986 q 599 1020 594 1006 q 606 1047 604 1033 l 697 1047 q 681 968 694 1005 q 645 902 667 930 q 591 858 622 874 q 523 842 560 842 q 455 855 486 842 q 399 885 425 869 q 350 916 373 902 q 305 929 328 929 q 278 923 290 929 q 257 907 266 917 q 244 883 249 897 q 237 856 239 870 l 147 856 q 162 935 149 898 q 199 1001 176 973 q 253 1045 222 1029 q 321 1062 284 1062 q 389 1048 359 1062 q 445 1018 419 1034 q 494 987 471 1001 q 538 974 517 974 "},"˙":{"x_min":113,"x_max":350.390625,"ha":452,"o":"m 113 969 q 122 1014 113 995 q 147 1045 131 1033 q 184 1063 163 1057 q 231 1069 205 1069 q 276 1063 254 1069 q 314 1045 298 1057 q 340 1014 330 1033 q 350 969 350 995 q 340 924 350 943 q 314 893 330 905 q 276 875 298 881 q 231 869 254 869 q 184 875 205 869 q 147 893 163 881 q 122 924 131 905 q 113 969 113 943 "},"ê":{"x_min":65,"x_max":735,"ha":793,"o":"m 412 671 q 319 614 354 671 q 282 445 285 556 l 522 445 q 516 540 522 497 q 497 611 510 582 q 463 656 483 640 q 412 671 442 671 m 425 -14 q 269 11 337 -14 q 156 86 202 37 q 88 206 111 135 q 65 367 65 277 q 88 539 65 465 q 155 662 111 613 q 263 737 199 712 q 409 762 327 762 q 545 740 485 762 q 648 677 606 719 q 712 572 690 635 q 735 427 735 510 l 735 356 l 279 356 q 294 236 281 286 q 331 153 307 186 q 388 105 354 120 q 465 89 421 89 q 531 98 501 89 q 587 121 562 106 q 630 157 612 137 q 661 202 649 178 q 699 134 699 182 q 682 77 699 104 q 632 30 666 51 q 547 -1 598 10 q 425 -14 496 -14 m 173 860 q 211 905 189 879 q 255 958 233 931 q 296 1013 276 986 q 326 1064 315 1040 l 513 1064 q 543 1013 524 1040 q 584 958 562 986 q 628 905 606 931 q 666 860 649 879 l 666 842 l 570 842 q 536 869 556 853 q 495 901 516 884 q 454 935 474 918 q 419 966 434 952 q 383 935 403 952 q 342 901 363 918 q 302 869 322 884 q 269 842 283 853 l 173 842 l 173 860 "},"″":{"x_min":93,"x_max":612.359375,"ha":705,"o":"m 396 992 l 612 992 l 563 610 l 471 610 l 396 992 m 93 992 l 310 992 l 247 610 l 155 610 l 93 992 "},"„":{"x_min":61.96875,"x_max":601,"ha":699,"o":"m 311 58 q 297 -27 311 14 q 254 -104 283 -68 q 176 -167 224 -139 q 61 -214 129 -195 l 61 -142 q 115 -120 92 -131 q 153 -96 138 -109 q 176 -69 168 -84 q 184 -33 184 -53 q 176 -12 184 -20 q 158 3 169 -3 q 133 19 146 11 q 109 39 120 26 q 90 69 97 51 q 83 115 83 87 q 111 186 83 162 q 182 211 140 211 q 276 170 241 211 q 311 58 311 129 m 601 58 q 587 -27 601 14 q 544 -104 573 -68 q 466 -167 514 -139 q 351 -214 419 -195 l 351 -142 q 405 -120 382 -131 q 443 -96 428 -109 q 466 -69 458 -84 q 474 -33 474 -53 q 466 -12 474 -20 q 448 3 459 -3 q 423 19 436 11 q 399 39 410 26 q 380 69 387 51 q 373 115 373 87 q 401 186 373 162 q 472 211 430 211 q 566 170 531 211 q 601 58 601 129 "},"ч":{"x_min":22.578125,"x_max":922.3125,"ha":946,"o":"m 463 0 l 463 73 l 487 73 q 530 76 510 73 q 564 89 549 80 q 587 117 579 98 q 596 166 596 136 l 596 342 q 529 304 561 321 q 466 275 498 287 q 400 256 434 263 q 324 250 365 250 q 240 263 277 250 q 177 300 202 276 q 138 359 151 325 q 125 433 125 392 l 125 576 q 98 649 125 627 q 26 671 71 671 l 22 671 l 22 745 l 430 745 l 430 671 l 428 671 q 396 667 412 671 q 366 654 380 664 q 345 625 353 643 q 336 577 336 607 l 336 454 q 358 383 336 405 q 425 362 381 362 q 466 365 447 362 q 504 375 484 368 q 546 394 524 382 q 596 421 568 405 l 596 576 q 588 623 596 605 q 568 652 581 641 q 539 667 556 662 q 503 671 522 671 l 501 671 l 501 745 l 922 745 l 922 671 l 906 671 q 868 667 886 671 q 836 652 850 662 q 814 624 822 642 q 807 578 807 606 l 807 166 q 814 120 807 138 q 836 92 822 102 q 868 77 850 82 q 906 73 886 73 l 922 73 l 922 0 l 463 0 "},"δ":{"x_min":65,"x_max":786,"ha":851,"o":"m 571 299 q 558 391 571 352 q 525 461 546 430 q 478 516 505 491 q 421 563 451 540 q 369 534 394 552 q 324 484 344 515 q 292 405 305 452 q 280 291 280 358 q 290 200 280 240 q 319 132 300 160 q 365 88 338 104 q 426 73 391 73 q 487 88 461 73 q 533 133 514 104 q 561 204 551 162 q 571 299 571 246 m 350 885 q 360 831 350 855 q 391 785 369 808 q 447 740 413 763 q 530 687 481 717 q 635 614 588 651 q 716 536 682 577 q 767 445 749 494 q 786 337 786 396 q 759 185 786 251 q 686 75 733 120 q 572 8 638 31 q 423 -14 505 -14 q 280 6 345 -14 q 166 67 214 27 q 91 164 118 106 q 65 296 65 221 q 85 420 65 368 q 143 510 106 472 q 232 573 181 548 q 344 615 283 598 q 281 667 310 640 q 229 725 251 694 q 194 790 207 755 q 182 866 182 825 q 203 952 182 915 q 262 1013 224 988 q 351 1050 299 1038 q 463 1063 402 1063 q 586 1050 535 1063 q 668 1017 636 1037 q 714 973 699 997 q 729 925 729 949 q 691 851 729 876 q 591 825 654 825 q 582 889 591 860 q 558 940 574 919 q 517 973 541 961 q 461 985 493 985 q 411 976 432 985 q 376 954 390 968 q 356 922 363 940 q 350 885 350 904 "},"Â":{"x_min":5.8125,"x_max":1046.21875,"ha":1046,"o":"m 303 326 l 262 206 q 251 167 257 189 q 245 127 245 144 q 251 103 245 113 q 265 87 256 93 q 285 77 274 80 q 308 73 296 73 l 367 73 l 367 0 l 5 0 l 5 73 l 22 73 q 56 77 41 73 q 84 93 71 82 q 109 124 98 104 q 134 175 121 143 l 435 992 l 625 992 l 916 173 q 937 125 926 144 q 961 94 948 105 q 989 78 975 83 q 1021 73 1004 73 l 1046 73 l 1046 0 l 587 0 l 587 73 l 642 73 q 663 76 652 73 q 682 86 673 80 q 696 103 690 92 q 701 127 701 113 q 697 160 701 144 q 689 187 693 175 l 640 326 l 303 326 m 539 639 q 524 689 532 662 q 508 742 516 715 q 493 796 500 769 q 481 847 486 823 q 467 801 475 826 q 449 749 458 776 q 431 696 440 723 q 414 645 422 670 l 332 411 l 612 411 l 539 639 m 282 1089 q 320 1134 298 1108 q 364 1187 342 1160 q 405 1242 385 1215 q 435 1293 424 1269 l 622 1293 q 652 1242 633 1269 q 693 1187 671 1215 q 737 1134 715 1160 q 775 1089 758 1108 l 775 1071 l 679 1071 q 645 1098 665 1082 q 604 1130 625 1113 q 563 1164 583 1147 q 528 1195 543 1181 q 492 1164 512 1181 q 451 1130 472 1147 q 411 1098 431 1113 q 378 1071 392 1082 l 282 1071 l 282 1089 "},"Į":{"x_min":38.453125,"x_max":517.953125,"ha":557,"o":"m 38 0 l 38 73 l 96 73 q 125 76 112 73 q 147 89 138 80 q 162 116 157 99 q 168 164 168 134 l 168 827 q 162 875 168 857 q 147 902 157 892 q 125 915 138 911 q 96 918 112 918 l 38 918 l 38 992 l 517 992 l 517 918 l 459 918 q 431 915 444 918 q 408 902 418 911 q 393 875 399 892 q 388 827 388 857 l 388 164 q 393 116 388 134 q 408 89 399 99 q 431 76 418 80 q 459 73 444 73 l 517 73 l 517 0 l 38 0 m 136 -180 q 149 -118 136 -147 q 186 -65 163 -89 q 238 -24 209 -41 q 300 0 268 -7 l 407 0 q 362 -20 385 -6 q 320 -53 339 -33 q 289 -100 302 -74 q 277 -160 277 -127 q 284 -193 277 -179 q 304 -215 291 -207 q 335 -229 317 -224 q 373 -233 352 -233 q 413 -230 392 -233 q 461 -222 435 -228 l 461 -311 q 434 -321 450 -317 q 401 -327 418 -325 q 369 -332 385 -330 q 342 -334 353 -334 q 188 -297 241 -334 q 136 -180 136 -260 "},"ω":{"x_min":65,"x_max":1046,"ha":1111,"o":"m 761 -14 q 686 -3 718 -14 q 630 25 654 6 q 587 71 605 44 q 554 133 569 99 q 521 71 539 99 q 479 25 503 44 q 423 -3 455 6 q 349 -14 392 -14 q 139 74 213 -14 q 65 341 65 163 q 78 465 65 407 q 118 577 92 524 q 180 678 144 630 q 262 770 216 725 l 360 706 q 323 630 339 669 q 297 548 307 592 q 283 453 288 504 q 279 338 279 402 q 289 223 279 271 q 317 146 300 175 q 356 103 334 116 q 398 89 377 89 q 466 120 439 89 q 503 220 493 151 q 486 278 493 253 q 474 326 478 304 q 467 369 469 348 q 465 412 465 390 q 488 499 465 473 q 555 526 511 526 q 622 499 599 526 q 645 412 645 473 q 643 369 645 390 q 636 327 640 349 q 624 280 631 306 q 607 222 617 254 q 644 121 617 152 q 712 89 672 89 q 755 103 734 89 q 794 146 776 116 q 821 223 811 175 q 832 338 832 271 q 827 453 832 402 q 813 548 822 504 q 787 630 803 592 q 750 706 772 669 l 848 770 q 930 678 894 725 q 992 577 967 630 q 1032 465 1018 524 q 1046 341 1046 407 q 972 74 1046 163 q 761 -14 898 -14 "},"Ţ":{"x_min":13,"x_max":893,"ha":907,"o":"m 563 164 q 568 116 563 134 q 584 89 574 99 q 606 76 593 80 q 634 73 619 73 l 692 73 l 692 0 l 213 0 l 213 73 l 271 73 q 300 76 287 73 q 322 89 313 80 q 337 116 332 99 q 343 164 343 134 l 343 907 l 231 907 q 179 900 200 907 q 144 881 158 893 q 125 850 131 868 q 116 809 118 832 l 106 723 l 13 723 l 20 992 l 886 992 l 893 723 l 800 723 l 789 809 q 780 850 787 832 q 761 881 774 868 q 726 900 747 893 q 674 907 705 907 l 563 907 l 563 164 m 328 -289 q 342 -242 334 -268 q 358 -189 350 -216 q 372 -134 365 -161 q 382 -85 378 -108 l 544 -85 l 544 -98 q 519 -147 534 -120 q 485 -202 503 -174 q 448 -257 467 -230 q 411 -307 429 -285 l 328 -307 l 328 -289 "},"´":{"x_min":224,"x_max":576,"ha":802,"o":"m 224 860 q 257 905 238 879 q 294 958 275 931 q 330 1013 313 986 q 357 1064 346 1040 l 576 1064 l 576 1049 q 533 1004 563 1031 q 466 946 503 976 q 390 889 429 917 q 318 842 350 860 l 224 842 l 224 860 "},"Ĉ":{"x_min":77,"x_max":872,"ha":928,"o":"m 590 96 q 680 108 640 96 q 751 139 720 120 q 805 182 782 158 q 846 228 829 205 q 864 203 857 220 q 870 169 870 186 q 855 107 870 139 q 802 48 839 75 q 705 3 766 21 q 556 -14 645 -14 q 346 22 436 -14 q 196 126 255 59 q 106 288 136 193 q 77 497 77 382 q 107 703 77 609 q 197 864 138 796 q 347 968 257 931 q 555 1006 437 1006 q 694 993 635 1006 q 793 959 754 980 q 852 908 832 937 q 872 844 872 878 q 860 796 872 818 q 827 758 849 774 q 772 733 805 742 q 698 723 740 723 q 690 792 698 758 q 665 854 683 826 q 618 899 647 882 q 546 917 589 917 q 434 889 480 917 q 362 807 389 861 q 322 675 334 754 q 310 497 310 597 q 325 321 310 396 q 373 195 340 245 q 459 121 406 146 q 590 96 512 96 m 280 1089 q 318 1134 296 1108 q 362 1187 340 1160 q 403 1242 383 1215 q 433 1293 422 1269 l 620 1293 q 650 1242 631 1269 q 691 1187 669 1215 q 735 1134 713 1160 q 773 1089 756 1108 l 773 1071 l 677 1071 q 643 1098 663 1082 q 602 1130 623 1113 q 561 1164 581 1147 q 526 1195 541 1181 q 490 1164 510 1181 q 449 1130 470 1147 q 409 1098 429 1113 q 376 1071 390 1082 l 280 1071 l 280 1089 "},"И":{"x_min":38.453125,"x_max":1097.859375,"ha":1137,"o":"m 749 685 l 387 220 l 387 164 q 392 116 387 134 q 408 89 398 99 q 430 76 417 80 q 458 73 443 73 l 517 73 l 517 0 l 38 0 l 38 73 l 96 73 q 124 76 111 73 q 147 89 137 80 q 162 116 157 99 q 168 164 168 134 l 168 833 q 162 878 168 861 q 146 903 156 895 q 123 915 136 912 q 96 918 111 918 l 38 918 l 38 992 l 517 992 l 517 918 l 458 918 q 430 915 443 918 q 408 903 417 912 q 392 876 398 893 q 387 828 387 858 l 387 339 l 749 805 l 749 828 q 743 876 749 858 q 728 903 738 893 q 705 915 718 912 q 678 918 692 918 l 618 918 l 618 992 l 1097 992 l 1097 918 l 1039 918 q 1012 915 1025 918 q 989 903 999 912 q 974 876 979 893 q 969 828 969 858 l 969 156 q 974 112 969 129 q 990 87 980 96 q 1012 76 1000 79 q 1039 73 1025 73 l 1097 73 l 1097 0 l 618 0 l 618 73 l 678 73 q 705 76 692 73 q 728 89 718 80 q 743 116 738 99 q 749 164 749 134 l 749 685 "},"Љ":{"x_min":0,"x_max":1285,"ha":1327,"o":"m 441 918 q 429 736 437 831 q 408 546 420 640 q 379 365 395 452 q 343 210 363 279 q 299 104 324 146 q 247 36 275 61 q 184 0 218 11 q 111 -10 149 -10 q 30 16 61 -10 q 0 93 0 43 q 5 132 0 114 q 21 161 11 149 q 42 180 30 173 q 67 186 54 186 q 84 140 67 159 q 128 121 101 121 q 171 130 151 121 q 207 158 190 138 q 238 214 224 179 q 267 302 253 249 q 290 402 279 347 q 308 514 300 457 q 323 627 317 571 q 334 730 330 683 q 340 812 338 777 q 343 863 343 847 q 334 893 343 882 q 310 910 325 904 q 274 917 294 916 q 231 918 254 918 l 210 918 l 210 992 l 1000 992 l 1000 918 l 915 918 q 860 900 878 918 q 842 835 842 881 l 842 558 l 916 558 q 1085 537 1015 558 q 1199 480 1155 517 q 1264 392 1244 444 q 1285 280 1285 341 q 1262 166 1285 218 q 1193 77 1239 114 q 1075 20 1146 40 q 908 0 1004 0 l 493 0 l 493 73 l 551 73 q 586 79 572 73 q 608 94 599 84 q 619 123 616 105 q 623 165 623 141 l 623 918 l 441 918 m 842 82 l 896 82 q 967 93 938 82 q 1015 129 997 105 q 1042 189 1034 153 q 1050 273 1050 225 q 1040 367 1050 328 q 1010 431 1031 406 q 958 466 990 455 q 880 477 926 477 l 842 477 l 842 82 "},"р":{"x_min":18.703125,"x_max":831,"ha":896,"o":"m 34 -260 q 67 -257 50 -260 q 99 -244 85 -253 q 124 -217 114 -234 q 134 -169 134 -199 l 134 574 q 126 624 134 605 q 107 654 119 643 q 77 667 94 664 q 40 671 60 671 l 30 671 l 30 745 l 302 745 l 327 635 l 334 635 q 368 685 348 663 q 415 724 388 707 q 473 749 441 740 q 546 758 506 758 q 668 735 615 758 q 757 664 721 712 q 812 543 793 616 q 831 369 831 470 q 812 196 831 269 q 758 75 794 123 q 671 5 723 28 q 551 -17 619 -17 q 422 13 472 -17 q 343 94 373 43 l 334 94 q 339 31 336 62 q 343 -23 341 5 q 344 -74 344 -52 l 344 -169 q 354 -217 344 -199 q 379 -244 364 -234 q 411 -257 393 -253 q 443 -260 428 -260 l 473 -260 l 473 -334 l 18 -334 l 18 -260 l 34 -260 m 486 86 q 586 156 556 86 q 616 368 616 226 q 586 580 616 506 q 487 654 556 654 q 418 635 446 654 q 374 580 391 616 q 351 491 358 544 q 344 369 344 437 q 351 244 344 297 q 374 155 358 191 q 418 103 391 120 q 486 86 445 86 "},"Ω":{"x_min":61,"x_max":1061,"ha":1122,"o":"m 89 625 q 118 782 89 712 q 206 902 147 852 q 354 979 265 952 q 563 1007 443 1007 q 763 979 676 1007 q 911 902 851 952 q 1002 782 971 852 q 1033 625 1033 712 q 947 386 1033 478 q 693 265 861 295 l 690 148 l 829 148 q 890 153 865 148 q 931 168 915 158 q 958 195 948 179 q 973 234 968 211 l 984 280 l 1061 280 l 1050 0 l 603 0 l 612 335 q 696 363 661 341 q 752 423 730 386 q 782 510 773 460 q 792 625 792 561 q 780 748 792 694 q 740 840 767 802 q 669 897 713 877 q 562 916 625 916 q 453 897 498 916 q 381 840 408 877 q 340 748 353 802 q 327 625 327 694 q 337 510 327 561 q 368 423 347 460 q 424 363 390 386 q 508 335 459 341 l 518 0 l 70 0 l 61 278 l 137 278 l 148 231 q 162 192 153 208 q 188 165 172 176 q 230 150 205 155 q 291 145 255 145 l 431 145 l 427 267 q 174 388 259 296 q 89 625 89 479 "},"т":{"x_min":28,"x_max":760,"ha":787,"o":"m 751 745 l 760 508 l 664 508 l 658 553 q 649 607 654 585 q 634 641 643 629 q 612 660 624 654 q 579 665 599 665 l 499 665 l 499 166 q 507 121 499 139 q 527 92 514 103 q 557 77 540 82 q 592 73 574 73 l 608 73 l 608 0 l 173 0 l 173 73 l 189 73 q 227 77 209 73 q 259 92 245 82 q 280 121 272 103 q 289 166 289 139 l 289 665 l 208 665 q 176 660 189 665 q 153 641 162 654 q 138 607 144 629 q 129 553 133 585 l 123 508 l 28 508 l 36 745 l 751 745 "},"П":{"x_min":38.453125,"x_max":1084.875,"ha":1124,"o":"m 606 0 l 606 73 l 665 73 q 692 76 679 73 q 715 89 705 80 q 730 116 725 99 q 736 164 736 134 l 736 907 l 387 907 l 387 164 q 392 116 387 134 q 408 89 398 99 q 430 76 417 80 q 458 73 443 73 l 517 73 l 517 0 l 38 0 l 38 73 l 96 73 q 124 76 111 73 q 147 89 137 80 q 162 116 157 99 q 168 164 168 134 l 168 833 q 162 878 168 861 q 146 903 156 895 q 123 915 136 912 q 96 918 111 918 l 38 918 l 38 992 l 1084 992 l 1084 918 l 1026 918 q 999 915 1012 918 q 976 903 986 912 q 961 876 966 893 q 956 828 956 858 l 956 156 q 961 112 956 129 q 977 87 967 96 q 999 76 987 79 q 1026 73 1012 73 l 1084 73 l 1084 0 l 606 0 "},"Ö":{"x_min":77,"x_max":1016,"ha":1093,"o":"m 1016 496 q 985 287 1016 382 q 894 126 954 193 q 747 22 834 59 q 547 -14 660 -14 q 340 22 428 -14 q 193 126 251 59 q 106 288 135 193 q 77 498 77 382 q 106 707 77 613 q 193 867 135 801 q 340 970 252 934 q 548 1007 429 1007 q 748 970 661 1007 q 894 867 835 934 q 985 706 954 800 q 1016 496 1016 612 m 310 496 q 323 319 310 397 q 364 187 336 241 q 437 104 392 133 q 547 76 482 76 q 657 104 612 76 q 729 187 702 133 q 770 319 757 241 q 782 496 782 397 q 770 674 782 596 q 729 806 757 752 q 657 888 702 860 q 548 916 612 916 q 438 888 483 916 q 364 806 392 860 q 323 674 336 752 q 310 496 310 596 m 314 1184 q 320 1224 314 1207 q 338 1251 327 1240 q 364 1265 349 1261 q 395 1270 379 1270 q 426 1265 412 1270 q 453 1251 441 1261 q 471 1224 464 1240 q 479 1184 479 1207 q 471 1144 479 1160 q 453 1117 464 1127 q 426 1102 441 1107 q 395 1098 412 1098 q 364 1102 379 1098 q 338 1117 349 1107 q 320 1144 327 1127 q 314 1184 314 1160 m 599 1184 q 605 1224 599 1207 q 624 1251 612 1240 q 650 1265 635 1261 q 682 1270 665 1270 q 712 1265 697 1270 q 738 1251 726 1261 q 756 1224 749 1240 q 764 1184 764 1207 q 756 1144 764 1160 q 738 1117 749 1127 q 712 1102 726 1107 q 682 1098 697 1098 q 650 1102 665 1098 q 624 1117 635 1107 q 605 1144 612 1127 q 599 1184 599 1160 "},"z":{"x_min":25,"x_max":694,"ha":735,"o":"m 511 94 q 547 100 532 94 q 572 120 562 106 q 590 155 583 133 q 603 207 597 176 l 611 252 l 694 252 l 687 0 l 25 0 l 25 56 l 435 650 l 232 650 q 204 645 216 650 q 184 630 193 641 q 167 600 175 618 q 152 553 160 581 l 144 520 l 61 520 l 77 745 l 678 745 l 678 685 l 266 94 l 511 94 "},"™":{"x_min":37.21875,"x_max":1101.828125,"ha":1160,"o":"m 896 512 l 896 549 q 934 556 920 549 q 950 586 948 562 l 950 896 l 792 512 l 744 512 l 587 897 l 587 591 q 601 556 587 564 q 642 549 615 549 l 642 512 l 474 512 l 474 549 l 488 549 q 525 556 509 549 q 543 587 541 562 l 543 914 q 537 935 542 927 q 526 947 533 943 q 508 952 518 951 q 488 953 498 953 l 474 953 l 474 992 l 634 992 l 787 607 l 945 992 l 1101 992 l 1101 953 l 1086 953 q 1065 951 1075 953 q 1048 946 1055 950 q 1037 934 1041 942 q 1034 911 1034 925 l 1034 592 q 1037 569 1034 577 q 1048 556 1041 561 q 1065 550 1055 552 q 1086 549 1075 549 l 1101 549 l 1101 512 l 896 512 m 286 592 q 290 569 286 577 q 302 556 294 561 q 319 550 309 552 q 339 549 328 549 l 360 549 l 360 512 l 124 512 l 124 549 l 148 549 q 168 550 158 549 q 184 556 177 552 q 195 567 191 560 q 200 587 200 575 l 200 947 l 138 947 q 113 943 124 947 q 97 933 103 939 q 88 917 91 926 q 83 899 84 909 l 77 865 l 37 865 l 41 992 l 446 992 l 451 865 l 410 865 l 405 899 q 391 933 402 918 q 349 947 379 947 l 286 947 l 286 592 "},"Θ":{"x_min":77,"x_max":1016,"ha":1093,"o":"m 433 638 l 440 611 q 449 584 444 596 q 463 564 453 573 q 492 552 474 556 q 541 548 510 548 l 548 548 q 594 552 576 548 q 624 565 612 556 q 642 585 636 573 q 652 611 648 597 l 659 638 l 731 638 l 731 373 l 659 373 l 652 399 q 642 425 648 413 q 624 445 636 437 q 594 458 612 454 q 548 463 576 463 l 541 463 q 492 458 510 463 q 463 446 474 454 q 449 426 453 438 q 440 399 444 414 l 433 373 l 361 373 l 361 638 l 433 638 m 1016 496 q 985 287 1016 382 q 894 126 954 193 q 747 22 834 59 q 547 -14 660 -14 q 340 22 428 -14 q 193 126 251 59 q 106 288 135 193 q 77 498 77 382 q 106 707 77 613 q 193 867 135 801 q 340 970 252 934 q 548 1007 429 1007 q 748 970 661 1007 q 894 867 835 934 q 985 706 954 800 q 1016 496 1016 612 m 310 496 q 323 319 310 397 q 364 187 336 241 q 437 104 392 133 q 547 76 482 76 q 657 104 612 76 q 729 187 702 133 q 770 319 757 241 q 782 496 782 397 q 770 674 782 596 q 729 806 757 752 q 657 888 702 860 q 548 916 612 916 q 438 888 483 916 q 364 806 392 860 q 323 674 336 752 q 310 496 310 596 "},"Ř":{"x_min":38.453125,"x_max":987.734375,"ha":982,"o":"m 38 73 l 96 73 q 123 76 111 73 q 146 87 136 79 q 162 112 156 96 q 168 156 168 129 l 168 833 q 162 878 168 861 q 146 903 156 895 q 123 915 136 912 q 96 918 111 918 l 38 918 l 38 992 l 486 992 q 775 926 683 992 q 867 735 867 860 q 850 637 867 680 q 807 562 834 594 q 746 508 780 530 q 677 472 712 486 l 843 187 q 877 136 860 157 q 910 100 894 114 q 945 80 927 86 q 982 73 962 73 l 987 73 l 987 0 l 942 0 q 833 4 879 0 q 751 23 786 9 q 691 61 716 37 q 644 124 666 86 l 479 431 l 387 431 l 387 156 q 392 112 387 129 q 408 87 398 96 q 431 76 418 79 q 458 73 444 73 l 517 73 l 517 0 l 38 0 l 38 73 m 387 512 l 465 512 q 545 524 513 512 q 597 563 577 537 q 625 626 616 588 q 633 716 633 665 q 624 805 633 768 q 594 865 614 842 q 541 899 573 888 q 462 909 508 909 l 387 909 l 387 512 m 209 1293 l 305 1293 q 338 1265 319 1281 q 378 1233 358 1250 q 419 1199 399 1215 q 455 1167 439 1182 q 490 1199 470 1182 q 531 1233 510 1215 q 572 1265 552 1250 q 606 1293 592 1281 l 702 1293 l 702 1274 q 664 1229 685 1255 q 620 1176 642 1203 q 579 1121 598 1148 q 549 1071 560 1094 l 362 1071 q 332 1121 351 1094 q 291 1176 312 1148 q 247 1229 269 1203 q 209 1274 225 1255 l 209 1293 "},"Ň":{"x_min":38.453125,"x_max":1070.859375,"ha":1095,"o":"m 813 0 l 271 765 l 271 164 q 277 116 271 134 q 292 89 283 99 q 315 76 302 80 q 342 73 328 73 l 401 73 l 401 0 l 38 0 l 38 73 l 96 73 q 124 76 111 73 q 147 89 137 80 q 162 116 157 99 q 168 164 168 134 l 168 833 q 162 878 168 861 q 146 903 156 895 q 123 915 136 912 q 96 918 111 918 l 38 918 l 38 992 l 347 992 l 837 298 l 837 833 q 831 878 837 861 q 816 903 826 895 q 793 915 806 912 q 766 918 780 918 l 708 918 l 708 992 l 1070 992 l 1070 918 l 1012 918 q 985 915 998 918 q 962 903 972 912 q 947 876 952 893 q 942 828 942 858 l 942 0 l 813 0 m 330 1293 l 426 1293 q 459 1265 440 1281 q 499 1233 479 1250 q 540 1199 520 1215 q 576 1167 560 1182 q 611 1199 591 1182 q 652 1233 631 1215 q 693 1265 673 1250 q 727 1293 713 1281 l 823 1293 l 823 1274 q 785 1229 806 1255 q 741 1176 763 1203 q 700 1121 719 1148 q 670 1071 681 1094 l 483 1071 q 453 1121 472 1094 q 412 1176 433 1148 q 368 1229 390 1203 q 330 1274 346 1255 l 330 1293 "},"É":{"x_min":38.453125,"x_max":863,"ha":907,"o":"m 388 84 l 666 84 q 702 92 687 84 q 728 114 717 100 q 745 148 739 128 q 755 190 752 167 l 766 256 l 863 256 l 852 0 l 38 0 l 38 73 l 96 73 q 124 76 111 73 q 147 87 137 79 q 162 112 157 96 q 168 156 168 129 l 168 828 q 162 876 168 858 q 147 903 157 893 q 125 915 138 912 q 96 918 112 918 l 38 918 l 38 992 l 809 992 l 815 736 l 718 736 l 711 801 q 685 880 705 852 q 622 907 665 907 l 388 907 l 388 560 l 718 560 l 718 476 l 388 476 l 388 84 m 355 1089 q 388 1134 369 1108 q 425 1187 406 1160 q 461 1242 444 1215 q 488 1293 477 1269 l 707 1293 l 707 1278 q 664 1233 694 1260 q 597 1175 634 1205 q 521 1118 560 1146 q 449 1071 481 1089 l 355 1071 l 355 1089 "},"и":{"x_min":23.703125,"x_max":936.296875,"ha":960,"o":"m 821 164 q 830 116 821 134 q 855 89 840 99 q 887 76 869 80 q 920 73 905 73 l 936 73 l 936 0 l 515 0 l 515 73 l 518 73 q 548 76 532 73 q 578 89 564 80 q 600 116 591 99 q 610 164 610 134 l 610 462 l 349 177 l 349 164 q 359 116 349 134 q 381 89 368 99 q 411 76 395 80 q 441 73 427 73 l 444 73 l 444 0 l 23 0 l 23 73 l 39 73 q 72 76 55 73 q 104 89 90 80 q 129 116 119 99 q 139 164 139 134 l 139 580 q 129 628 139 610 q 104 655 119 645 q 72 668 90 664 q 39 671 55 671 l 23 671 l 23 745 l 444 745 l 444 671 l 441 671 q 411 668 427 671 q 381 655 395 664 q 359 628 368 645 q 349 580 349 610 l 349 284 l 610 569 l 610 580 q 600 628 610 610 q 578 655 591 645 q 548 668 564 664 q 518 671 532 671 l 515 671 l 515 745 l 936 745 l 936 671 l 920 671 q 887 668 905 671 q 855 655 869 664 q 830 628 840 645 q 821 580 821 610 l 821 164 "},"³":{"x_min":54,"x_max":497,"ha":555,"o":"m 324 854 q 309 920 324 897 q 259 943 295 943 q 223 933 237 943 q 200 906 208 923 q 187 868 191 890 q 184 822 184 846 q 134 824 156 822 q 96 834 111 827 q 71 852 80 840 q 63 881 63 863 q 76 930 63 907 q 114 969 89 953 q 176 996 139 986 q 262 1006 214 1006 q 348 996 310 1006 q 415 969 387 987 q 458 926 443 951 q 473 868 473 900 q 435 768 473 807 q 331 714 397 730 l 331 706 q 392 694 362 702 q 445 672 422 687 q 482 633 468 657 q 497 571 497 609 q 471 485 497 520 q 405 429 445 450 q 318 398 366 407 q 229 389 271 389 q 126 399 172 389 q 54 422 81 409 l 54 494 q 87 482 68 488 q 127 471 106 476 q 170 463 148 466 q 212 460 191 460 q 315 486 278 460 q 352 574 352 513 q 314 645 352 620 q 201 670 277 670 l 155 670 l 155 736 l 201 736 q 249 744 226 736 q 288 768 272 752 q 314 806 305 784 q 324 854 324 828 "},"[":{"x_min":139,"x_max":523.5625,"ha":575,"o":"m 139 -178 l 139 1055 l 523 1055 l 523 981 l 463 981 q 419 978 440 981 q 383 964 398 974 q 359 934 368 953 q 349 881 349 914 l 349 -4 q 359 -56 349 -36 q 383 -87 368 -76 q 419 -101 398 -97 q 463 -104 440 -104 l 523 -104 l 523 -178 l 139 -178 "},"ζ":{"x_min":65,"x_max":718,"ha":692,"o":"m 65 283 q 87 455 65 369 q 152 621 110 540 q 255 775 194 701 q 391 909 315 848 q 321 924 357 913 q 250 952 285 935 q 180 988 214 968 q 115 1031 145 1008 l 165 1101 q 227 1058 195 1078 q 296 1022 260 1038 q 371 995 332 1006 q 455 980 411 984 q 492 1008 471 994 q 537 1035 513 1023 q 586 1055 561 1047 q 637 1064 611 1064 q 696 1047 675 1064 q 718 1000 718 1030 q 707 953 718 974 q 673 917 696 932 q 613 893 650 901 q 524 884 576 884 q 499 884 513 884 q 473 886 486 884 q 385 749 421 819 q 325 607 348 679 q 290 463 301 535 q 279 319 279 390 q 291 229 279 262 q 329 175 303 196 q 395 143 355 155 q 492 118 435 131 q 615 58 574 99 q 657 -50 657 17 q 639 -128 657 -90 q 586 -196 622 -165 q 495 -249 550 -227 q 365 -282 440 -271 l 365 -209 q 419 -190 397 -201 q 453 -167 440 -180 q 472 -138 467 -153 q 477 -104 477 -122 q 470 -69 477 -84 q 444 -43 463 -54 q 392 -23 425 -32 q 309 -3 359 -14 q 204 28 249 7 q 127 84 158 50 q 80 168 96 119 q 65 283 65 217 "},"∏":{"x_min":38.453125,"x_max":1097.859375,"ha":1137,"o":"m 618 -334 l 618 -260 l 678 -260 q 705 -257 692 -260 q 728 -244 718 -253 q 743 -217 738 -234 q 749 -169 749 -199 l 749 907 l 387 907 l 387 -169 q 392 -217 387 -199 q 408 -244 398 -234 q 430 -257 417 -253 q 458 -260 443 -260 l 517 -260 l 517 -334 l 38 -334 l 38 -260 l 96 -260 q 124 -257 111 -260 q 147 -244 137 -253 q 162 -217 157 -234 q 168 -169 168 -199 l 168 833 q 161 878 167 861 q 145 903 155 895 q 123 915 136 912 q 96 918 111 918 l 38 918 l 38 992 l 1097 992 l 1097 918 l 1039 918 q 1012 915 1025 918 q 989 903 999 912 q 974 875 979 893 q 969 828 969 858 l 969 -176 q 976 -221 970 -204 q 991 -246 981 -237 q 1013 -257 1000 -254 q 1039 -260 1025 -260 l 1097 -260 l 1097 -334 l 618 -334 "},"Έ":{"x_min":-52,"x_max":1033,"ha":1076,"o":"m 558 84 l 836 84 q 872 92 857 84 q 898 114 887 100 q 915 148 909 128 q 925 190 922 167 l 936 256 l 1033 256 l 1022 0 l 208 0 l 208 73 l 266 73 q 294 76 281 73 q 317 87 307 79 q 332 112 327 96 q 338 156 338 129 l 338 828 q 332 876 338 858 q 317 903 327 893 q 295 915 308 912 q 266 918 282 918 l 208 918 l 208 992 l 979 992 l 985 736 l 888 736 l 881 801 q 855 880 875 852 q 792 907 835 907 l 558 907 l 558 560 l 888 560 l 888 476 l 558 476 l 558 84 m -52 788 q -37 835 -45 809 q -22 888 -30 861 q -8 943 -15 916 q 1 993 -2 969 l 191 993 l 191 978 q 164 930 181 957 q 128 875 148 903 q 86 820 108 847 q 44 770 64 793 l -52 770 l -52 788 "},"Ρ":{"x_min":38.453125,"x_max":844,"ha":886,"o":"m 844 697 q 822 577 844 635 q 751 475 800 519 q 625 405 702 431 q 434 379 547 379 l 387 379 l 387 156 q 393 112 387 129 q 409 87 399 96 q 433 76 419 79 q 460 73 446 73 l 545 73 l 545 0 l 38 0 l 38 73 l 96 73 q 125 76 112 73 q 147 89 138 80 q 162 116 157 99 q 168 164 168 134 l 168 833 q 162 878 168 861 q 147 903 157 895 q 124 915 137 912 q 96 918 111 918 l 38 918 l 38 992 l 464 992 q 632 971 561 992 q 750 912 703 951 q 820 820 797 874 q 844 697 844 766 m 387 460 l 420 460 q 508 472 472 460 q 566 513 544 485 q 600 585 589 541 q 610 692 610 629 q 601 788 610 747 q 572 856 592 829 q 520 896 552 883 q 441 909 488 909 l 387 909 l 387 460 "},"ğ":{"x_min":3,"x_max":772,"ha":778,"o":"m 772 717 q 767 687 772 702 q 751 662 762 672 q 720 644 740 651 q 672 638 701 638 q 668 663 672 652 q 656 681 664 674 q 639 693 649 689 q 619 696 630 696 q 594 692 608 696 q 574 681 581 687 q 600 646 588 666 q 622 603 612 626 q 636 555 631 580 q 642 504 642 530 q 625 408 642 452 q 574 331 608 363 q 486 280 539 298 q 361 262 433 262 q 342 262 353 262 q 319 263 330 262 q 297 264 307 263 q 281 266 286 265 q 263 254 272 261 q 246 238 253 247 q 235 218 239 229 q 230 195 230 207 q 248 161 230 172 q 295 151 266 151 l 464 151 q 583 136 533 151 q 666 94 633 121 q 715 27 699 67 q 731 -61 731 -11 q 706 -176 731 -125 q 632 -261 682 -226 q 506 -315 582 -296 q 327 -334 431 -334 q 83 -284 163 -334 q 3 -140 3 -235 q 51 -26 3 -66 q 190 20 99 13 q 153 39 171 28 q 120 65 135 49 q 97 100 106 80 q 89 144 89 119 q 98 186 89 167 q 123 224 107 206 q 162 258 139 242 q 212 289 185 274 q 156 320 182 300 q 111 366 130 339 q 81 428 92 393 q 71 504 71 462 q 141 694 71 627 q 361 762 212 762 q 453 749 410 762 q 526 719 495 736 q 552 745 538 731 q 583 770 566 759 q 623 789 601 782 q 671 797 644 797 q 715 790 696 797 q 746 773 733 784 q 765 748 759 762 q 772 717 772 733 m 167 -137 q 208 -223 167 -195 q 330 -250 250 -250 q 508 -215 452 -250 q 564 -111 564 -180 q 536 -49 564 -67 q 452 -32 508 -32 l 290 -32 q 247 -35 269 -32 q 208 -51 226 -39 q 178 -83 190 -62 q 167 -137 167 -104 m 260 504 q 265 438 260 468 q 281 388 270 409 q 311 355 293 367 q 357 344 330 344 q 403 355 384 344 q 432 387 421 366 q 447 439 443 409 q 452 506 452 469 q 447 577 452 545 q 431 631 442 608 q 401 666 420 653 q 355 678 383 678 q 310 665 328 678 q 280 629 292 652 q 264 574 269 606 q 260 504 260 542 m 357 842 q 261 861 302 842 q 192 911 220 880 q 150 981 164 942 q 135 1060 136 1020 l 226 1060 q 272 987 238 1009 q 357 965 305 965 q 442 987 408 965 q 487 1060 476 1009 l 580 1060 q 564 981 578 1020 q 522 911 550 942 q 453 861 494 880 q 357 842 412 842 "},"ª":{"x_min":40,"x_max":553.6875,"ha":583,"o":"m 200 672 q 215 620 200 635 q 252 606 231 606 q 316 632 295 606 q 337 701 337 659 l 337 758 l 305 757 q 224 733 248 755 q 200 672 200 712 m 281 938 q 254 932 264 938 q 238 913 244 925 q 231 886 233 902 q 229 852 229 870 q 117 866 157 852 q 77 912 77 880 q 94 952 77 936 q 138 979 110 969 q 204 994 166 989 q 284 999 241 999 q 441 966 389 999 q 494 854 494 933 l 494 649 q 507 607 494 618 q 553 597 520 597 l 553 536 l 391 536 l 357 604 l 348 604 q 320 575 336 589 q 285 551 304 561 q 242 534 266 540 q 191 528 219 528 q 80 563 121 528 q 40 669 40 599 q 98 771 40 739 q 275 810 156 804 l 337 813 l 337 850 q 335 886 337 869 q 327 914 333 902 q 310 932 321 925 q 281 938 300 938 "},"ї":{"x_min":0,"x_max":465.234375,"ha":489,"o":"m 39 73 q 72 76 55 73 q 104 89 90 80 q 129 116 119 99 q 139 164 139 134 l 139 586 q 129 630 139 614 q 104 656 119 647 q 72 668 89 665 q 39 671 54 671 l 23 671 l 23 745 l 349 745 l 349 164 q 359 116 349 134 q 384 89 369 99 q 416 76 398 80 q 448 73 434 73 l 465 73 l 465 0 l 23 0 l 23 73 l 39 73 m 0 955 q 6 995 0 978 q 24 1022 13 1011 q 50 1036 35 1032 q 81 1041 65 1041 q 112 1036 98 1041 q 139 1022 127 1032 q 157 995 150 1011 q 165 955 165 978 q 157 915 165 931 q 139 888 150 898 q 112 873 127 878 q 81 869 98 869 q 50 873 65 869 q 24 888 35 878 q 6 915 13 898 q 0 955 0 931 m 285 955 q 291 995 285 978 q 310 1022 298 1011 q 336 1036 321 1032 q 368 1041 351 1041 q 398 1036 383 1041 q 424 1022 412 1032 q 442 995 435 1011 q 450 955 450 978 q 442 915 450 931 q 424 888 435 898 q 398 873 412 878 q 368 869 383 869 q 336 873 351 869 q 310 888 321 878 q 291 915 298 898 q 285 955 285 931 "},"T":{"x_min":13,"x_max":893,"ha":907,"o":"m 563 164 q 568 116 563 134 q 584 89 574 99 q 606 76 593 80 q 634 73 619 73 l 692 73 l 692 0 l 213 0 l 213 73 l 271 73 q 300 76 287 73 q 322 89 313 80 q 337 116 332 99 q 343 164 343 134 l 343 907 l 231 907 q 179 900 200 907 q 144 881 158 893 q 125 850 131 868 q 116 809 118 832 l 106 723 l 13 723 l 20 992 l 886 992 l 893 723 l 800 723 l 789 809 q 780 850 787 832 q 761 881 774 868 q 726 900 747 893 q 674 907 705 907 l 563 907 l 563 164 "},"š":{"x_min":41.765625,"x_max":623,"ha":678,"o":"m 321 -14 q 192 -1 245 -14 q 105 32 139 10 q 57 83 72 53 q 41 148 41 113 q 54 202 41 182 q 88 234 68 223 q 130 250 108 246 q 171 253 153 253 q 182 175 171 210 q 212 117 193 141 q 259 80 232 93 q 321 67 287 67 q 383 74 357 67 q 425 95 409 82 q 450 126 442 108 q 458 162 458 143 q 450 203 458 185 q 422 237 441 221 q 369 268 402 253 q 287 300 336 283 q 188 342 231 320 q 116 392 145 364 q 71 457 86 421 q 56 540 56 493 q 77 637 56 596 q 138 706 98 678 q 232 747 177 733 q 354 761 287 761 q 466 749 420 761 q 541 720 512 738 q 584 678 570 702 q 597 632 597 655 q 565 560 597 585 q 456 536 532 536 q 425 644 456 605 q 334 682 394 682 q 291 676 311 682 q 255 660 270 671 q 230 633 239 649 q 221 596 221 617 q 229 556 221 573 q 259 522 238 538 q 317 490 281 506 q 411 454 354 473 q 496 417 457 437 q 563 369 535 396 q 607 308 591 342 q 623 230 623 274 q 602 127 623 172 q 544 50 582 81 q 449 2 505 19 q 321 -14 393 -14 m 93 1064 l 189 1064 q 222 1036 203 1052 q 262 1004 242 1021 q 303 970 283 986 q 339 938 323 953 q 374 970 354 953 q 415 1004 394 986 q 456 1036 436 1021 q 490 1064 476 1052 l 586 1064 l 586 1045 q 548 1000 569 1026 q 504 947 526 974 q 463 892 482 919 q 433 842 444 865 l 246 842 q 216 892 235 865 q 175 947 196 919 q 131 1000 153 974 q 93 1045 109 1026 l 93 1064 "},"є":{"x_min":65,"x_max":681.03125,"ha":732,"o":"m 409 -14 q 269 5 332 -14 q 160 70 206 25 q 90 189 115 116 q 65 369 65 262 q 91 557 65 481 q 163 677 117 632 q 271 742 208 723 q 405 762 333 762 q 524 750 472 762 q 610 719 575 739 q 663 673 645 700 q 681 616 681 646 q 673 572 681 593 q 645 534 665 551 q 590 508 625 518 q 501 498 555 498 q 496 566 501 534 q 482 623 492 599 q 454 662 472 648 q 411 677 437 677 q 359 664 382 677 q 318 620 335 651 q 291 537 301 589 q 279 407 281 484 l 520 407 l 520 318 l 280 318 q 325 146 286 202 q 444 89 364 89 q 511 98 480 89 q 569 121 543 106 q 614 157 594 137 q 645 202 633 178 q 670 174 662 192 q 679 138 679 157 q 663 85 679 112 q 614 35 647 57 q 531 0 581 13 q 409 -14 480 -14 "},"Þ":{"x_min":38.453125,"x_max":844,"ha":886,"o":"m 387 278 l 420 278 q 508 290 472 278 q 566 331 544 303 q 600 403 589 359 q 610 510 610 447 q 601 606 610 565 q 572 674 592 647 q 520 714 552 701 q 441 727 488 727 l 387 727 l 387 278 m 844 515 q 822 395 844 453 q 751 293 800 337 q 625 223 702 249 q 434 197 547 197 l 387 197 l 387 156 q 394 112 388 129 q 410 87 400 96 q 433 76 420 79 q 460 73 446 73 l 517 73 l 517 0 l 38 0 l 38 73 l 96 73 q 125 76 112 73 q 147 89 138 80 q 162 116 157 99 q 168 164 168 134 l 168 828 q 162 876 168 858 q 147 903 157 893 q 125 915 138 912 q 96 918 112 918 l 38 918 l 38 992 l 517 992 l 517 918 l 460 918 q 433 916 446 918 q 409 904 419 913 q 393 879 399 895 q 387 835 387 863 l 387 810 l 465 810 q 632 787 561 808 q 750 729 703 767 q 820 637 797 691 q 844 515 844 584 "},"j":{"x_min":-27.84375,"x_max":358.078125,"ha":480,"o":"m 349 745 l 349 -10 q 323 -166 349 -104 q 251 -265 297 -228 q 140 -318 204 -302 q 0 -334 76 -334 l -27 -334 l -27 -247 l -18 -247 q 49 -235 19 -247 q 98 -194 78 -223 q 128 -118 118 -166 q 139 0 139 -71 l 139 579 q 130 627 139 609 q 106 655 121 645 q 70 668 90 664 q 27 671 50 671 l 23 671 l 23 745 l 349 745 m 120 970 q 129 1015 120 996 q 154 1046 139 1034 q 192 1064 170 1058 q 238 1070 213 1070 q 284 1064 262 1070 q 322 1046 305 1058 q 348 1015 338 1034 q 358 970 358 996 q 348 925 358 944 q 322 894 338 906 q 284 876 305 882 q 238 870 262 870 q 192 876 213 870 q 154 894 170 882 q 129 925 139 906 q 120 970 120 944 "},"Σ":{"x_min":32,"x_max":824,"ha":882,"o":"m 602 169 q 657 179 634 169 q 696 206 680 189 q 720 248 711 224 q 732 301 729 272 l 737 343 l 824 343 l 817 0 l 32 0 l 32 86 l 318 479 l 63 937 l 63 992 l 756 992 l 763 735 l 676 735 l 670 808 q 637 881 665 855 q 547 907 610 907 l 281 907 l 474 558 l 474 537 l 200 169 l 602 169 "},"1":{"x_min":58.234375,"x_max":707.96875,"ha":777,"o":"m 134 0 l 134 73 l 248 73 q 279 78 266 73 q 301 92 292 82 q 313 120 309 103 q 318 164 318 137 l 318 860 q 268 801 291 827 q 223 755 244 774 q 180 726 201 736 q 138 716 159 716 q 107 723 121 716 q 81 743 92 730 q 64 776 71 757 q 58 818 58 795 q 102 831 79 823 q 151 851 125 839 q 207 882 177 864 q 271 925 237 900 l 369 997 l 524 997 l 524 164 q 527 125 524 142 q 538 96 530 108 q 560 79 546 85 q 596 73 574 73 l 707 73 l 707 0 l 134 0 "},"ϒ":{"x_min":0.296875,"x_max":1008.8125,"ha":1009,"o":"m 595 160 q 601 112 595 129 q 617 86 607 95 q 642 75 628 78 q 672 73 656 73 l 740 73 l 740 0 l 228 0 l 228 73 l 293 73 q 324 75 310 73 q 350 86 339 78 q 367 111 361 94 q 374 158 374 128 l 374 273 q 362 364 374 315 q 332 462 350 412 q 292 562 315 512 q 247 654 269 611 q 205 730 225 696 q 173 785 186 764 q 137 839 156 814 q 99 881 118 863 q 59 908 79 899 q 18 918 39 918 l 0 918 l 0 992 l 158 992 q 247 983 209 992 q 316 952 285 974 q 373 895 347 931 q 425 804 399 859 q 466 714 448 755 q 497 636 483 673 q 522 564 511 599 q 543 496 533 530 q 566 581 553 538 q 594 665 579 624 q 624 745 609 707 q 656 818 640 784 q 707 911 681 875 q 760 967 732 947 q 817 994 787 987 q 884 1002 848 1002 q 939 995 916 1002 q 978 975 963 987 q 1001 945 993 962 q 1008 909 1008 928 q 988 844 1008 869 q 929 812 968 819 q 908 860 924 840 q 863 880 892 880 q 827 873 844 880 q 792 847 810 865 q 755 796 774 828 q 715 717 736 765 q 692 662 705 694 q 666 595 679 631 q 640 519 652 559 q 617 440 627 479 q 601 364 607 401 q 595 295 595 327 l 595 160 "},"ℓ":{"x_min":27,"x_max":666,"ha":695,"o":"m 475 73 q 548 111 522 73 q 583 215 574 150 l 666 215 q 640 115 657 158 q 595 43 623 72 q 525 -1 566 13 q 425 -16 483 -16 q 305 1 354 -16 q 226 52 256 19 q 183 135 196 86 q 170 247 170 183 l 170 349 q 99 326 135 337 q 27 306 63 316 l 27 381 q 100 403 65 392 q 170 426 136 414 l 170 776 q 228 957 170 897 q 410 1018 287 1018 q 508 1003 466 1018 q 575 959 549 988 q 614 888 601 930 q 627 792 627 846 q 608 658 627 718 q 556 552 589 599 q 478 468 523 505 q 380 404 433 432 l 380 227 q 387 154 380 183 q 406 107 393 124 q 435 81 418 89 q 475 73 453 73 m 542 793 q 456 938 542 938 q 416 927 431 938 q 393 895 401 915 q 383 848 385 875 q 380 791 380 821 l 380 488 q 444 532 415 506 q 496 596 474 559 q 530 682 517 634 q 542 793 542 731 "},"ĉ":{"x_min":65,"x_max":681,"ha":732,"o":"m 409 -14 q 269 5 332 -14 q 160 70 206 25 q 90 189 115 116 q 65 369 65 262 q 91 557 65 481 q 163 677 117 632 q 271 742 208 723 q 405 762 333 762 q 524 750 472 762 q 610 719 575 739 q 663 673 645 700 q 681 616 681 646 q 673 572 681 593 q 645 534 665 551 q 590 508 625 518 q 501 498 555 498 q 496 566 501 534 q 482 623 492 599 q 454 662 472 648 q 410 677 437 677 q 356 662 380 677 q 314 612 332 648 q 288 518 297 577 q 279 370 279 459 q 317 159 279 229 q 444 89 356 89 q 511 98 480 89 q 569 121 543 106 q 614 157 594 137 q 645 202 633 178 q 670 174 662 192 q 679 138 679 157 q 663 85 679 112 q 614 35 647 57 q 531 0 581 13 q 409 -14 480 -14 m 154 860 q 192 905 170 879 q 236 958 214 931 q 277 1013 257 986 q 307 1064 296 1040 l 494 1064 q 524 1013 505 1040 q 565 958 543 986 q 609 905 587 931 q 647 860 630 879 l 647 842 l 551 842 q 517 869 537 853 q 476 901 497 884 q 435 935 455 918 q 400 966 415 952 q 364 935 384 952 q 323 901 344 918 q 283 869 303 884 q 250 842 264 853 l 154 842 l 154 860 "},"ī":{"x_min":21,"x_max":465.234375,"ha":489,"o":"m 39 73 q 72 76 55 73 q 104 89 90 80 q 129 116 119 99 q 139 164 139 134 l 139 586 q 129 630 139 614 q 104 656 119 647 q 72 668 89 665 q 39 671 54 671 l 23 671 l 23 745 l 349 745 l 349 164 q 359 116 349 134 q 384 89 369 99 q 416 76 398 80 q 448 73 434 73 l 465 73 l 465 0 l 23 0 l 23 73 l 39 73 m 424 842 l 21 842 l 21 951 l 424 951 l 424 842 "},"О":{"x_min":77,"x_max":1016,"ha":1093,"o":"m 1016 496 q 985 287 1016 382 q 894 126 954 193 q 747 22 834 59 q 547 -14 660 -14 q 340 22 428 -14 q 193 126 251 59 q 106 288 135 193 q 77 498 77 382 q 106 707 77 613 q 193 867 135 801 q 340 970 252 934 q 548 1007 429 1007 q 748 970 661 1007 q 894 867 835 934 q 985 706 954 800 q 1016 496 1016 612 m 310 496 q 323 319 310 397 q 364 187 336 241 q 437 104 392 133 q 547 76 482 76 q 657 104 612 76 q 729 187 702 133 q 770 319 757 241 q 782 496 782 397 q 770 674 782 596 q 729 806 757 752 q 657 888 702 860 q 548 916 612 916 q 438 888 483 916 q 364 806 392 860 q 323 674 336 752 q 310 496 310 596 "},"ξ":{"x_min":65,"x_max":673,"ha":701,"o":"m 279 290 q 292 219 279 245 q 330 175 305 192 q 395 146 356 157 q 485 123 433 135 q 571 96 536 111 q 629 61 607 81 q 662 14 652 41 q 673 -46 673 -11 q 657 -119 673 -82 q 607 -188 641 -156 q 521 -246 574 -220 q 394 -285 468 -271 l 394 -211 q 442 -192 423 -202 q 473 -168 462 -181 q 490 -139 485 -154 q 495 -107 495 -124 q 488 -71 495 -86 q 466 -46 482 -57 q 425 -28 451 -36 q 362 -12 400 -20 q 226 26 282 3 q 134 81 170 48 q 81 157 98 113 q 65 260 65 201 q 85 364 65 315 q 142 455 105 413 q 232 530 179 496 q 348 589 284 564 l 348 598 q 252 618 295 604 q 179 654 209 633 q 133 701 149 675 q 117 758 117 727 q 129 807 117 782 q 165 856 142 832 q 223 903 189 880 q 300 944 257 925 q 185 977 240 954 q 90 1030 129 1000 l 141 1100 q 190 1072 161 1086 q 254 1045 220 1057 q 324 1022 288 1032 q 394 1008 361 1013 q 427 1027 408 1017 q 470 1045 447 1036 q 518 1058 493 1053 q 570 1064 544 1064 q 612 1059 595 1064 q 639 1047 629 1055 q 653 1030 649 1040 q 658 1008 658 1019 q 612 941 658 965 q 467 916 567 916 q 435 917 451 916 q 399 919 418 918 q 364 888 380 905 q 336 852 348 872 q 318 811 325 833 q 311 763 311 789 q 321 722 311 740 q 346 689 330 703 q 382 664 361 674 q 423 646 402 653 q 454 659 436 652 q 492 670 472 665 q 534 678 512 675 q 576 682 555 682 q 629 667 612 682 q 647 629 647 652 q 642 600 647 614 q 623 575 636 587 q 590 557 610 564 q 540 551 569 551 q 507 552 524 551 q 475 554 490 553 q 447 556 459 555 q 429 559 436 557 q 373 520 400 547 q 325 458 346 494 q 291 378 304 422 q 279 290 279 335 "},"Ď":{"x_min":38.453125,"x_max":988,"ha":1065,"o":"m 988 514 q 956 305 988 400 q 863 143 925 211 q 709 37 801 75 q 496 0 617 0 l 38 0 l 38 73 l 96 73 q 125 76 112 73 q 147 89 138 80 q 162 116 157 99 q 168 164 168 134 l 168 833 q 162 878 168 861 q 147 903 157 895 q 124 915 137 912 q 96 918 111 918 l 38 918 l 38 992 l 496 992 q 703 961 611 992 q 857 871 794 931 q 954 721 920 811 q 988 514 988 632 m 753 514 q 680 810 753 713 q 466 907 607 907 l 387 907 l 387 86 l 464 86 q 590 115 536 86 q 680 200 644 145 q 735 335 716 256 q 753 514 753 414 m 262 1293 l 358 1293 q 391 1265 372 1281 q 431 1233 411 1250 q 472 1199 452 1215 q 508 1167 492 1182 q 543 1199 523 1182 q 584 1233 563 1215 q 625 1265 605 1250 q 659 1293 645 1281 l 755 1293 l 755 1274 q 717 1229 738 1255 q 673 1176 695 1203 q 632 1121 651 1148 q 602 1071 613 1094 l 415 1071 q 385 1121 404 1094 q 344 1176 365 1148 q 300 1229 322 1203 q 262 1274 278 1255 l 262 1293 "},"&":{"x_min":65,"x_max":1094.828125,"ha":1112,"o":"m 819 0 l 723 101 q 666 54 697 75 q 596 18 634 33 q 514 -5 558 3 q 417 -14 470 -14 q 266 6 332 -14 q 155 64 200 26 q 88 157 111 102 q 65 282 65 212 q 84 386 65 343 q 136 460 103 429 q 211 514 168 492 q 302 555 254 536 q 255 617 275 588 q 222 676 235 647 q 203 736 209 705 q 197 801 197 766 q 214 885 197 847 q 267 949 232 922 q 354 991 302 976 q 475 1006 406 1006 q 593 990 543 1006 q 675 947 642 974 q 725 884 708 920 q 742 808 742 848 q 729 732 742 766 q 690 669 716 698 q 624 615 663 641 q 530 565 584 590 q 540 555 533 560 l 737 348 q 748 443 745 396 q 751 530 751 490 l 751 591 l 1055 591 l 1055 517 l 1033 517 q 988 515 1010 517 q 947 502 966 512 q 913 474 928 492 q 890 423 899 455 q 865 341 879 385 q 829 253 850 297 l 968 108 q 1016 80 987 87 q 1081 73 1044 73 l 1094 73 l 1094 0 l 819 0 m 269 275 q 282 198 269 233 q 319 135 295 162 q 377 94 343 109 q 453 78 411 78 q 577 103 526 78 q 662 168 628 127 l 365 485 q 317 440 336 464 q 288 390 298 417 q 273 335 277 364 q 269 275 269 307 m 573 807 q 569 852 573 831 q 554 889 564 873 q 524 913 543 904 q 475 922 505 922 q 435 913 452 922 q 407 889 418 904 q 390 852 396 873 q 385 805 385 831 q 390 760 385 782 q 406 717 396 738 q 433 674 417 696 q 471 628 450 652 q 520 662 501 644 q 552 702 540 681 q 568 749 563 723 q 573 807 573 775 "},"G":{"x_min":77,"x_max":1029.375,"ha":1068,"o":"m 587 -14 q 362 22 458 -14 q 203 126 266 59 q 108 288 139 193 q 77 497 77 382 q 110 703 77 609 q 208 864 143 796 q 370 968 273 931 q 594 1006 467 1006 q 746 993 681 1006 q 854 959 811 980 q 920 908 898 937 q 941 844 941 878 q 930 798 941 820 q 895 761 918 777 q 839 735 872 744 q 762 726 806 726 q 751 803 762 768 q 720 864 741 839 q 666 903 699 889 q 590 917 634 917 q 461 889 514 917 q 374 807 407 861 q 325 675 340 754 q 310 497 310 597 q 326 318 310 396 q 377 188 342 241 q 469 107 413 135 q 608 80 526 80 q 659 82 634 80 q 709 89 685 84 l 709 293 q 684 371 709 349 q 610 392 659 392 l 592 392 l 592 466 l 1029 466 l 1029 392 l 1011 392 q 974 387 990 392 q 948 370 958 382 q 933 338 938 358 q 929 288 929 318 l 929 60 q 764 4 847 23 q 587 -14 682 -14 "},"ΰ":{"x_min":37.6875,"x_max":815,"ha":879,"o":"m 458 -14 q 315 7 376 -14 q 213 69 253 29 q 153 165 173 109 q 134 291 134 222 l 134 586 q 127 630 134 613 q 109 656 121 647 q 80 668 98 665 q 37 671 62 671 l 37 745 l 343 745 l 343 291 q 355 198 343 237 q 387 136 366 160 q 440 100 409 112 q 511 89 472 89 q 601 111 563 89 q 664 173 639 133 q 701 268 689 213 q 713 390 713 324 q 698 503 713 456 q 658 580 682 549 q 607 627 634 610 q 556 650 579 643 q 562 691 556 671 q 580 724 568 710 q 610 747 592 739 q 652 756 628 756 q 718 732 688 756 q 769 666 747 709 q 802 562 790 623 q 815 425 815 501 q 808 317 815 371 q 786 214 802 263 q 743 124 770 165 q 677 51 717 82 q 584 3 638 20 q 458 -14 530 -14 m 407 973 q 421 1019 413 994 q 437 1073 429 1045 q 451 1127 444 1100 q 461 1177 457 1153 l 623 1177 l 623 1162 q 598 1114 613 1141 q 564 1059 582 1087 q 527 1004 546 1031 q 490 955 508 977 l 407 955 l 407 973 m 219 955 q 225 995 219 978 q 243 1022 232 1011 q 269 1036 254 1032 q 300 1041 284 1041 q 331 1036 317 1041 q 358 1022 346 1032 q 376 995 369 1011 q 384 955 384 978 q 376 915 384 931 q 358 888 369 898 q 331 873 346 878 q 300 869 317 869 q 269 873 284 869 q 243 888 254 878 q 225 915 232 898 q 219 955 219 931 m 559 955 q 565 995 559 978 q 584 1022 572 1011 q 610 1036 595 1032 q 642 1041 625 1041 q 672 1036 658 1041 q 698 1022 687 1032 q 717 995 710 1011 q 724 955 724 978 q 717 915 724 931 q 698 888 710 898 q 672 873 687 878 q 642 869 658 869 q 610 873 625 869 q 584 888 595 878 q 565 915 572 898 q 559 955 559 931 "},"`":{"x_min":225,"x_max":578,"ha":802,"o":"m 483 842 q 411 889 451 860 q 334 946 371 917 q 267 1004 297 976 q 225 1049 237 1031 l 225 1064 l 442 1064 q 470 1013 453 1040 q 506 958 487 986 q 544 905 524 931 q 578 860 563 879 l 578 842 l 483 842 "},"ŏ":{"x_min":65,"x_max":786,"ha":851,"o":"m 786 374 q 694 82 786 178 q 423 -14 602 -14 q 273 10 340 -14 q 160 82 207 34 q 89 203 114 130 q 65 374 65 277 q 156 666 65 570 q 427 762 248 762 q 577 738 511 762 q 690 666 643 714 q 761 545 736 618 q 786 374 786 472 m 280 374 q 288 244 280 300 q 313 150 296 188 q 358 92 330 112 q 426 73 386 73 q 494 92 466 73 q 538 150 521 112 q 563 244 556 188 q 571 374 571 300 q 563 505 571 449 q 538 598 555 561 q 492 654 520 635 q 425 673 465 673 q 357 654 385 673 q 312 598 329 635 q 288 505 295 561 q 280 374 280 449 m 423 842 q 327 861 368 842 q 258 911 286 880 q 216 981 230 942 q 201 1060 202 1020 l 292 1060 q 338 987 304 1009 q 423 965 371 965 q 508 987 474 965 q 553 1060 542 1009 l 646 1060 q 630 981 644 1020 q 588 911 616 942 q 519 861 560 880 q 423 842 478 842 "},"ý":{"x_min":-0.265625,"x_max":804.234375,"ha":804,"o":"m 804 745 l 804 671 q 767 666 783 671 q 738 649 751 661 q 714 618 725 637 q 693 569 703 599 q 642 428 668 500 q 588 284 615 356 q 535 140 562 212 q 483 0 508 69 q 437 -118 458 -67 q 391 -206 415 -169 q 338 -268 367 -243 q 270 -307 309 -292 q 180 -327 231 -321 q 60 -334 129 -334 l 37 -334 l 37 -253 q 160 -235 109 -253 q 246 -185 211 -217 q 304 -107 281 -152 q 344 -6 327 -61 l 94 604 q 75 635 85 624 q 53 653 65 647 q 28 661 42 659 q 0 662 15 662 l 0 745 l 395 745 l 395 671 q 331 660 355 671 q 308 619 308 650 q 313 592 308 607 q 321 565 317 576 q 347 502 334 536 q 373 433 360 468 q 397 367 385 399 q 417 311 408 335 q 434 263 427 284 q 445 224 441 242 q 452 192 450 207 q 456 164 455 178 q 462 195 458 178 q 471 228 466 212 q 480 257 475 244 q 487 275 485 270 l 579 547 q 584 563 581 554 q 588 582 586 572 q 591 600 590 591 q 592 615 592 609 q 566 659 592 647 q 491 671 539 671 l 491 745 l 804 745 m 314 860 q 347 905 328 879 q 384 958 365 931 q 420 1013 403 986 q 447 1064 436 1040 l 666 1064 l 666 1049 q 623 1004 653 1031 q 556 946 593 976 q 480 889 519 917 q 408 842 440 860 l 314 842 l 314 860 "},"º":{"x_min":49,"x_max":558,"ha":607,"o":"m 211 763 q 231 639 211 681 q 304 597 252 597 q 376 639 355 597 q 397 763 397 681 q 375 886 397 845 q 302 926 353 926 q 231 886 251 926 q 211 763 211 845 m 558 763 q 493 586 558 644 q 302 528 428 528 q 115 586 181 528 q 49 763 49 645 q 114 941 49 883 q 305 999 179 999 q 410 984 364 999 q 490 940 457 969 q 540 867 522 911 q 558 763 558 823 "},"∞":{"x_min":49,"x_max":933,"ha":982,"o":"m 933 401 q 917 299 933 347 q 873 215 901 251 q 805 157 845 178 q 718 136 766 136 q 593 176 653 136 q 482 306 532 216 q 383 182 439 224 q 266 141 328 141 q 179 159 219 141 q 110 212 139 178 q 64 295 80 246 q 49 406 49 345 q 64 510 49 461 q 108 594 80 558 q 177 650 137 629 q 266 671 217 671 q 329 661 298 671 q 391 632 361 652 q 449 581 421 612 q 499 505 476 550 q 596 626 542 586 q 719 666 649 666 q 806 647 766 666 q 873 594 845 628 q 917 511 901 559 q 933 401 933 462 m 712 574 q 623 531 663 574 q 544 401 584 489 q 620 272 580 315 q 714 229 660 229 q 767 243 743 229 q 808 280 791 256 q 835 335 825 304 q 844 403 844 367 q 834 470 844 439 q 807 524 825 501 q 766 560 790 547 q 712 574 742 574 m 269 233 q 357 275 316 233 q 437 405 398 317 q 360 535 401 492 q 266 578 320 578 q 214 564 237 578 q 174 527 190 550 q 148 472 157 503 q 139 404 139 440 q 147 339 139 370 q 171 285 154 308 q 211 247 187 261 q 269 233 236 233 "},"ź":{"x_min":25,"x_max":694,"ha":735,"o":"m 511 94 q 547 100 532 94 q 572 120 562 106 q 590 155 583 133 q 603 207 597 176 l 611 252 l 694 252 l 687 0 l 25 0 l 25 56 l 435 650 l 232 650 q 204 645 216 650 q 184 630 193 641 q 167 600 175 618 q 152 553 160 581 l 144 520 l 61 520 l 77 745 l 678 745 l 678 685 l 266 94 l 511 94 m 283 860 q 316 905 297 879 q 353 958 334 931 q 389 1013 372 986 q 416 1064 405 1040 l 635 1064 l 635 1049 q 592 1004 622 1031 q 525 946 562 976 q 449 889 488 917 q 377 842 409 860 l 283 842 l 283 860 "},"я":{"x_min":0,"x_max":828.296875,"ha":851,"o":"m 409 665 q 358 656 379 665 q 324 631 337 647 q 305 592 311 614 q 299 542 299 569 q 305 487 299 512 q 324 446 311 463 q 358 419 337 428 q 409 410 379 410 l 501 410 l 501 665 l 409 665 m 319 127 q 269 64 298 88 q 202 25 241 39 q 113 5 163 10 q 0 0 63 0 l 0 73 l 4 73 q 37 78 23 73 q 66 93 52 83 q 91 119 79 103 q 118 156 104 135 l 240 353 q 184 374 212 359 q 133 413 156 389 q 96 470 110 437 q 82 547 82 504 q 98 630 82 593 q 151 692 115 667 q 246 731 188 717 q 386 745 303 745 l 828 745 l 828 671 l 823 671 q 738 650 763 671 q 713 586 713 629 l 713 166 q 717 131 713 147 q 732 101 721 114 q 762 81 743 88 q 809 73 781 73 l 828 73 l 828 0 l 382 0 l 382 73 l 387 73 q 431 76 410 73 q 467 89 451 80 q 492 117 483 99 q 501 166 501 136 l 501 327 l 428 327 l 319 127 "},"Ё":{"x_min":38.453125,"x_max":863,"ha":907,"o":"m 388 84 l 666 84 q 702 92 687 84 q 728 114 717 100 q 745 148 739 128 q 755 190 752 167 l 766 256 l 863 256 l 852 0 l 38 0 l 38 73 l 96 73 q 124 76 111 73 q 147 87 137 79 q 162 112 157 96 q 168 156 168 129 l 168 828 q 162 876 168 858 q 147 903 157 893 q 125 915 138 912 q 96 918 112 918 l 38 918 l 38 992 l 809 992 l 815 736 l 718 736 l 711 801 q 685 880 705 852 q 622 907 665 907 l 388 907 l 388 560 l 718 560 l 718 476 l 388 476 l 388 84 m 242 1184 q 248 1224 242 1207 q 266 1251 255 1240 q 292 1265 277 1261 q 323 1270 307 1270 q 354 1265 340 1270 q 381 1251 369 1261 q 399 1224 392 1240 q 407 1184 407 1207 q 399 1144 407 1160 q 381 1117 392 1127 q 354 1102 369 1107 q 323 1098 340 1098 q 292 1102 307 1098 q 266 1117 277 1107 q 248 1144 255 1127 q 242 1184 242 1160 m 527 1184 q 533 1224 527 1207 q 552 1251 540 1240 q 578 1265 563 1261 q 610 1270 593 1270 q 640 1265 625 1270 q 666 1251 654 1261 q 684 1224 677 1240 q 692 1184 692 1207 q 684 1144 692 1160 q 666 1117 677 1127 q 640 1102 654 1107 q 610 1098 625 1098 q 578 1102 593 1098 q 552 1117 563 1107 q 533 1144 540 1127 q 527 1184 527 1160 "},"ń":{"x_min":27.78125,"x_max":889.65625,"ha":926,"o":"m 581 0 l 581 456 q 575 536 581 501 q 556 595 569 571 q 521 631 543 618 q 470 643 500 643 q 412 626 435 643 q 375 579 389 608 q 356 510 362 549 q 349 429 349 471 l 349 164 q 357 117 349 134 q 377 89 364 99 q 408 76 389 80 q 450 73 427 73 l 454 73 l 454 0 l 27 0 l 27 73 l 30 73 q 73 76 54 73 q 108 90 93 80 q 130 119 122 100 q 139 169 139 138 l 139 580 q 131 627 139 610 q 111 655 124 645 q 80 668 98 664 q 38 671 61 671 l 34 671 l 34 745 l 326 745 l 344 645 l 351 645 q 395 707 372 684 q 445 743 418 730 q 501 758 471 755 q 563 762 530 762 q 659 746 616 762 q 731 698 701 730 q 776 615 760 665 q 792 494 792 564 l 792 172 q 797 120 792 139 q 815 90 803 101 q 844 77 826 80 q 885 73 861 73 l 889 73 l 889 0 l 581 0 m 375 860 q 408 905 389 879 q 445 958 426 931 q 481 1013 464 986 q 508 1064 497 1040 l 727 1064 l 727 1049 q 684 1004 714 1031 q 617 946 654 976 q 541 889 580 917 q 469 842 501 860 l 375 842 l 375 860 "}," ":{"x_min":0,"x_max":0,"ha":347},"Г":{"x_min":38.453125,"x_max":807,"ha":821,"o":"m 797 992 l 807 720 l 729 720 l 712 786 q 666 877 697 846 q 579 907 635 907 l 388 907 l 388 158 q 394 114 388 130 q 409 88 399 97 q 432 76 418 79 q 459 73 445 73 l 545 73 l 545 0 l 38 0 l 38 73 l 96 73 q 125 76 112 73 q 147 89 138 80 q 162 116 157 99 q 168 164 168 134 l 168 828 q 162 876 168 858 q 147 903 157 893 q 125 915 138 912 q 96 918 112 918 l 38 918 l 38 992 l 797 992 "},"Ь":{"x_min":38.453125,"x_max":844,"ha":886,"o":"m 545 992 l 545 918 l 460 918 q 405 900 423 918 q 387 835 387 881 l 387 558 l 474 558 q 644 537 574 558 q 758 480 714 517 q 823 392 803 444 q 844 280 844 341 q 821 166 844 218 q 752 77 798 114 q 634 20 705 40 q 467 0 563 0 l 38 0 l 38 73 l 96 73 q 131 79 117 73 q 153 94 144 84 q 164 123 161 105 q 168 165 168 141 l 168 828 q 162 874 168 857 q 148 902 157 892 q 126 915 139 911 q 96 918 113 918 l 38 918 l 38 992 l 545 992 m 387 82 l 455 82 q 526 93 497 82 q 574 129 556 105 q 601 189 593 153 q 609 273 609 225 q 599 367 609 328 q 570 431 590 406 q 517 466 549 455 q 439 477 485 477 l 387 477 l 387 82 "},"¤":{"x_min":91.3125,"x_max":681.703125,"ha":777,"o":"m 132 494 q 143 571 132 534 q 176 638 154 608 l 92 722 l 162 791 l 245 707 q 310 738 275 727 q 385 750 346 750 q 459 738 424 750 q 525 706 495 727 l 611 792 l 681 722 l 596 636 q 629 569 617 605 q 641 494 641 534 q 630 419 641 454 q 599 353 619 384 l 681 271 l 611 202 l 529 284 q 462 251 498 263 q 385 240 425 240 q 309 251 346 240 q 242 283 272 262 l 162 202 l 91 273 l 171 353 q 132 494 132 415 m 226 494 q 238 431 226 461 q 272 380 251 402 q 323 346 294 358 q 385 333 352 333 q 449 346 420 333 q 500 380 478 358 q 533 431 521 402 q 545 494 545 461 q 533 558 545 528 q 500 609 521 587 q 449 644 478 632 q 385 657 420 657 q 323 644 352 657 q 272 609 294 632 q 238 558 251 587 q 226 494 226 528 "},"Ĝ":{"x_min":77,"x_max":1029.375,"ha":1068,"o":"m 587 -14 q 362 22 458 -14 q 203 126 266 59 q 108 288 139 193 q 77 497 77 382 q 110 703 77 609 q 208 864 143 796 q 370 968 273 931 q 594 1006 467 1006 q 746 993 681 1006 q 854 959 811 980 q 920 908 898 937 q 941 844 941 878 q 930 798 941 820 q 895 761 918 777 q 839 735 872 744 q 762 726 806 726 q 751 803 762 768 q 720 864 741 839 q 666 903 699 889 q 590 917 634 917 q 461 889 514 917 q 374 807 407 861 q 325 675 340 754 q 310 497 310 597 q 326 318 310 396 q 377 188 342 241 q 469 107 413 135 q 608 80 526 80 q 659 82 634 80 q 709 89 685 84 l 709 293 q 684 371 709 349 q 610 392 659 392 l 592 392 l 592 466 l 1029 466 l 1029 392 l 1011 392 q 974 387 990 392 q 948 370 958 382 q 933 338 938 358 q 929 288 929 318 l 929 60 q 764 4 847 23 q 587 -14 682 -14 m 323 1089 q 361 1134 339 1108 q 405 1187 383 1160 q 446 1242 426 1215 q 476 1293 465 1269 l 663 1293 q 693 1242 674 1269 q 734 1187 712 1215 q 778 1134 756 1160 q 816 1089 799 1108 l 816 1071 l 720 1071 q 686 1098 706 1082 q 645 1130 666 1113 q 604 1164 624 1147 q 569 1195 584 1181 q 533 1164 553 1181 q 492 1130 513 1147 q 452 1098 472 1113 q 419 1071 433 1082 l 323 1071 l 323 1089 "},"p":{"x_min":18.703125,"x_max":831,"ha":896,"o":"m 34 -260 q 67 -257 50 -260 q 99 -244 85 -253 q 124 -217 114 -234 q 134 -169 134 -199 l 134 574 q 126 624 134 605 q 107 654 119 643 q 77 667 94 664 q 40 671 60 671 l 30 671 l 30 745 l 302 745 l 327 635 l 334 635 q 368 685 348 663 q 415 724 388 707 q 473 749 441 740 q 546 758 506 758 q 668 735 615 758 q 757 664 721 712 q 812 543 793 616 q 831 369 831 470 q 812 196 831 269 q 758 75 794 123 q 671 5 723 28 q 551 -17 619 -17 q 422 13 472 -17 q 343 94 373 43 l 334 94 q 339 31 336 62 q 343 -23 341 5 q 344 -74 344 -52 l 344 -169 q 354 -217 344 -199 q 379 -244 364 -234 q 411 -257 393 -253 q 443 -260 428 -260 l 473 -260 l 473 -334 l 18 -334 l 18 -260 l 34 -260 m 486 86 q 586 156 556 86 q 616 368 616 226 q 586 580 616 506 q 487 654 556 654 q 418 635 446 654 q 374 580 391 616 q 351 491 358 544 q 344 369 344 437 q 351 244 344 297 q 374 155 358 191 q 418 103 391 120 q 486 86 445 86 "},"Ю":{"x_min":38.453125,"x_max":1468,"ha":1544,"o":"m 1468 496 q 1438 287 1468 382 q 1353 126 1409 193 q 1214 22 1297 59 q 1025 -14 1132 -14 q 834 20 916 -14 q 697 119 752 55 q 614 274 642 183 q 583 475 585 364 l 387 475 l 387 164 q 392 116 387 134 q 408 89 398 99 q 430 76 417 80 q 458 73 443 73 l 517 73 l 517 0 l 38 0 l 38 73 l 96 73 q 124 76 111 73 q 147 89 137 80 q 162 116 157 99 q 168 164 168 134 l 168 833 q 162 878 168 861 q 146 903 156 895 q 123 915 136 912 q 96 918 111 918 l 38 918 l 38 992 l 517 992 l 517 918 l 458 918 q 430 915 443 918 q 408 903 417 912 q 392 876 398 893 q 387 828 387 858 l 387 560 l 584 560 q 622 744 591 662 q 707 885 652 827 q 842 975 762 944 q 1027 1007 922 1007 q 1215 970 1133 1007 q 1353 867 1297 934 q 1438 706 1409 800 q 1468 496 1468 612 m 816 496 q 827 319 816 397 q 863 187 838 241 q 928 104 888 133 q 1025 76 968 76 q 1123 104 1083 76 q 1187 187 1162 133 q 1223 319 1212 241 q 1234 496 1234 397 q 1223 674 1234 596 q 1187 806 1212 752 q 1124 888 1163 860 q 1027 916 1084 916 q 929 888 970 916 q 864 806 889 860 q 827 674 838 752 q 816 496 816 596 "},"ο":{"x_min":65,"x_max":786,"ha":851,"o":"m 786 374 q 694 82 786 178 q 423 -14 602 -14 q 273 10 340 -14 q 160 82 207 34 q 89 203 114 130 q 65 374 65 277 q 156 666 65 570 q 427 762 248 762 q 577 738 511 762 q 690 666 643 714 q 761 545 736 618 q 786 374 786 472 m 280 374 q 288 244 280 300 q 313 150 296 188 q 358 92 330 112 q 426 73 386 73 q 494 92 466 73 q 538 150 521 112 q 563 244 556 188 q 571 374 571 300 q 563 505 571 449 q 538 598 555 561 q 492 654 520 635 q 425 673 465 673 q 357 654 385 673 q 312 598 329 635 q 288 505 295 561 q 280 374 280 449 "},"S":{"x_min":41.203125,"x_max":745,"ha":814,"o":"m 366 -14 q 210 3 273 -14 q 110 49 148 21 q 57 111 73 76 q 41 179 41 146 q 54 240 41 215 q 89 280 67 264 q 139 302 111 295 q 198 309 168 309 q 212 204 198 249 q 252 129 227 159 q 312 83 277 99 q 388 68 347 68 q 461 80 429 68 q 515 112 493 91 q 549 160 538 132 q 561 219 561 187 q 546 282 561 254 q 503 333 532 309 q 431 377 474 356 q 329 423 387 399 q 206 485 256 453 q 126 553 156 516 q 82 632 95 590 q 69 726 69 675 q 94 841 69 790 q 166 930 120 893 q 273 986 211 966 q 409 1006 336 1006 q 542 993 486 1006 q 634 959 597 980 q 688 908 670 937 q 705 844 705 878 q 695 799 705 820 q 663 762 684 778 q 609 738 641 746 q 534 729 577 729 q 526 792 534 758 q 501 854 519 825 q 455 902 483 883 q 387 921 427 921 q 334 913 359 921 q 290 888 309 904 q 260 848 271 872 q 250 792 250 824 q 259 737 250 763 q 294 687 269 712 q 364 637 320 662 q 479 584 408 613 q 601 524 550 555 q 683 459 651 494 q 730 382 715 424 q 745 289 745 340 q 718 166 745 222 q 642 70 692 110 q 523 8 592 30 q 366 -14 453 -14 "},"/":{"x_min":0,"x_max":400,"ha":400,"o":"m 99 -170 l 0 -168 l 302 1055 l 400 1055 l 99 -170 "},"Ŧ":{"x_min":13,"x_max":893,"ha":907,"o":"m 563 531 l 763 531 l 763 457 l 563 457 l 563 164 q 568 116 563 134 q 584 89 574 99 q 606 76 593 80 q 634 73 619 73 l 692 73 l 692 0 l 213 0 l 213 73 l 271 73 q 300 76 287 73 q 322 89 313 80 q 337 116 332 99 q 343 164 343 134 l 343 457 l 142 457 l 142 531 l 343 531 l 343 907 l 231 907 q 179 900 200 907 q 144 881 158 893 q 125 850 131 868 q 116 809 118 832 l 106 723 l 13 723 l 20 992 l 886 992 l 893 723 l 800 723 l 789 809 q 780 850 787 832 q 761 881 774 868 q 726 900 747 893 q 674 907 705 907 l 563 907 l 563 531 "},"ђ":{"x_min":18.28125,"x_max":793,"ha":904,"o":"m 470 602 q 413 585 436 602 q 376 537 389 567 q 356 469 362 508 q 349 387 349 430 l 349 164 q 357 117 349 134 q 377 89 364 99 q 408 76 389 80 q 450 73 427 73 l 454 73 l 454 0 l 27 0 l 27 73 l 30 73 q 73 76 53 73 q 108 90 93 80 q 130 119 122 100 q 139 169 139 138 l 139 802 l 18 802 l 18 876 l 139 876 l 139 897 q 129 941 139 924 q 104 967 119 958 q 72 979 89 976 q 39 981 54 981 l 23 981 l 23 1055 l 349 1055 l 349 876 l 565 876 l 565 802 l 349 802 l 349 784 q 348 726 349 757 q 344 669 346 695 q 339 608 341 638 l 351 608 q 395 670 372 647 q 445 703 419 692 q 501 717 472 714 q 563 721 531 721 q 660 705 617 721 q 732 657 702 689 q 777 573 761 624 q 793 453 793 522 l 793 -11 q 768 -166 793 -104 q 700 -265 744 -228 q 596 -318 656 -302 q 464 -334 535 -334 l 437 -334 l 437 -247 l 445 -247 q 503 -235 478 -247 q 546 -194 529 -223 q 572 -118 563 -166 q 582 0 582 -71 l 582 415 q 576 494 582 459 q 557 553 570 529 q 522 590 544 577 q 470 602 501 602 "},"y":{"x_min":-0.265625,"x_max":804.234375,"ha":804,"o":"m 804 745 l 804 671 q 767 666 783 671 q 738 649 751 661 q 714 618 725 637 q 693 569 703 599 q 642 428 668 500 q 588 284 615 356 q 535 140 562 212 q 483 0 508 69 q 437 -118 458 -67 q 391 -206 415 -169 q 338 -268 367 -243 q 270 -307 309 -292 q 180 -327 231 -321 q 60 -334 129 -334 l 37 -334 l 37 -253 q 160 -235 109 -253 q 246 -185 211 -217 q 304 -107 281 -152 q 344 -6 327 -61 l 94 604 q 75 635 85 624 q 53 653 65 647 q 28 661 42 659 q 0 662 15 662 l 0 745 l 395 745 l 395 671 q 331 660 355 671 q 308 619 308 650 q 313 592 308 607 q 321 565 317 576 q 347 502 334 536 q 373 433 360 468 q 397 367 385 399 q 417 311 408 335 q 434 263 427 284 q 445 224 441 242 q 452 192 450 207 q 456 164 455 178 q 462 195 458 178 q 471 228 466 212 q 480 257 475 244 q 487 275 485 270 l 579 547 q 584 563 581 554 q 588 582 586 572 q 591 600 590 591 q 592 615 592 609 q 566 659 592 647 q 491 671 539 671 l 491 745 l 804 745 "},"Π":{"x_min":38.453125,"x_max":1084.875,"ha":1124,"o":"m 606 0 l 606 73 l 665 73 q 692 76 679 73 q 715 89 705 80 q 730 116 725 99 q 736 164 736 134 l 736 907 l 387 907 l 387 164 q 392 116 387 134 q 408 89 398 99 q 430 76 417 80 q 458 73 443 73 l 517 73 l 517 0 l 38 0 l 38 73 l 96 73 q 124 76 111 73 q 147 89 137 80 q 162 116 157 99 q 168 164 168 134 l 168 833 q 162 878 168 861 q 146 903 156 895 q 123 915 136 912 q 96 918 111 918 l 38 918 l 38 992 l 1084 992 l 1084 918 l 1026 918 q 999 915 1012 918 q 976 903 986 912 q 961 876 966 893 q 956 828 956 858 l 956 156 q 961 112 956 129 q 977 87 967 96 q 999 76 987 79 q 1026 73 1012 73 l 1084 73 l 1084 0 l 606 0 "},"‗":{"x_min":-7,"x_max":578,"ha":571,"o":"m 578 -115 l -7 -115 l -7 -33 l 578 -33 l 578 -115 m 578 -279 l -7 -279 l -7 -196 l 578 -196 l 578 -279 "},"–":{"x_min":-7,"x_max":701,"ha":695,"o":"m 701 323 l -7 323 l -7 423 l 701 423 l 701 323 "},"ë":{"x_min":65,"x_max":735,"ha":793,"o":"m 412 671 q 319 614 354 671 q 282 445 285 556 l 522 445 q 516 540 522 497 q 497 611 510 582 q 463 656 483 640 q 412 671 442 671 m 425 -14 q 269 11 337 -14 q 156 86 202 37 q 88 206 111 135 q 65 367 65 277 q 88 539 65 465 q 155 662 111 613 q 263 737 199 712 q 409 762 327 762 q 545 740 485 762 q 648 677 606 719 q 712 572 690 635 q 735 427 735 510 l 735 356 l 279 356 q 294 236 281 286 q 331 153 307 186 q 388 105 354 120 q 465 89 421 89 q 531 98 501 89 q 587 121 562 106 q 630 157 612 137 q 661 202 649 178 q 699 134 699 182 q 682 77 699 104 q 632 30 666 51 q 547 -1 598 10 q 425 -14 496 -14 m 191 955 q 197 995 191 978 q 215 1022 204 1011 q 241 1036 226 1032 q 272 1041 256 1041 q 303 1036 289 1041 q 330 1022 318 1032 q 348 995 341 1011 q 356 955 356 978 q 348 915 356 931 q 330 888 341 898 q 303 873 318 878 q 272 869 289 869 q 241 873 256 869 q 215 888 226 878 q 197 915 204 898 q 191 955 191 931 m 476 955 q 482 995 476 978 q 501 1022 489 1011 q 527 1036 512 1032 q 559 1041 542 1041 q 589 1036 574 1041 q 615 1022 603 1032 q 633 995 626 1011 q 641 955 641 978 q 633 915 641 931 q 615 888 626 898 q 589 873 603 878 q 559 869 574 869 q 527 873 542 869 q 501 888 512 878 q 482 915 489 898 q 476 955 476 931 "},"б":{"x_min":66,"x_max":786,"ha":851,"o":"m 66 442 q 72 592 66 521 q 93 725 78 663 q 135 837 108 786 q 203 925 162 887 q 302 986 245 963 q 438 1018 360 1010 q 534 1027 490 1023 q 612 1036 578 1031 q 669 1049 646 1041 q 701 1071 692 1057 l 766 1071 q 741 960 764 1001 q 677 896 719 919 q 573 862 635 873 q 431 840 512 851 q 333 828 374 835 q 263 807 291 820 q 215 774 234 794 q 186 726 196 755 q 170 658 175 697 q 162 567 165 618 l 167 567 q 203 627 179 599 q 259 675 226 654 q 335 708 292 696 q 431 720 378 720 q 697 627 608 720 q 786 354 786 535 q 763 196 786 265 q 697 81 741 127 q 583 10 652 34 q 422 -14 515 -14 q 155 97 245 -14 q 66 442 66 209 m 571 352 q 563 474 571 421 q 538 562 555 527 q 492 614 520 597 q 422 632 463 632 q 352 614 380 632 q 309 562 325 597 q 286 474 293 527 q 280 352 280 421 q 313 144 280 215 q 422 73 347 73 q 492 91 463 73 q 538 144 520 109 q 563 232 555 180 q 571 352 571 284 "},"ƒ":{"x_min":-118,"x_max":791,"ha":777,"o":"m 626 527 l 448 527 q 422 393 435 459 q 396 259 408 326 q 370 126 383 193 q 344 -9 357 58 q 295 -165 326 -103 q 222 -265 265 -228 q 126 -318 180 -302 q 8 -334 72 -334 q -59 -328 -25 -334 q -118 -315 -94 -323 l -96 -228 q -75 -234 -87 -231 q -49 -241 -63 -238 q -21 -245 -35 -243 q 5 -247 -7 -247 q 50 -235 31 -247 q 84 -194 69 -222 q 112 -120 99 -166 q 137 -8 124 -74 l 239 527 l 102 527 l 120 624 l 256 624 q 270 689 262 656 q 283 754 277 721 q 317 861 294 814 q 377 940 340 908 q 464 989 413 972 q 581 1006 515 1006 q 674 997 635 1006 q 739 973 713 989 q 778 938 765 958 q 791 894 791 918 q 783 850 791 871 q 757 814 776 829 q 708 790 739 799 q 631 782 677 782 q 617 887 631 849 q 574 926 603 926 q 545 916 557 926 q 525 886 534 906 q 508 835 515 866 q 492 763 500 805 l 466 624 l 643 624 l 626 527 "},"у":{"x_min":-0.265625,"x_max":804.234375,"ha":804,"o":"m 804 745 l 804 671 q 767 666 783 671 q 738 649 751 661 q 714 618 725 637 q 693 569 703 599 q 642 428 668 500 q 588 284 615 356 q 535 140 562 212 q 483 0 508 69 q 437 -118 458 -67 q 391 -206 415 -169 q 338 -268 367 -243 q 270 -307 309 -292 q 180 -327 231 -321 q 60 -334 129 -334 l 37 -334 l 37 -253 q 160 -235 109 -253 q 246 -185 211 -217 q 304 -107 281 -152 q 344 -6 327 -61 l 94 604 q 75 635 85 624 q 53 653 65 647 q 28 661 42 659 q 0 662 15 662 l 0 745 l 395 745 l 395 671 q 331 660 355 671 q 308 619 308 650 q 313 592 308 607 q 321 565 317 576 q 347 502 334 536 q 373 433 360 468 q 397 367 385 399 q 417 311 408 335 q 434 263 427 284 q 445 224 441 242 q 452 192 450 207 q 456 164 455 178 q 462 195 458 178 q 471 228 466 212 q 480 257 475 244 q 487 275 485 270 l 579 547 q 584 563 581 554 q 588 582 586 572 q 591 600 590 591 q 592 615 592 609 q 566 659 592 647 q 491 671 539 671 l 491 745 l 804 745 "},"J":{"x_min":-54.078125,"x_max":495.96875,"ha":511,"o":"m 495 918 l 437 918 q 409 915 422 918 q 386 903 396 912 q 371 876 377 893 q 365 828 365 858 l 365 -2 q 351 -114 365 -65 q 312 -200 337 -163 q 252 -263 287 -237 q 176 -304 217 -288 q 89 -326 135 -319 q -3 -334 43 -334 l -54 -334 l -54 -253 l -28 -253 q 35 -240 4 -253 q 91 -199 67 -228 q 131 -121 116 -169 q 146 -4 146 -74 l 146 833 q 140 878 146 861 q 125 903 135 895 q 102 915 115 912 q 75 918 89 918 l 17 918 l 17 992 l 495 992 l 495 918 "},"ŷ":{"x_min":-0.265625,"x_max":804.234375,"ha":804,"o":"m 804 745 l 804 671 q 767 666 783 671 q 738 649 751 661 q 714 618 725 637 q 693 569 703 599 q 642 428 668 500 q 588 284 615 356 q 535 140 562 212 q 483 0 508 69 q 437 -118 458 -67 q 391 -206 415 -169 q 338 -268 367 -243 q 270 -307 309 -292 q 180 -327 231 -321 q 60 -334 129 -334 l 37 -334 l 37 -253 q 160 -235 109 -253 q 246 -185 211 -217 q 304 -107 281 -152 q 344 -6 327 -61 l 94 604 q 75 635 85 624 q 53 653 65 647 q 28 661 42 659 q 0 662 15 662 l 0 745 l 395 745 l 395 671 q 331 660 355 671 q 308 619 308 650 q 313 592 308 607 q 321 565 317 576 q 347 502 334 536 q 373 433 360 468 q 397 367 385 399 q 417 311 408 335 q 434 263 427 284 q 445 224 441 242 q 452 192 450 207 q 456 164 455 178 q 462 195 458 178 q 471 228 466 212 q 480 257 475 244 q 487 275 485 270 l 579 547 q 584 563 581 554 q 588 582 586 572 q 591 600 590 591 q 592 615 592 609 q 566 659 592 647 q 491 671 539 671 l 491 745 l 804 745 m 163 860 q 201 905 179 879 q 245 958 223 931 q 286 1013 266 986 q 316 1064 305 1040 l 503 1064 q 533 1013 514 1040 q 574 958 552 986 q 618 905 596 931 q 656 860 639 879 l 656 842 l 560 842 q 526 869 546 853 q 485 901 506 884 q 444 935 464 918 q 409 966 424 952 q 373 935 393 952 q 332 901 353 918 q 292 869 312 884 q 259 842 273 853 l 163 842 l 163 860 "},"ŕ":{"x_min":27.78125,"x_max":705,"ha":726,"o":"m 491 0 l 27 0 l 27 73 l 31 73 q 75 77 55 73 q 109 91 94 80 q 131 121 123 101 q 139 173 139 141 l 139 576 q 131 625 139 607 q 111 654 124 644 q 80 668 98 664 q 38 671 61 671 l 34 671 l 34 745 l 315 745 l 343 636 l 349 636 q 379 690 363 667 q 418 729 396 714 q 472 753 441 745 q 545 761 503 761 q 666 732 627 761 q 705 648 705 703 q 658 549 705 584 q 528 514 612 514 q 525 564 528 542 q 514 600 522 586 q 493 621 507 614 q 460 629 480 629 q 418 617 436 629 q 389 585 401 605 q 369 541 377 566 q 357 492 361 517 q 351 445 352 468 q 349 406 349 423 l 349 166 q 357 117 349 136 q 377 89 364 99 q 408 76 390 80 q 446 73 426 73 l 491 73 l 491 0 m 250 860 q 283 905 264 879 q 320 958 301 931 q 356 1013 339 986 q 383 1064 372 1040 l 602 1064 l 602 1049 q 559 1004 589 1031 q 492 946 529 976 q 416 889 455 917 q 344 842 376 860 l 250 842 l 250 860 "},"ώ":{"x_min":65,"x_max":1046,"ha":1111,"o":"m 761 -14 q 686 -3 718 -14 q 630 25 654 6 q 587 71 605 44 q 554 133 569 99 q 521 71 539 99 q 479 25 503 44 q 423 -3 455 6 q 349 -14 392 -14 q 139 74 213 -14 q 65 341 65 163 q 78 465 65 407 q 118 577 92 524 q 180 678 144 630 q 262 770 216 725 l 360 706 q 323 630 339 669 q 297 548 307 592 q 283 453 288 504 q 279 338 279 402 q 289 223 279 271 q 317 146 300 175 q 356 103 334 116 q 398 89 377 89 q 466 120 439 89 q 503 220 493 151 q 486 278 493 253 q 474 326 478 304 q 467 369 469 348 q 465 412 465 390 q 488 499 465 473 q 555 526 511 526 q 622 499 599 526 q 645 412 645 473 q 643 369 645 390 q 636 327 640 349 q 624 280 631 306 q 607 222 617 254 q 644 121 617 152 q 712 89 672 89 q 755 103 734 89 q 794 146 776 116 q 821 223 811 175 q 832 338 832 271 q 827 453 832 402 q 813 548 822 504 q 787 630 803 592 q 750 706 772 669 l 848 770 q 930 678 894 725 q 992 577 967 630 q 1032 465 1018 524 q 1046 341 1046 407 q 972 74 1046 163 q 761 -14 898 -14 m 486 860 q 500 907 492 881 q 515 960 507 932 q 529 1014 522 987 q 539 1064 535 1041 l 729 1064 l 729 1050 q 702 1001 719 1028 q 666 947 686 974 q 624 892 646 919 q 582 842 602 865 l 486 842 l 486 860 "},"˘":{"x_min":178,"x_max":623,"ha":802,"o":"m 400 842 q 304 861 345 842 q 235 911 263 880 q 193 981 207 942 q 178 1060 179 1020 l 269 1060 q 315 987 281 1009 q 400 965 348 965 q 485 987 451 965 q 530 1060 519 1009 l 623 1060 q 607 981 621 1020 q 565 911 593 942 q 496 861 537 880 q 400 842 455 842 "},"D":{"x_min":38.453125,"x_max":988,"ha":1065,"o":"m 988 514 q 956 305 988 400 q 863 143 925 211 q 709 37 801 75 q 496 0 617 0 l 38 0 l 38 73 l 96 73 q 125 76 112 73 q 147 89 138 80 q 162 116 157 99 q 168 164 168 134 l 168 833 q 162 878 168 861 q 147 903 157 895 q 124 915 137 912 q 96 918 111 918 l 38 918 l 38 992 l 496 992 q 703 961 611 992 q 857 871 794 931 q 954 721 920 811 q 988 514 988 632 m 753 514 q 680 810 753 713 q 466 907 607 907 l 387 907 l 387 86 l 464 86 q 590 115 536 86 q 680 200 644 145 q 735 335 716 256 q 753 514 753 414 "},"ł":{"x_min":23.703125,"x_max":465.234375,"ha":489,"o":"m 39 73 q 72 76 55 73 q 104 89 90 80 q 129 116 119 99 q 139 164 139 134 l 139 366 l 37 310 l 37 404 l 139 462 l 139 896 q 129 941 139 924 q 104 967 119 958 q 72 979 89 976 q 39 981 54 981 l 23 981 l 23 1055 l 349 1055 l 349 582 l 461 645 l 461 548 l 349 485 l 349 164 q 359 116 349 134 q 384 89 369 99 q 416 76 398 80 q 448 73 434 73 l 465 73 l 465 0 l 23 0 l 23 73 l 39 73 "},"ĺ":{"x_min":23.703125,"x_max":506,"ha":489,"o":"m 39 73 q 72 76 55 73 q 104 89 90 80 q 129 116 119 99 q 139 164 139 134 l 139 897 q 129 941 139 924 q 104 967 119 958 q 72 979 89 976 q 39 981 54 981 l 23 981 l 23 1055 l 349 1055 l 349 164 q 359 116 349 134 q 384 89 369 99 q 416 76 398 80 q 448 73 434 73 l 465 73 l 465 0 l 23 0 l 23 73 l 39 73 m 154 1128 q 187 1173 168 1147 q 224 1226 205 1199 q 260 1281 243 1254 q 287 1332 276 1308 l 506 1332 l 506 1317 q 463 1272 493 1299 q 396 1214 433 1244 q 320 1157 359 1185 q 248 1110 280 1128 l 154 1110 l 154 1128 "},"ц":{"x_min":23.703125,"x_max":925,"ha":953,"o":"m 908 745 l 908 671 l 892 671 q 859 668 877 671 q 827 655 841 664 q 802 628 812 645 q 793 580 793 610 l 793 152 q 801 112 793 128 q 823 89 809 97 q 855 77 837 80 q 893 73 873 74 l 925 73 l 925 -292 l 829 -292 l 821 -190 q 805 -102 818 -138 q 775 -43 793 -65 q 735 -10 757 -20 q 691 0 714 0 l 23 0 l 23 73 l 39 73 q 72 76 54 73 q 104 88 89 79 q 129 114 119 97 q 139 158 139 130 l 139 580 q 129 628 139 610 q 104 655 119 645 q 72 668 90 664 q 39 671 55 671 l 23 671 l 23 745 l 437 745 l 437 671 l 434 671 q 404 668 420 671 q 375 655 388 664 q 352 628 361 645 q 343 580 343 610 l 343 79 l 588 79 l 588 586 q 579 630 588 614 q 556 656 570 647 q 526 668 542 665 q 497 671 510 671 l 494 671 l 494 745 l 908 745 "},"Л":{"x_min":0,"x_max":971.546875,"ha":1010,"o":"m 492 0 l 492 73 l 551 73 q 579 76 565 73 q 601 89 592 80 q 617 116 611 99 q 622 164 622 134 l 622 918 l 441 918 q 429 736 437 831 q 408 546 420 640 q 379 364 395 451 q 343 209 363 277 q 299 103 324 145 q 247 36 275 61 q 184 0 218 11 q 111 -10 149 -10 q 30 16 61 -10 q 0 93 0 43 q 5 132 0 114 q 21 161 11 149 q 42 180 30 173 q 67 186 54 186 q 84 140 67 159 q 128 121 101 121 q 171 130 151 121 q 207 158 190 138 q 238 214 224 179 q 267 302 253 249 q 290 402 279 347 q 308 514 300 457 q 323 627 317 571 q 334 730 330 683 q 340 812 338 777 q 343 863 343 847 q 334 893 343 882 q 310 910 325 904 q 274 917 294 916 q 231 918 254 918 l 210 918 l 210 992 l 971 992 l 971 918 l 913 918 q 885 915 898 918 q 862 903 872 912 q 847 875 852 893 q 842 828 842 857 l 842 156 q 847 112 842 128 q 863 87 853 96 q 886 76 873 79 q 913 73 898 73 l 971 73 l 971 0 l 492 0 "},"$":{"x_min":67,"x_max":707,"ha":777,"o":"m 433 1055 l 433 950 q 539 936 494 948 q 613 906 584 925 q 657 863 643 887 q 671 811 671 839 q 633 738 671 767 q 518 710 595 710 q 513 754 518 730 q 498 800 508 778 q 472 840 488 822 q 433 868 456 858 l 433 597 q 448 591 437 595 q 467 583 460 586 q 577 531 531 558 q 651 474 622 505 q 693 406 680 443 q 707 326 707 370 q 688 228 707 273 q 634 148 669 183 q 548 92 599 114 q 433 62 497 70 l 433 -110 l 355 -110 l 355 60 q 220 80 275 62 q 131 126 165 98 q 81 188 96 154 q 67 254 67 222 q 78 306 67 285 q 107 340 89 327 q 149 359 126 353 q 197 365 172 365 q 209 272 197 313 q 241 203 220 232 q 290 156 261 174 q 355 133 319 139 l 355 433 l 331 443 q 220 498 264 470 q 148 557 175 525 q 109 625 121 588 q 98 706 98 662 q 116 798 98 757 q 169 871 135 840 q 250 922 203 902 q 355 949 298 942 l 355 1055 l 433 1055 m 542 264 q 514 339 542 308 q 433 398 487 370 l 433 136 q 513 182 485 148 q 542 264 542 217 m 260 765 q 264 729 260 746 q 279 697 268 712 q 308 665 290 681 q 355 635 327 650 l 355 875 q 287 840 314 867 q 260 765 260 812 "},"w":{"x_min":-4.40625,"x_max":1190.078125,"ha":1189,"o":"m 686 737 l 821 327 q 846 242 838 277 q 858 181 853 207 l 862 181 q 868 215 865 199 q 876 247 871 230 q 886 284 880 264 q 899 330 891 304 l 960 533 q 970 571 966 550 q 973 603 973 591 q 951 654 973 638 q 881 671 928 671 l 871 671 l 871 745 l 1190 745 l 1190 671 l 1172 671 q 1137 667 1152 671 q 1110 651 1122 662 q 1089 617 1099 639 q 1068 562 1078 596 l 888 0 l 739 0 l 587 461 l 427 0 l 276 0 l 98 597 q 81 633 90 619 q 61 656 72 648 q 34 667 49 664 q 0 671 20 671 l -4 671 l -4 745 l 402 745 l 402 671 l 384 671 q 321 659 342 671 q 300 612 300 647 q 304 584 300 601 q 312 553 308 568 l 363 372 q 376 320 370 347 q 388 269 382 294 q 398 221 393 244 q 405 181 402 199 l 409 181 q 425 253 415 216 q 454 341 436 290 l 595 737 l 686 737 "},"о":{"x_min":65,"x_max":786,"ha":851,"o":"m 786 374 q 694 82 786 178 q 423 -14 602 -14 q 273 10 340 -14 q 160 82 207 34 q 89 203 114 130 q 65 374 65 277 q 156 666 65 570 q 427 762 248 762 q 577 738 511 762 q 690 666 643 714 q 761 545 736 618 q 786 374 786 472 m 280 374 q 288 244 280 300 q 313 150 296 188 q 358 92 330 112 q 426 73 386 73 q 494 92 466 73 q 538 150 521 112 q 563 244 556 188 q 571 374 571 300 q 563 505 571 449 q 538 598 555 561 q 492 654 520 635 q 425 673 465 673 q 357 654 385 673 q 312 598 329 635 q 288 505 295 561 q 280 374 280 449 "},"Д":{"x_min":11,"x_max":949,"ha":983,"o":"m 455 907 q 444 766 455 838 q 414 621 433 694 q 370 476 395 548 q 317 335 345 404 q 260 203 289 266 q 204 84 231 139 l 587 84 l 587 907 l 455 907 m 96 84 q 193 288 146 184 q 275 491 240 391 q 333 686 311 592 q 355 861 355 781 q 344 892 355 880 q 317 909 334 903 q 279 917 300 915 q 234 918 257 918 l 230 918 l 230 992 l 922 992 l 922 918 l 904 918 q 867 915 884 918 q 836 902 849 912 q 814 874 822 892 q 807 825 807 856 l 807 184 q 816 132 807 151 q 840 102 825 112 q 876 88 855 91 q 921 84 897 84 l 949 84 l 949 -292 l 857 -292 q 847 -159 857 -214 q 816 -68 837 -104 q 761 -16 795 -33 q 679 0 727 0 l 280 0 q 199 -16 232 0 q 144 -68 165 -33 q 113 -159 122 -104 q 103 -292 103 -214 l 11 -292 l 11 84 l 96 84 "},"Ç":{"x_min":77,"x_max":872,"ha":928,"o":"m 590 96 q 680 108 640 96 q 751 139 720 120 q 805 182 782 158 q 846 228 829 205 q 864 203 857 220 q 870 169 870 186 q 855 107 870 139 q 802 48 839 75 q 705 3 766 21 q 556 -14 645 -14 q 346 22 436 -14 q 196 126 255 59 q 106 288 136 193 q 77 497 77 382 q 107 703 77 609 q 197 864 138 796 q 347 968 257 931 q 555 1006 437 1006 q 694 993 635 1006 q 793 959 754 980 q 852 908 832 937 q 872 844 872 878 q 860 796 872 818 q 827 758 849 774 q 772 733 805 742 q 698 723 740 723 q 690 792 698 758 q 665 854 683 826 q 618 899 647 882 q 546 917 589 917 q 434 889 480 917 q 362 807 389 861 q 322 675 334 754 q 310 497 310 597 q 325 321 310 396 q 373 195 340 245 q 459 121 406 146 q 590 96 512 96 m 653 -175 q 638 -241 653 -211 q 598 -291 624 -270 q 536 -323 572 -312 q 456 -334 500 -334 q 429 -332 445 -334 q 397 -329 414 -331 q 364 -324 380 -327 q 335 -318 347 -321 l 335 -233 q 385 -241 360 -239 q 429 -244 410 -244 q 491 -230 469 -244 q 514 -180 514 -216 q 506 -147 514 -160 q 484 -126 499 -134 q 451 -115 470 -118 q 410 -110 432 -111 l 439 12 l 518 12 l 504 -47 q 565 -60 538 -50 q 612 -86 593 -70 q 642 -125 631 -102 q 653 -175 653 -148 "},"Ŝ":{"x_min":41.203125,"x_max":745,"ha":814,"o":"m 366 -14 q 210 3 273 -14 q 110 49 148 21 q 57 111 73 76 q 41 179 41 146 q 54 240 41 215 q 89 280 67 264 q 139 302 111 295 q 198 309 168 309 q 212 204 198 249 q 252 129 227 159 q 312 83 277 99 q 388 68 347 68 q 461 80 429 68 q 515 112 493 91 q 549 160 538 132 q 561 219 561 187 q 546 282 561 254 q 503 333 532 309 q 431 377 474 356 q 329 423 387 399 q 206 485 256 453 q 126 553 156 516 q 82 632 95 590 q 69 726 69 675 q 94 841 69 790 q 166 930 120 893 q 273 986 211 966 q 409 1006 336 1006 q 542 993 486 1006 q 634 959 597 980 q 688 908 670 937 q 705 844 705 878 q 695 799 705 820 q 663 762 684 778 q 609 738 641 746 q 534 729 577 729 q 526 792 534 758 q 501 854 519 825 q 455 902 483 883 q 387 921 427 921 q 334 913 359 921 q 290 888 309 904 q 260 848 271 872 q 250 792 250 824 q 259 737 250 763 q 294 687 269 712 q 364 637 320 662 q 479 584 408 613 q 601 524 550 555 q 683 459 651 494 q 730 382 715 424 q 745 289 745 340 q 718 166 745 222 q 642 70 692 110 q 523 8 592 30 q 366 -14 453 -14 m 167 1089 q 205 1134 183 1108 q 249 1187 227 1160 q 290 1242 270 1215 q 320 1293 309 1269 l 507 1293 q 537 1242 518 1269 q 578 1187 556 1215 q 622 1134 600 1160 q 660 1089 643 1108 l 660 1071 l 564 1071 q 530 1098 550 1082 q 489 1130 510 1113 q 448 1164 468 1147 q 413 1195 428 1181 q 377 1164 397 1181 q 336 1130 357 1147 q 296 1098 316 1113 q 263 1071 277 1082 l 167 1071 l 167 1089 "},"C":{"x_min":77,"x_max":872,"ha":928,"o":"m 590 96 q 680 108 640 96 q 751 139 720 120 q 805 182 782 158 q 846 228 829 205 q 864 203 857 220 q 870 169 870 186 q 855 107 870 139 q 802 48 839 75 q 705 3 766 21 q 556 -14 645 -14 q 346 22 436 -14 q 196 126 255 59 q 106 288 136 193 q 77 497 77 382 q 107 703 77 609 q 197 864 138 796 q 347 968 257 931 q 555 1006 437 1006 q 694 993 635 1006 q 793 959 754 980 q 852 908 832 937 q 872 844 872 878 q 860 796 872 818 q 827 758 849 774 q 772 733 805 742 q 698 723 740 723 q 690 792 698 758 q 665 854 683 826 q 618 899 647 882 q 546 917 589 917 q 434 889 480 917 q 362 807 389 861 q 322 675 334 754 q 310 497 310 597 q 325 321 310 396 q 373 195 340 245 q 459 121 406 146 q 590 96 512 96 "},"Ḁ":{"x_min":5.8125,"x_max":1046.21875,"ha":1046,"o":"m 303 326 l 262 206 q 251 167 257 189 q 245 127 245 144 q 251 103 245 113 q 265 87 256 93 q 285 77 274 80 q 308 73 296 73 l 367 73 l 367 0 l 5 0 l 5 73 l 22 73 q 56 77 41 73 q 84 93 71 82 q 109 124 98 104 q 134 175 121 143 l 435 992 l 625 992 l 916 173 q 937 125 926 144 q 961 94 948 105 q 989 78 975 83 q 1021 73 1004 73 l 1046 73 l 1046 0 l 587 0 l 587 73 l 642 73 q 663 76 652 73 q 682 86 673 80 q 696 103 690 92 q 701 127 701 113 q 697 160 701 144 q 689 187 693 175 l 640 326 l 303 326 m 539 639 q 524 689 532 662 q 508 742 516 715 q 493 796 500 769 q 481 847 486 823 q 467 801 475 826 q 449 749 458 776 q 431 696 440 723 q 414 645 422 670 l 332 411 l 612 411 l 539 639 m 670 -236 q 657 -301 670 -273 q 621 -348 644 -329 q 568 -377 598 -367 q 503 -387 537 -387 q 437 -377 468 -387 q 384 -348 407 -367 q 348 -301 361 -329 q 336 -236 336 -273 q 348 -171 336 -199 q 384 -123 361 -142 q 437 -94 407 -104 q 503 -85 468 -85 q 568 -94 537 -85 q 621 -123 598 -104 q 657 -171 644 -142 q 670 -236 670 -199 m 585 -236 q 578 -201 585 -215 q 561 -178 572 -187 q 534 -165 549 -169 q 503 -161 519 -161 q 471 -165 486 -161 q 444 -178 456 -169 q 427 -201 433 -187 q 420 -236 420 -215 q 427 -270 420 -256 q 444 -293 433 -284 q 471 -306 456 -302 q 503 -311 486 -311 q 534 -306 519 -311 q 561 -293 549 -302 q 578 -270 572 -284 q 585 -236 585 -256 "},"Ĵ":{"x_min":-54.078125,"x_max":501,"ha":511,"o":"m 495 918 l 437 918 q 409 915 422 918 q 386 903 396 912 q 371 876 377 893 q 365 828 365 858 l 365 -2 q 351 -114 365 -65 q 312 -200 337 -163 q 252 -263 287 -237 q 176 -304 217 -288 q 89 -326 135 -319 q -3 -334 43 -334 l -54 -334 l -54 -253 l -28 -253 q 35 -240 4 -253 q 91 -199 67 -228 q 131 -121 116 -169 q 146 -4 146 -74 l 146 833 q 140 878 146 861 q 125 903 135 895 q 102 915 115 912 q 75 918 89 918 l 17 918 l 17 992 l 495 992 l 495 918 m 8 1089 q 46 1134 24 1108 q 90 1187 68 1160 q 131 1242 111 1215 q 161 1293 150 1269 l 348 1293 q 378 1242 359 1269 q 419 1187 397 1215 q 463 1134 441 1160 q 501 1089 484 1108 l 501 1071 l 405 1071 q 371 1098 391 1082 q 330 1130 351 1113 q 289 1164 309 1147 q 254 1195 269 1181 q 218 1164 238 1181 q 177 1130 198 1147 q 137 1098 157 1113 q 104 1071 118 1082 l 8 1071 l 8 1089 "},"È":{"x_min":38.453125,"x_max":863,"ha":907,"o":"m 388 84 l 666 84 q 702 92 687 84 q 728 114 717 100 q 745 148 739 128 q 755 190 752 167 l 766 256 l 863 256 l 852 0 l 38 0 l 38 73 l 96 73 q 124 76 111 73 q 147 87 137 79 q 162 112 157 96 q 168 156 168 129 l 168 828 q 162 876 168 858 q 147 903 157 893 q 125 915 138 912 q 96 918 112 918 l 38 918 l 38 992 l 809 992 l 815 736 l 718 736 l 711 801 q 685 880 705 852 q 622 907 665 907 l 388 907 l 388 560 l 718 560 l 718 476 l 388 476 l 388 84 m 467 1071 q 395 1118 435 1089 q 318 1175 355 1146 q 251 1233 281 1205 q 209 1278 221 1260 l 209 1293 l 426 1293 q 454 1242 437 1269 q 490 1187 471 1215 q 528 1134 508 1160 q 562 1089 547 1108 l 562 1071 l 467 1071 "},"ﬁ":{"x_min":26.140625,"x_max":975.296875,"ha":999,"o":"m 550 73 q 582 76 564 73 q 614 89 599 80 q 638 116 628 99 q 648 164 648 134 l 648 650 l 366 650 l 366 164 q 376 116 366 134 q 400 89 386 99 q 432 76 415 80 q 464 73 450 73 l 502 73 l 502 0 l 26 0 l 26 73 l 56 73 q 88 76 71 73 q 120 89 106 80 q 145 116 135 99 q 155 164 155 134 l 155 650 l 31 650 l 31 745 l 155 745 l 155 753 q 177 886 155 828 q 245 985 199 945 q 362 1047 291 1026 q 530 1068 432 1068 q 676 1059 617 1068 q 770 1036 734 1051 q 822 997 806 1020 q 838 945 838 975 q 826 898 838 919 q 790 861 814 876 q 726 837 765 846 q 632 829 687 829 q 627 875 632 848 q 607 928 621 903 q 567 971 593 953 q 502 988 542 988 q 400 946 435 988 q 366 811 366 903 l 366 745 l 860 745 l 860 164 q 869 116 860 134 q 894 89 879 99 q 926 76 908 80 q 958 73 943 73 l 975 73 l 975 0 l 533 0 l 533 73 l 550 73 "},"X":{"x_min":13.71875,"x_max":1003.546875,"ha":1017,"o":"m 727 878 q 720 898 727 890 q 704 910 714 906 q 679 917 693 915 q 649 918 665 918 l 645 918 l 645 992 l 970 992 l 970 918 l 957 918 q 921 913 937 918 q 888 896 904 908 q 856 865 872 884 q 820 818 840 846 l 618 543 l 874 147 q 930 89 901 104 q 985 73 959 73 l 1003 73 l 1003 0 l 545 0 l 545 73 l 551 73 q 635 119 635 73 q 633 134 635 127 q 627 152 632 142 q 613 177 622 162 q 588 215 604 192 l 461 408 l 311 205 q 287 165 298 187 q 275 120 275 142 q 294 85 275 97 q 359 73 313 73 l 364 73 l 364 0 l 13 0 l 13 73 l 22 73 q 66 80 47 73 q 102 100 85 87 q 134 130 118 112 q 167 170 150 148 l 410 487 l 181 844 q 158 877 169 863 q 133 900 147 890 q 102 914 119 909 q 61 918 85 918 l 43 918 l 43 992 l 503 992 l 503 918 l 499 918 q 459 915 475 918 q 433 906 443 912 q 420 893 424 901 q 417 878 417 886 q 427 842 417 863 q 453 796 437 820 l 568 624 l 689 793 q 714 835 701 812 q 727 878 727 859 "},"ô":{"x_min":65,"x_max":786,"ha":851,"o":"m 786 374 q 694 82 786 178 q 423 -14 602 -14 q 273 10 340 -14 q 160 82 207 34 q 89 203 114 130 q 65 374 65 277 q 156 666 65 570 q 427 762 248 762 q 577 738 511 762 q 690 666 643 714 q 761 545 736 618 q 786 374 786 472 m 280 374 q 288 244 280 300 q 313 150 296 188 q 358 92 330 112 q 426 73 386 73 q 494 92 466 73 q 538 150 521 112 q 563 244 556 188 q 571 374 571 300 q 563 505 571 449 q 538 598 555 561 q 492 654 520 635 q 425 673 465 673 q 357 654 385 673 q 312 598 329 635 q 288 505 295 561 q 280 374 280 449 m 178 860 q 216 905 194 879 q 260 958 238 931 q 301 1013 281 986 q 331 1064 320 1040 l 518 1064 q 548 1013 529 1040 q 589 958 567 986 q 633 905 611 931 q 671 860 654 879 l 671 842 l 575 842 q 541 869 561 853 q 500 901 521 884 q 459 935 479 918 q 424 966 439 952 q 388 935 408 952 q 347 901 368 918 q 307 869 327 884 q 274 842 288 853 l 178 842 l 178 860 "},"Ė":{"x_min":38.453125,"x_max":863,"ha":907,"o":"m 388 84 l 666 84 q 702 92 687 84 q 728 114 717 100 q 745 148 739 128 q 755 190 752 167 l 766 256 l 863 256 l 852 0 l 38 0 l 38 73 l 96 73 q 124 76 111 73 q 147 87 137 79 q 162 112 157 96 q 168 156 168 129 l 168 828 q 162 876 168 858 q 147 903 157 893 q 125 915 138 912 q 96 918 112 918 l 38 918 l 38 992 l 809 992 l 815 736 l 718 736 l 711 801 q 685 880 705 852 q 622 907 665 907 l 388 907 l 388 560 l 718 560 l 718 476 l 388 476 l 388 84 m 342 1179 q 351 1224 342 1205 q 376 1255 360 1243 q 413 1273 392 1267 q 460 1279 434 1279 q 505 1273 483 1279 q 543 1255 527 1267 q 569 1224 559 1243 q 579 1179 579 1205 q 569 1134 579 1153 q 543 1103 559 1115 q 505 1085 527 1091 q 460 1079 483 1079 q 413 1085 434 1079 q 376 1103 392 1091 q 351 1134 360 1115 q 342 1179 342 1153 "},"г":{"x_min":23.703125,"x_max":677,"ha":705,"o":"m 349 164 q 359 116 349 134 q 381 89 368 99 q 411 76 395 80 q 441 73 427 73 l 472 73 l 472 0 l 23 0 l 23 73 l 39 73 q 72 76 55 73 q 104 89 90 80 q 129 116 119 99 q 139 164 139 134 l 139 580 q 129 628 139 610 q 104 655 119 645 q 72 668 90 664 q 39 671 55 671 l 23 671 l 23 745 l 677 745 l 677 509 l 581 509 l 574 568 q 564 620 571 601 q 546 650 557 639 q 518 662 535 660 q 477 665 501 665 l 349 665 l 349 164 "},"Ŀ":{"x_min":38.453125,"x_max":863,"ha":908,"o":"m 38 0 l 38 73 l 96 73 q 125 76 112 73 q 147 89 138 80 q 162 116 157 99 q 168 164 168 134 l 168 828 q 162 876 168 858 q 147 903 157 893 q 125 915 138 912 q 96 918 112 918 l 38 918 l 38 992 l 517 992 l 517 918 l 459 918 q 432 915 445 918 q 409 903 418 912 q 394 878 399 895 q 388 833 388 861 l 388 84 l 647 84 q 723 115 696 84 q 762 205 750 146 l 785 310 l 863 310 l 852 0 l 38 0 m 513 515 q 522 560 513 541 q 547 591 531 579 q 584 609 563 603 q 631 615 605 615 q 676 609 654 615 q 714 591 698 603 q 740 560 730 579 q 750 515 750 541 q 740 470 750 489 q 714 439 730 451 q 676 421 698 427 q 631 415 654 415 q 584 421 605 415 q 547 439 563 427 q 522 470 531 451 q 513 515 513 489 "},"х":{"x_min":15.59375,"x_max":887.515625,"ha":897,"o":"m 604 629 q 584 662 604 654 q 532 671 565 671 l 528 671 l 528 745 l 849 745 l 849 671 l 837 671 q 801 667 816 671 q 769 653 785 663 q 736 626 753 643 q 696 582 719 609 l 553 407 l 757 147 q 816 90 789 107 q 869 73 843 73 l 887 73 l 887 0 l 445 0 l 445 73 l 452 73 q 536 119 536 73 q 534 135 536 127 q 526 154 532 143 q 510 180 521 165 q 483 215 500 194 l 404 311 l 307 190 q 286 156 294 173 q 278 120 278 138 q 297 85 278 97 q 364 73 317 73 l 368 73 l 368 0 l 15 0 l 15 73 l 27 73 q 71 78 52 73 q 107 92 90 82 q 141 120 124 103 q 179 162 158 137 l 353 373 l 179 597 q 120 652 149 634 q 59 671 91 671 l 41 671 l 41 745 l 478 745 l 478 671 l 473 671 q 434 668 449 671 q 410 659 419 664 q 398 646 401 654 q 394 631 394 639 q 402 602 394 616 q 426 567 409 588 l 503 472 l 569 551 q 594 591 585 572 q 604 629 604 610 "},"ŋ":{"x_min":27.78125,"x_max":792,"ha":922,"o":"m 436 -247 l 444 -247 q 502 -235 477 -247 q 545 -194 528 -223 q 571 -118 562 -166 q 581 0 581 -71 l 581 456 q 575 536 581 501 q 556 595 569 571 q 521 631 543 618 q 470 643 500 643 q 412 626 435 643 q 375 579 389 608 q 356 510 362 549 q 349 429 349 471 l 349 164 q 357 117 349 134 q 377 89 364 99 q 408 76 389 80 q 450 73 427 73 l 454 73 l 454 0 l 27 0 l 27 73 l 30 73 q 73 76 54 73 q 108 90 93 80 q 130 119 122 100 q 139 169 139 138 l 139 580 q 131 627 139 610 q 111 655 124 645 q 80 668 98 664 q 38 671 61 671 l 34 671 l 34 745 l 326 745 l 344 645 l 351 645 q 395 707 372 684 q 445 743 418 730 q 501 758 471 755 q 563 762 530 762 q 659 746 616 762 q 731 698 701 730 q 776 615 760 665 q 792 494 792 564 l 792 -10 q 767 -166 792 -104 q 699 -265 743 -228 q 595 -318 655 -302 q 463 -334 534 -334 l 436 -334 l 436 -247 "},"Ч":{"x_min":26.703125,"x_max":1043.875,"ha":1083,"o":"m 915 164 q 920 116 915 134 q 935 89 925 99 q 957 76 944 80 q 985 73 970 73 l 1043 73 l 1043 0 l 565 0 l 565 73 l 623 73 q 651 76 638 73 q 673 89 664 80 q 688 116 683 99 q 693 164 693 134 l 693 402 q 652 386 676 395 q 597 370 628 378 q 529 358 566 363 q 446 354 491 354 q 320 368 376 354 q 224 417 263 383 q 163 510 184 452 q 142 654 142 568 l 142 828 q 136 875 142 858 q 121 903 131 893 q 99 915 112 912 q 70 918 86 918 l 26 918 l 26 992 l 491 992 l 491 918 l 433 918 q 405 915 418 918 q 383 903 392 912 q 368 875 373 893 q 363 828 363 858 l 363 658 q 372 566 363 603 q 401 506 382 529 q 452 474 421 484 q 526 465 482 465 q 577 468 552 465 q 624 476 602 472 q 663 487 645 481 q 693 498 681 493 l 693 828 q 688 875 693 858 q 673 903 683 893 q 651 915 664 912 q 623 918 638 918 l 565 918 l 565 992 l 1043 992 l 1043 918 l 985 918 q 957 915 970 918 q 935 903 944 912 q 920 876 925 893 q 915 828 915 858 l 915 164 "},"ü":{"x_min":36.34375,"x_max":891.4375,"ha":926,"o":"m 614 0 l 584 97 l 577 97 q 532 39 556 61 q 479 6 507 17 q 421 -9 452 -5 q 358 -14 390 -14 q 191 53 249 -14 q 134 260 134 120 l 134 572 q 128 622 134 603 q 111 652 123 641 q 82 667 100 662 q 39 671 64 671 l 36 671 l 36 745 l 344 745 l 344 299 q 349 218 344 254 q 367 157 355 182 q 399 117 379 131 q 450 104 419 104 q 507 118 483 104 q 546 160 531 133 q 568 227 561 188 q 576 315 576 266 l 576 582 q 567 630 576 612 q 546 657 559 647 q 514 668 532 666 q 475 671 496 671 l 471 671 l 471 745 l 787 745 l 787 161 q 794 113 787 130 q 813 87 801 96 q 842 76 825 78 q 879 73 859 73 l 891 73 l 891 0 l 614 0 m 226 955 q 232 995 226 978 q 250 1022 239 1011 q 276 1036 261 1032 q 307 1041 291 1041 q 338 1036 324 1041 q 365 1022 353 1032 q 383 995 376 1011 q 391 955 391 978 q 383 915 391 931 q 365 888 376 898 q 338 873 353 878 q 307 869 324 869 q 276 873 291 869 q 250 888 261 878 q 232 915 239 898 q 226 955 226 931 m 511 955 q 517 995 511 978 q 536 1022 524 1011 q 562 1036 547 1032 q 594 1041 577 1041 q 624 1036 609 1041 q 650 1022 638 1032 q 668 995 661 1011 q 676 955 676 978 q 668 915 676 931 q 650 888 661 898 q 624 873 638 878 q 594 869 609 869 q 562 873 577 869 q 536 888 547 878 q 517 915 524 898 q 511 955 511 931 "},"ь":{"x_min":23.703125,"x_max":803,"ha":838,"o":"m 482 745 l 482 665 l 463 665 q 420 661 440 665 q 383 647 399 657 q 359 621 368 637 q 349 580 349 605 l 349 424 l 483 424 q 605 416 547 424 q 707 386 663 408 q 777 323 751 364 q 803 218 803 283 q 783 131 803 171 q 725 62 764 91 q 628 16 687 33 q 490 0 569 0 l 23 0 l 23 73 l 38 73 q 114 96 90 73 q 139 162 139 118 l 139 580 q 113 650 139 629 q 38 671 88 671 l 23 671 l 23 745 l 482 745 m 454 80 q 513 88 488 80 q 552 112 537 96 q 574 156 567 129 q 581 222 581 183 q 546 315 581 288 q 448 343 512 343 l 349 343 l 349 80 l 454 80 "},"Ÿ":{"x_min":0.34375,"x_max":962.5625,"ha":962,"o":"m 228 0 l 228 73 l 293 73 q 324 75 310 73 q 350 86 339 77 q 367 111 361 94 q 374 157 374 128 l 374 351 l 117 844 q 97 879 106 865 q 77 902 88 893 q 52 914 66 910 q 18 918 39 918 l 0 918 l 0 992 l 465 992 l 465 918 l 441 918 q 379 901 399 918 q 358 856 358 884 q 364 817 358 838 q 379 779 371 797 l 482 575 q 518 496 504 530 q 543 430 532 462 q 576 510 557 467 q 618 600 595 553 l 698 766 q 718 817 713 797 q 722 850 722 838 q 699 902 722 886 q 630 918 677 918 l 599 918 l 599 992 l 962 992 l 962 918 l 936 918 q 905 913 918 918 q 882 897 893 909 q 859 863 871 884 q 831 810 847 842 l 595 349 l 595 159 q 601 112 595 129 q 617 86 607 95 q 642 75 628 77 q 672 73 656 73 l 740 73 l 740 0 l 228 0 m 272 1184 q 278 1224 272 1207 q 296 1251 285 1240 q 322 1265 307 1261 q 353 1270 337 1270 q 384 1265 370 1270 q 411 1251 399 1261 q 429 1224 422 1240 q 437 1184 437 1207 q 429 1144 437 1160 q 411 1117 422 1127 q 384 1102 399 1107 q 353 1098 370 1098 q 322 1102 337 1098 q 296 1117 307 1107 q 278 1144 285 1127 q 272 1184 272 1160 m 557 1184 q 563 1224 557 1207 q 582 1251 570 1240 q 608 1265 593 1261 q 640 1270 623 1270 q 670 1265 655 1270 q 696 1251 684 1261 q 714 1224 707 1240 q 722 1184 722 1207 q 714 1144 722 1160 q 696 1117 707 1127 q 670 1102 684 1107 q 640 1098 655 1098 q 608 1102 623 1098 q 582 1117 593 1107 q 563 1144 570 1127 q 557 1184 557 1160 "},"€":{"x_min":37.0625,"x_max":753,"ha":777,"o":"m 500 -14 q 365 6 428 -14 q 252 72 302 27 q 167 190 202 118 q 119 368 133 263 l 37 368 l 37 454 l 111 454 l 111 496 l 111 539 l 37 539 l 37 626 l 117 626 q 163 806 130 734 q 247 922 197 878 q 359 984 296 966 q 490 1003 421 1003 q 600 990 552 1003 q 683 956 649 978 q 735 906 717 935 q 753 842 753 876 q 741 797 753 819 q 708 760 730 776 q 654 734 686 743 q 580 724 622 724 q 575 791 580 757 q 558 852 570 825 q 526 897 546 880 q 476 915 506 915 q 420 903 446 915 q 373 858 394 891 q 339 770 353 826 q 319 626 325 714 l 575 626 l 575 539 l 315 539 l 315 493 l 315 454 l 519 454 l 519 368 l 321 368 q 383 158 333 228 q 527 89 433 89 q 590 98 561 89 q 642 121 619 106 q 684 157 666 137 q 714 202 702 178 q 736 174 729 190 q 744 138 744 157 q 731 85 744 112 q 689 35 718 57 q 613 0 660 13 q 500 -14 567 -14 "},"в":{"x_min":23.703125,"x_max":803,"ha":863,"o":"m 23 73 l 39 73 q 72 76 55 73 q 104 89 90 80 q 129 116 119 99 q 139 164 139 134 l 139 586 q 129 630 139 614 q 104 656 119 647 q 72 668 89 665 q 39 671 54 671 l 23 671 l 23 745 l 461 745 q 690 699 616 745 q 765 567 765 654 q 752 494 765 525 q 719 441 740 463 q 668 407 697 419 q 602 390 638 394 l 602 383 q 679 368 642 379 q 742 335 715 356 q 786 282 770 314 q 803 206 803 251 q 785 123 803 161 q 730 57 767 84 q 637 15 693 30 q 502 0 580 0 l 23 0 l 23 73 m 448 79 q 509 85 484 79 q 550 106 534 91 q 574 148 566 122 q 581 216 581 175 q 572 277 581 253 q 545 316 563 301 q 501 337 527 331 q 441 343 475 343 l 349 343 l 349 79 l 448 79 m 556 551 q 551 600 556 578 q 531 636 545 621 q 496 658 518 650 q 442 665 474 665 l 349 665 l 349 424 l 442 424 q 531 457 505 424 q 556 551 556 491 "},"Η":{"x_min":38.453125,"x_max":1097.859375,"ha":1137,"o":"m 618 0 l 618 73 l 678 73 q 705 76 692 73 q 728 89 718 80 q 743 116 738 99 q 749 164 749 134 l 749 475 l 387 475 l 387 164 q 392 116 387 134 q 408 89 398 99 q 430 76 417 80 q 458 73 443 73 l 517 73 l 517 0 l 38 0 l 38 73 l 96 73 q 124 76 111 73 q 147 89 137 80 q 162 116 157 99 q 168 164 168 134 l 168 833 q 162 877 168 861 q 146 903 156 894 q 123 915 136 911 q 96 918 111 918 l 38 918 l 38 992 l 517 992 l 517 918 l 458 918 q 430 915 443 918 q 408 902 417 911 q 392 875 398 892 q 387 827 387 857 l 387 560 l 749 560 l 749 827 q 743 875 749 857 q 728 902 738 892 q 705 915 718 911 q 678 918 692 918 l 618 918 l 618 992 l 1097 992 l 1097 918 l 1039 918 q 1012 915 1025 918 q 989 902 999 911 q 974 875 979 892 q 969 827 969 857 l 969 156 q 974 112 969 129 q 990 87 980 96 q 1012 76 1000 79 q 1039 73 1025 73 l 1097 73 l 1097 0 l 618 0 "},"С":{"x_min":77,"x_max":872,"ha":928,"o":"m 590 96 q 680 108 640 96 q 751 139 720 120 q 805 182 782 158 q 846 228 829 205 q 864 203 857 220 q 870 169 870 186 q 855 107 870 139 q 802 48 839 75 q 705 3 766 21 q 556 -14 645 -14 q 346 22 436 -14 q 196 126 255 59 q 106 288 136 193 q 77 497 77 382 q 107 703 77 609 q 197 864 138 796 q 347 968 257 931 q 555 1006 437 1006 q 694 993 635 1006 q 793 959 754 980 q 852 908 832 937 q 872 844 872 878 q 860 796 872 818 q 827 758 849 774 q 772 733 805 742 q 698 723 740 723 q 690 792 698 758 q 665 854 683 826 q 618 899 647 882 q 546 917 589 917 q 434 889 480 917 q 362 807 389 861 q 322 675 334 754 q 310 497 310 597 q 325 321 310 396 q 373 195 340 245 q 459 121 406 146 q 590 96 512 96 "},"ß":{"x_min":8.109375,"x_max":925,"ha":981,"o":"m 139 758 q 166 905 139 845 q 243 1001 194 964 q 357 1054 291 1038 q 499 1070 423 1070 q 663 1044 596 1070 q 772 970 730 1019 q 834 849 815 921 q 854 682 853 776 l 776 682 q 713 678 742 682 q 661 663 683 674 q 626 634 639 652 q 613 588 613 616 q 622 546 613 564 q 649 511 630 527 q 696 479 667 495 q 768 444 726 463 q 841 398 811 423 q 890 343 871 372 q 916 283 908 314 q 925 219 925 252 q 906 116 925 160 q 852 43 887 72 q 767 0 817 14 q 651 -14 716 -14 q 532 -1 588 -14 q 430 36 475 11 l 430 205 l 505 205 q 521 152 509 177 q 551 108 533 127 q 593 78 569 89 q 645 67 617 67 q 719 91 692 67 q 747 161 747 116 q 740 206 747 185 q 718 246 734 227 q 675 283 702 265 q 606 320 648 301 q 522 371 556 344 q 468 430 488 399 q 440 495 448 461 q 432 565 432 529 q 448 648 432 614 q 495 707 465 683 q 566 743 525 730 q 657 758 608 755 q 645 866 656 822 q 615 939 635 911 q 567 979 596 966 q 503 992 539 992 q 439 980 468 992 q 390 944 410 968 q 359 883 370 920 q 348 796 348 846 l 348 0 l 8 0 l 8 73 l 67 73 q 95 76 82 73 q 118 89 108 80 q 133 116 128 99 q 139 164 139 134 l 139 648 l 27 648 l 27 745 l 139 745 l 139 758 "},"њ":{"x_min":23.703125,"x_max":1245,"ha":1280,"o":"m 952 745 l 952 665 l 934 665 q 890 661 911 665 q 854 647 869 657 q 829 621 838 637 q 820 580 820 605 l 820 424 l 925 424 q 1047 416 990 424 q 1149 386 1105 408 q 1219 324 1193 364 q 1245 218 1245 283 q 1226 131 1245 171 q 1168 62 1207 91 q 1070 16 1129 33 q 932 0 1011 0 l 514 0 l 514 73 l 517 73 q 616 158 616 73 l 616 343 l 343 343 l 343 164 q 352 116 343 134 q 375 89 361 99 q 404 76 388 80 q 434 73 420 73 l 437 73 l 437 0 l 23 0 l 23 73 l 39 73 q 72 76 55 73 q 104 89 90 80 q 129 116 119 99 q 139 164 139 134 l 139 580 q 129 628 139 610 q 104 655 119 645 q 72 668 90 664 q 39 671 55 671 l 23 671 l 23 745 l 437 745 l 437 671 l 434 671 q 404 668 420 671 q 375 655 388 664 q 352 628 361 646 q 343 580 343 610 l 343 423 l 616 423 l 616 586 q 589 651 616 631 q 516 671 563 671 l 514 671 l 514 745 l 952 745 m 896 80 q 955 88 931 80 q 994 112 979 96 q 1016 156 1009 129 q 1023 222 1023 183 q 989 316 1023 288 q 891 343 954 343 l 820 343 l 820 80 l 896 80 "},"Ű":{"x_min":22.78125,"x_max":1015.21875,"ha":1038,"o":"m 1015 918 l 955 918 q 928 915 941 918 q 905 903 915 912 q 890 875 895 893 q 885 828 885 858 l 885 286 q 865 160 885 216 q 802 66 845 104 q 694 6 760 27 q 537 -14 628 -14 q 375 3 447 -14 q 254 58 304 20 q 179 156 205 96 q 153 302 153 216 l 153 833 q 147 878 153 861 q 131 903 141 894 q 109 915 121 912 q 82 918 96 918 l 22 918 l 22 992 l 501 992 l 501 918 l 443 918 q 416 915 429 918 q 393 903 403 912 q 378 875 383 893 q 372 828 372 858 l 372 291 q 387 193 372 233 q 428 129 401 153 q 494 94 456 105 q 579 84 531 84 q 662 96 625 84 q 726 133 699 108 q 766 197 752 158 q 780 288 780 235 l 780 833 q 775 878 780 861 q 759 903 769 894 q 737 915 750 912 q 710 918 724 918 l 651 918 l 651 992 l 1015 992 l 1015 918 m 338 1071 l 338 1089 q 368 1137 352 1111 q 400 1190 384 1163 q 430 1243 416 1217 q 455 1293 445 1269 l 633 1293 l 633 1278 q 612 1250 625 1266 q 582 1214 599 1233 q 545 1175 565 1195 q 506 1136 526 1155 q 468 1100 487 1117 q 434 1071 449 1083 l 338 1071 m 602 1071 l 602 1089 q 632 1137 616 1111 q 664 1190 648 1163 q 694 1243 680 1217 q 719 1293 708 1269 l 896 1293 l 896 1278 q 875 1250 888 1266 q 845 1214 862 1233 q 809 1175 828 1195 q 770 1136 789 1155 q 731 1100 750 1117 q 697 1071 713 1083 l 602 1071 "},"c":{"x_min":65,"x_max":681,"ha":732,"o":"m 409 -14 q 269 5 332 -14 q 160 70 206 25 q 90 189 115 116 q 65 369 65 262 q 91 557 65 481 q 163 677 117 632 q 271 742 208 723 q 405 762 333 762 q 524 750 472 762 q 610 719 575 739 q 663 673 645 700 q 681 616 681 646 q 673 572 681 593 q 645 534 665 551 q 590 508 625 518 q 501 498 555 498 q 496 566 501 534 q 482 623 492 599 q 454 662 472 648 q 410 677 437 677 q 356 662 380 677 q 314 612 332 648 q 288 518 297 577 q 279 370 279 459 q 317 159 279 229 q 444 89 356 89 q 511 98 480 89 q 569 121 543 106 q 614 157 594 137 q 645 202 633 178 q 670 174 662 192 q 679 138 679 157 q 663 85 679 112 q 614 35 647 57 q 531 0 581 13 q 409 -14 480 -14 "},"¶":{"x_min":56,"x_max":815.5625,"ha":871,"o":"m 583 969 l 466 969 l 466 -154 l 234 -154 l 234 -80 l 253 -80 q 297 -77 276 -80 q 333 -64 318 -74 q 357 -33 348 -53 q 367 18 367 -14 l 367 536 l 268 536 q 166 558 207 536 q 101 617 125 580 q 66 704 77 655 q 56 808 56 753 q 67 909 56 863 q 104 987 79 954 q 171 1037 130 1019 q 270 1055 211 1055 l 815 1055 l 815 981 l 797 981 q 753 978 774 981 q 717 964 732 974 q 692 934 701 953 q 684 881 684 914 l 684 18 q 692 -33 684 -14 q 717 -64 701 -53 q 753 -77 732 -74 q 797 -80 774 -80 l 815 -80 l 815 -154 l 583 -154 l 583 969 "},"Ή":{"x_min":-52,"x_max":1267.859375,"ha":1307,"o":"m 788 0 l 788 73 l 848 73 q 875 76 862 73 q 898 89 888 80 q 913 116 908 99 q 919 164 919 134 l 919 475 l 557 475 l 557 164 q 562 116 557 134 q 578 89 568 99 q 600 76 587 80 q 628 73 613 73 l 687 73 l 687 0 l 208 0 l 208 73 l 266 73 q 294 76 281 73 q 317 89 307 80 q 332 116 327 99 q 338 164 338 134 l 338 833 q 332 877 338 861 q 316 903 326 894 q 293 915 306 911 q 266 918 281 918 l 208 918 l 208 992 l 687 992 l 687 918 l 628 918 q 600 915 613 918 q 578 902 587 911 q 562 875 568 892 q 557 827 557 857 l 557 560 l 919 560 l 919 827 q 913 875 919 857 q 898 902 908 892 q 875 915 888 911 q 848 918 862 918 l 788 918 l 788 992 l 1267 992 l 1267 918 l 1209 918 q 1182 915 1195 918 q 1159 902 1169 911 q 1144 875 1149 892 q 1139 827 1139 857 l 1139 156 q 1144 112 1139 129 q 1160 87 1150 96 q 1182 76 1170 79 q 1209 73 1195 73 l 1267 73 l 1267 0 l 788 0 m -52 788 q -37 835 -45 809 q -22 888 -30 861 q -8 943 -15 916 q 1 993 -2 969 l 191 993 l 191 978 q 164 930 181 957 q 128 875 148 903 q 86 820 108 847 q 44 770 64 793 l -52 770 l -52 788 "},"Ὅ":{"x_min":-289.125,"x_max":1040,"ha":1117,"o":"m 1040 496 q 1009 287 1040 382 q 918 126 978 193 q 771 22 858 59 q 571 -14 684 -14 q 364 22 452 -14 q 217 126 275 59 q 130 288 159 193 q 101 498 101 382 q 130 707 101 613 q 217 867 159 801 q 364 970 276 934 q 572 1007 453 1007 q 772 970 685 1007 q 918 867 859 934 q 1009 706 978 800 q 1040 496 1040 612 m 334 496 q 347 319 334 397 q 388 187 360 241 q 461 104 416 133 q 571 76 506 76 q 681 104 636 76 q 753 187 726 133 q 794 319 781 241 q 806 496 806 397 q 794 674 806 596 q 753 806 781 752 q 681 888 726 860 q 572 916 636 916 q 462 888 507 916 q 388 806 416 860 q 347 674 360 752 q 334 496 334 596 m -289 858 q -278 904 -289 881 q -243 947 -267 927 q -182 980 -219 966 q -90 1003 -144 995 l -90 952 q -163 925 -139 937 q -186 893 -186 912 q -174 874 -186 880 q -146 862 -161 868 q -118 848 -131 857 q -106 820 -106 839 q -127 780 -106 795 q -193 765 -148 765 q -230 770 -213 765 q -261 787 -248 775 q -281 816 -274 798 q -289 858 -289 834 m -41 787 q -26 834 -34 808 q -11 887 -18 859 q 2 941 -3 914 q 13 991 9 968 l 174 991 l 174 977 q 149 928 165 955 q 116 874 134 901 q 78 819 98 846 q 42 770 59 792 l -41 770 l -41 787 "},"γ":{"x_min":-42.34375,"x_max":735,"ha":798,"o":"m 150 758 q 242 721 203 758 q 315 608 281 684 q 381 414 348 532 q 453 133 413 296 q 519 231 489 176 q 569 343 548 286 q 601 455 590 400 q 612 553 612 510 q 594 624 612 596 q 539 661 576 651 q 564 732 539 707 q 629 758 589 758 q 682 746 661 758 q 714 715 702 734 q 730 672 726 696 q 735 623 735 648 q 723 518 735 573 q 692 406 711 462 q 646 295 672 350 q 591 192 620 241 q 530 103 561 143 q 470 35 499 63 q 471 15 471 26 q 472 -8 472 3 q 473 -31 472 -19 q 473 -50 473 -42 q 460 -168 473 -116 q 425 -258 448 -221 q 373 -314 403 -294 q 307 -334 342 -334 q 237 -306 259 -334 q 215 -234 215 -279 q 222 -171 215 -204 q 240 -107 229 -139 q 266 -44 251 -74 q 295 10 280 -14 q 229 261 261 144 q 165 463 196 377 q 103 599 134 550 q 40 649 72 649 q 11 644 26 649 q -15 631 -2 639 l -42 688 q -2 713 -24 701 q 44 735 19 725 q 96 751 69 745 q 150 758 123 758 "},"­":{"x_min":35,"x_max":396,"ha":431,"o":"m 35 306 l 35 452 l 396 452 l 396 306 l 35 306 "},":":{"x_min":97,"x_max":325,"ha":423,"o":"m 97 99 q 105 152 97 131 q 129 187 114 174 q 166 205 145 200 q 211 211 187 211 q 254 205 234 211 q 291 187 275 200 q 315 152 306 174 q 325 99 325 131 q 315 47 325 68 q 291 13 306 26 q 254 -5 275 0 q 211 -11 234 -11 q 166 -5 187 -11 q 129 13 145 0 q 105 47 114 26 q 97 99 97 68 m 97 646 q 105 699 97 677 q 129 733 114 720 q 166 751 145 746 q 211 757 187 757 q 254 751 234 757 q 291 733 275 746 q 315 699 306 720 q 325 646 325 677 q 315 593 325 614 q 291 559 306 572 q 254 540 275 546 q 211 535 234 535 q 166 540 187 535 q 129 559 145 546 q 105 593 114 572 q 97 646 97 614 "},"ś":{"x_min":41.765625,"x_max":623,"ha":678,"o":"m 321 -14 q 192 -1 245 -14 q 105 32 139 10 q 57 83 72 53 q 41 148 41 113 q 54 202 41 182 q 88 234 68 223 q 130 250 108 246 q 171 253 153 253 q 182 175 171 210 q 212 117 193 141 q 259 80 232 93 q 321 67 287 67 q 383 74 357 67 q 425 95 409 82 q 450 126 442 108 q 458 162 458 143 q 450 203 458 185 q 422 237 441 221 q 369 268 402 253 q 287 300 336 283 q 188 342 231 320 q 116 392 145 364 q 71 457 86 421 q 56 540 56 493 q 77 637 56 596 q 138 706 98 678 q 232 747 177 733 q 354 761 287 761 q 466 749 420 761 q 541 720 512 738 q 584 678 570 702 q 597 632 597 655 q 565 560 597 585 q 456 536 532 536 q 425 644 456 605 q 334 682 394 682 q 291 676 311 682 q 255 660 270 671 q 230 633 239 649 q 221 596 221 617 q 229 556 221 573 q 259 522 238 538 q 317 490 281 506 q 411 454 354 473 q 496 417 457 437 q 563 369 535 396 q 607 308 591 342 q 623 230 623 274 q 602 127 623 172 q 544 50 582 81 q 449 2 505 19 q 321 -14 393 -14 m 262 860 q 295 905 276 879 q 332 958 313 931 q 368 1013 351 986 q 395 1064 384 1040 l 614 1064 l 614 1049 q 571 1004 601 1031 q 504 946 541 976 q 428 889 467 917 q 356 842 388 860 l 262 842 l 262 860 "}," ":{"x_min":0,"x_max":0,"ha":361},"У":{"x_min":0,"x_max":964,"ha":964,"o":"m 964 918 l 937 918 q 903 914 917 918 q 877 897 889 909 q 855 863 866 884 q 832 810 845 842 l 629 287 q 585 184 606 228 q 542 107 565 139 q 491 54 518 75 q 428 21 464 33 q 347 4 393 9 q 241 0 301 0 l 155 0 l 155 80 l 216 80 q 287 87 251 80 q 354 106 322 93 q 409 138 385 119 q 444 183 432 157 l 116 844 q 97 879 106 865 q 77 902 88 893 q 52 914 66 910 q 18 918 38 918 l 0 918 l 0 992 l 476 992 l 476 918 l 426 918 q 370 905 390 918 q 351 861 351 892 q 357 823 351 842 q 375 782 364 804 l 480 558 q 505 506 492 533 q 528 452 517 479 q 548 398 540 424 q 562 348 557 371 q 581 407 571 377 q 607 476 592 437 l 708 754 q 727 813 721 788 q 734 850 734 838 q 712 902 734 886 q 643 918 689 918 l 614 918 l 614 992 l 964 992 l 964 918 "},"¾":{"x_min":54,"x_max":1139.84375,"ha":1167,"o":"m 324 854 q 309 920 324 897 q 259 943 295 943 q 223 933 237 943 q 200 906 208 923 q 187 868 191 890 q 184 822 184 846 q 134 824 156 822 q 96 834 111 827 q 71 852 80 840 q 63 881 63 863 q 76 930 63 907 q 114 969 89 953 q 176 996 139 986 q 262 1006 214 1006 q 348 996 310 1006 q 415 969 387 987 q 458 926 443 951 q 473 868 473 900 q 435 768 473 807 q 331 714 397 730 l 331 706 q 392 694 362 702 q 445 672 422 687 q 482 633 468 657 q 497 571 497 609 q 471 485 497 520 q 405 429 445 450 q 318 398 366 407 q 229 389 271 389 q 126 399 172 389 q 54 422 81 409 l 54 494 q 87 482 68 488 q 127 471 106 476 q 170 463 148 466 q 212 460 191 460 q 315 486 278 460 q 352 574 352 513 q 314 645 352 620 q 201 670 277 670 l 155 670 l 155 736 l 201 736 q 249 744 226 736 q 288 768 272 752 q 314 806 305 784 q 324 854 324 828 m 420 0 l 312 0 l 807 992 l 915 992 l 420 0 m 1032 163 l 1032 114 q 1036 86 1032 97 q 1049 70 1041 76 q 1068 63 1057 65 q 1090 62 1078 62 l 1118 62 l 1118 1 l 798 1 l 798 62 l 837 62 q 859 63 848 62 q 877 70 869 65 q 889 86 884 76 q 894 114 894 97 l 894 163 l 630 163 l 630 218 l 906 601 l 1032 601 l 1032 237 l 1139 237 l 1139 163 l 1032 163 m 894 403 q 896 446 894 425 q 901 493 897 468 q 889 471 895 482 q 880 454 883 459 l 721 237 l 894 237 l 894 403 "},"Ί":{"x_min":-52,"x_max":687.953125,"ha":726,"o":"m 208 0 l 208 73 l 266 73 q 295 76 282 73 q 317 89 308 80 q 332 116 327 99 q 338 164 338 134 l 338 827 q 332 875 338 857 q 317 902 327 892 q 295 915 308 911 q 266 918 282 918 l 208 918 l 208 992 l 687 992 l 687 918 l 629 918 q 601 915 614 918 q 578 902 588 911 q 563 875 569 892 q 558 827 558 857 l 558 164 q 563 116 558 134 q 578 89 569 99 q 601 76 588 80 q 629 73 614 73 l 687 73 l 687 0 l 208 0 m -52 788 q -37 835 -45 809 q -22 888 -30 861 q -8 943 -15 916 q 1 993 -2 969 l 191 993 l 191 978 q 164 930 181 957 q 128 875 148 903 q 86 820 108 847 q 44 770 64 793 l -52 770 l -52 788 "},"ŉ":{"x_min":21.96875,"x_max":1150.65625,"ha":1188,"o":"m 842 0 l 842 456 q 836 536 842 501 q 817 595 830 571 q 782 631 804 618 q 731 643 761 643 q 673 626 696 643 q 636 579 650 608 q 617 510 623 549 q 610 429 610 471 l 610 164 q 618 117 610 134 q 638 89 625 99 q 669 76 650 80 q 711 73 688 73 l 715 73 l 715 0 l 288 0 l 288 73 l 291 73 q 334 76 315 73 q 369 90 354 80 q 391 119 383 100 q 400 169 400 138 l 400 580 q 392 627 400 610 q 372 655 385 645 q 341 668 359 664 q 299 671 322 671 l 295 671 l 295 745 l 587 745 l 605 645 l 612 645 q 656 707 633 684 q 706 743 679 730 q 762 758 732 755 q 824 762 791 762 q 920 746 877 762 q 992 698 962 730 q 1037 615 1021 665 q 1053 494 1053 564 l 1053 172 q 1058 120 1053 139 q 1076 90 1064 101 q 1105 77 1087 80 q 1146 73 1122 73 l 1150 73 l 1150 0 l 842 0 m 271 839 q 257 753 271 795 q 214 676 243 712 q 136 613 184 641 q 21 567 89 585 l 21 638 q 75 660 52 649 q 113 684 98 671 q 136 711 128 696 q 144 747 144 727 q 136 769 144 761 q 118 784 129 777 q 93 800 106 792 q 69 820 80 807 q 50 850 57 832 q 43 896 43 868 q 71 967 43 943 q 142 992 100 992 q 236 951 201 992 q 271 839 271 910 "},"Ģ":{"x_min":77,"x_max":1029.375,"ha":1068,"o":"m 587 -14 q 362 22 458 -14 q 203 126 266 59 q 108 288 139 193 q 77 497 77 382 q 110 703 77 609 q 208 864 143 796 q 370 968 273 931 q 594 1006 467 1006 q 746 993 681 1006 q 854 959 811 980 q 920 908 898 937 q 941 844 941 878 q 930 798 941 820 q 895 761 918 777 q 839 735 872 744 q 762 726 806 726 q 751 803 762 768 q 720 864 741 839 q 666 903 699 889 q 590 917 634 917 q 461 889 514 917 q 374 807 407 861 q 325 675 340 754 q 310 497 310 597 q 326 318 310 396 q 377 188 342 241 q 469 107 413 135 q 608 80 526 80 q 659 82 634 80 q 709 89 685 84 l 709 293 q 684 371 709 349 q 610 392 659 392 l 592 392 l 592 466 l 1029 466 l 1029 392 l 1011 392 q 974 387 990 392 q 948 370 958 382 q 933 338 938 358 q 929 288 929 318 l 929 60 q 764 4 847 23 q 587 -14 682 -14 m 430 -289 q 444 -242 436 -268 q 460 -189 452 -216 q 474 -134 467 -161 q 484 -85 480 -108 l 646 -85 l 646 -98 q 621 -147 636 -120 q 587 -202 605 -174 q 550 -257 569 -230 q 513 -307 531 -285 l 430 -307 l 430 -289 "},"m":{"x_min":27.78125,"x_max":1332.984375,"ha":1369,"o":"m 582 0 l 582 456 q 576 536 582 501 q 557 595 570 571 q 522 631 544 618 q 470 643 501 643 q 413 626 436 643 q 376 579 389 608 q 356 510 362 549 q 349 429 349 471 l 349 164 q 357 117 349 134 q 377 89 364 99 q 408 76 389 80 q 450 73 427 73 l 454 73 l 454 0 l 27 0 l 27 73 l 30 73 q 73 76 54 73 q 108 90 93 80 q 130 119 122 100 q 139 169 139 138 l 139 584 q 131 631 139 614 q 111 659 124 649 q 80 672 98 669 q 38 675 61 675 l 34 675 l 34 745 l 326 745 l 344 645 l 351 645 q 395 707 372 684 q 445 743 419 730 q 501 758 472 755 q 563 762 531 762 q 694 734 640 762 q 773 645 748 707 l 786 645 q 831 707 807 684 q 884 743 856 730 q 943 758 912 755 q 1007 762 974 762 q 1103 746 1060 762 q 1175 698 1145 730 q 1220 615 1204 665 q 1236 494 1236 564 l 1236 172 q 1241 120 1236 139 q 1259 90 1247 101 q 1288 77 1270 80 q 1328 73 1305 73 l 1332 73 l 1332 0 l 1024 0 l 1024 456 q 999 595 1024 546 q 914 643 974 643 q 858 628 881 643 q 821 585 835 612 q 799 521 806 557 q 792 445 792 485 l 792 172 q 798 120 792 139 q 815 90 804 101 q 845 77 827 80 q 886 73 862 73 l 890 73 l 890 0 l 582 0 "},"Е":{"x_min":38.453125,"x_max":863,"ha":907,"o":"m 388 84 l 666 84 q 702 92 687 84 q 728 114 717 100 q 745 148 739 128 q 755 190 752 167 l 766 256 l 863 256 l 852 0 l 38 0 l 38 73 l 96 73 q 124 76 111 73 q 147 87 137 79 q 162 112 157 96 q 168 156 168 129 l 168 828 q 162 876 168 858 q 147 903 157 893 q 125 915 138 912 q 96 918 112 918 l 38 918 l 38 992 l 809 992 l 815 736 l 718 736 l 711 801 q 685 880 705 852 q 622 907 665 907 l 388 907 l 388 560 l 718 560 l 718 476 l 388 476 l 388 84 "},"ž":{"x_min":25,"x_max":694,"ha":735,"o":"m 511 94 q 547 100 532 94 q 572 120 562 106 q 590 155 583 133 q 603 207 597 176 l 611 252 l 694 252 l 687 0 l 25 0 l 25 56 l 435 650 l 232 650 q 204 645 216 650 q 184 630 193 641 q 167 600 175 618 q 152 553 160 581 l 144 520 l 61 520 l 77 745 l 678 745 l 678 685 l 266 94 l 511 94 m 142 1064 l 238 1064 q 271 1036 252 1052 q 311 1004 291 1021 q 352 970 332 986 q 388 938 372 953 q 423 970 403 953 q 464 1004 443 986 q 505 1036 485 1021 q 539 1064 525 1052 l 635 1064 l 635 1045 q 597 1000 618 1026 q 553 947 575 974 q 512 892 531 919 q 482 842 493 865 l 295 842 q 265 892 284 865 q 224 947 245 919 q 180 1000 202 974 q 142 1045 158 1026 l 142 1064 "},"á":{"x_min":62,"x_max":786.859375,"ha":832,"o":"m 277 206 q 296 116 277 146 q 356 87 315 87 q 410 99 386 87 q 451 135 434 112 q 477 191 468 158 q 487 265 487 224 l 487 369 l 424 365 q 354 352 383 363 q 309 321 326 341 q 285 273 292 301 q 277 206 277 244 m 401 677 q 356 666 374 677 q 327 634 338 654 q 312 587 316 614 q 308 527 308 559 q 167 548 214 527 q 120 620 120 569 q 143 685 120 658 q 204 729 165 712 q 295 754 243 746 q 406 762 347 762 q 534 749 479 762 q 625 709 588 736 q 679 636 661 681 q 698 526 698 591 l 698 172 q 702 124 698 143 q 716 94 706 105 q 742 78 725 83 q 781 73 758 73 l 786 73 l 786 0 l 528 0 l 499 95 l 487 95 q 443 46 464 67 q 400 12 423 26 q 348 -7 377 -1 q 280 -14 319 -14 q 194 0 234 -14 q 125 41 154 13 q 78 111 95 69 q 62 212 62 154 q 139 379 62 325 q 373 438 217 434 l 487 443 l 487 519 q 484 583 487 554 q 472 633 481 612 q 446 665 464 654 q 401 677 429 677 m 316 860 q 349 905 330 879 q 386 958 367 931 q 422 1013 405 986 q 449 1064 438 1040 l 668 1064 l 668 1049 q 625 1004 655 1031 q 558 946 595 976 q 482 889 521 917 q 410 842 442 860 l 316 842 l 316 860 "},"×":{"x_min":112.8125,"x_max":662.859375,"ha":777,"o":"m 387 427 l 183 222 l 112 293 l 316 498 l 112 702 l 183 772 l 387 568 l 591 773 l 662 702 l 457 497 l 662 291 l 593 222 l 387 427 "},"п":{"x_min":23.703125,"x_max":908.296875,"ha":932,"o":"m 908 73 l 908 0 l 487 0 l 487 73 l 490 73 q 520 76 504 73 q 550 89 536 80 q 572 116 563 99 q 582 164 582 134 l 582 665 l 349 665 l 349 164 q 359 116 349 134 q 381 89 368 99 q 411 76 395 80 q 441 73 427 73 l 444 73 l 444 0 l 23 0 l 23 73 l 39 73 q 72 76 55 73 q 104 89 90 80 q 129 116 119 99 q 139 164 139 134 l 139 586 q 129 630 139 614 q 104 656 119 647 q 72 668 89 665 q 39 671 54 671 l 23 671 l 23 745 l 908 745 l 908 671 l 892 671 q 859 668 877 671 q 827 656 842 665 q 802 630 812 647 q 793 586 793 614 l 793 164 q 802 116 793 134 q 827 89 812 99 q 859 76 841 80 q 892 73 877 73 l 908 73 "},"Ǻ":{"x_min":5.8125,"x_max":1046.21875,"ha":1046,"o":"m 695 966 q 680 898 695 927 q 641 849 665 868 l 916 164 q 937 120 926 137 q 962 92 949 103 q 990 78 975 82 q 1021 73 1004 73 l 1046 73 l 1046 0 l 587 0 l 587 73 l 642 73 q 663 76 652 73 q 682 86 673 80 q 696 102 690 92 q 701 124 701 111 q 698 154 701 140 q 690 179 694 168 l 646 293 l 303 293 l 265 197 q 252 161 259 181 q 245 124 245 140 q 251 103 245 112 q 265 87 256 94 q 285 77 274 80 q 308 73 296 73 l 367 73 l 367 0 l 5 0 l 5 73 l 22 73 q 56 77 41 73 q 84 91 71 81 q 109 119 98 101 q 134 165 121 137 l 416 847 q 375 896 390 866 q 361 966 361 926 q 373 1032 361 1004 q 409 1079 386 1060 q 462 1109 432 1099 q 528 1119 493 1119 q 593 1109 562 1119 q 646 1079 623 1099 q 682 1032 669 1060 q 695 966 695 1004 m 539 575 q 524 620 532 596 q 508 670 516 645 q 493 722 500 696 q 481 769 486 747 q 467 726 475 750 q 449 677 458 702 q 431 627 440 652 q 414 580 422 602 l 336 378 l 610 378 l 539 575 m 434 1166 q 467 1203 448 1182 q 505 1246 486 1224 q 541 1290 524 1268 q 569 1331 558 1311 l 787 1331 l 787 1320 q 744 1283 774 1305 q 677 1236 714 1261 q 600 1190 640 1212 q 528 1153 560 1167 l 434 1153 l 434 1166 m 610 966 q 603 1001 610 987 q 586 1025 597 1015 q 559 1038 574 1034 q 528 1042 544 1042 q 496 1038 511 1042 q 470 1025 481 1034 q 452 1001 459 1015 q 445 966 445 987 q 467 911 445 928 q 521 892 489 893 l 534 892 q 588 911 566 893 q 610 966 610 928 "},"K":{"x_min":38.453125,"x_max":1019,"ha":1019,"o":"m 602 739 q 640 782 625 763 q 664 818 655 802 q 677 850 673 835 q 681 879 681 865 q 664 911 681 902 q 603 920 646 920 l 603 992 l 980 992 l 980 920 q 926 911 951 920 q 876 886 901 902 q 828 847 852 869 q 780 797 804 825 l 597 596 l 855 185 q 894 131 875 153 q 932 97 913 110 q 970 79 951 84 q 1013 73 990 73 l 1019 73 l 1019 0 l 944 0 q 851 3 891 0 q 781 13 811 6 q 729 30 751 20 q 691 55 707 41 q 661 87 675 69 q 635 127 648 105 l 448 447 l 387 398 l 387 164 q 392 116 387 134 q 408 89 398 99 q 431 76 417 80 q 459 73 444 73 l 517 73 l 517 0 l 38 0 l 38 73 l 96 73 q 124 76 111 73 q 147 87 137 79 q 162 112 157 96 q 168 156 168 129 l 168 833 q 162 878 168 861 q 147 903 157 895 q 124 915 137 912 q 96 918 111 918 l 38 918 l 38 992 l 517 992 l 517 918 l 459 918 q 431 915 444 918 q 408 903 417 912 q 392 876 398 893 q 387 828 387 858 l 387 504 l 602 739 "},"7":{"x_min":61,"x_max":731,"ha":777,"o":"m 228 0 l 599 840 l 233 840 q 176 822 195 840 q 152 770 156 804 l 144 700 l 61 700 l 67 992 l 731 992 l 731 924 l 346 0 l 228 0 "},"¨":{"x_min":175,"x_max":625,"ha":802,"o":"m 175 955 q 181 995 175 978 q 199 1022 188 1011 q 225 1036 210 1032 q 256 1041 240 1041 q 287 1036 273 1041 q 314 1022 302 1032 q 332 995 325 1011 q 340 955 340 978 q 332 915 340 931 q 314 888 325 898 q 287 873 302 878 q 256 869 273 869 q 225 873 240 869 q 199 888 210 878 q 181 915 188 898 q 175 955 175 931 m 460 955 q 466 995 460 978 q 485 1022 473 1011 q 511 1036 496 1032 q 543 1041 526 1041 q 573 1036 558 1041 q 599 1022 587 1032 q 617 995 610 1011 q 625 955 625 978 q 617 915 625 931 q 599 888 610 898 q 573 873 587 878 q 543 869 558 869 q 511 873 526 869 q 485 888 496 878 q 466 915 473 898 q 460 955 460 931 "},"Y":{"x_min":0.34375,"x_max":962.5625,"ha":962,"o":"m 228 0 l 228 73 l 293 73 q 324 75 310 73 q 350 86 339 77 q 367 111 361 94 q 374 157 374 128 l 374 351 l 117 844 q 97 879 106 865 q 77 902 88 893 q 52 914 66 910 q 18 918 39 918 l 0 918 l 0 992 l 465 992 l 465 918 l 441 918 q 379 901 399 918 q 358 856 358 884 q 364 817 358 838 q 379 779 371 797 l 482 575 q 518 496 504 530 q 543 430 532 462 q 576 510 557 467 q 618 600 595 553 l 698 766 q 718 817 713 797 q 722 850 722 838 q 699 902 722 886 q 630 918 677 918 l 599 918 l 599 992 l 962 992 l 962 918 l 936 918 q 905 913 918 918 q 882 897 893 909 q 859 863 871 884 q 831 810 847 842 l 595 349 l 595 159 q 601 112 595 129 q 617 86 607 95 q 642 75 628 77 q 672 73 656 73 l 740 73 l 740 0 l 228 0 "},"E":{"x_min":38.453125,"x_max":863,"ha":907,"o":"m 388 84 l 666 84 q 702 92 687 84 q 728 114 717 100 q 745 148 739 128 q 755 190 752 167 l 766 256 l 863 256 l 852 0 l 38 0 l 38 73 l 96 73 q 124 76 111 73 q 147 87 137 79 q 162 112 157 96 q 168 156 168 129 l 168 828 q 162 876 168 858 q 147 903 157 893 q 125 915 138 912 q 96 918 112 918 l 38 918 l 38 992 l 809 992 l 815 736 l 718 736 l 711 801 q 685 880 705 852 q 622 907 665 907 l 388 907 l 388 560 l 718 560 l 718 476 l 388 476 l 388 84 "},"Ô":{"x_min":77,"x_max":1016,"ha":1093,"o":"m 1016 496 q 985 287 1016 382 q 894 126 954 193 q 747 22 834 59 q 547 -14 660 -14 q 340 22 428 -14 q 193 126 251 59 q 106 288 135 193 q 77 498 77 382 q 106 707 77 613 q 193 867 135 801 q 340 970 252 934 q 548 1007 429 1007 q 748 970 661 1007 q 894 867 835 934 q 985 706 954 800 q 1016 496 1016 612 m 310 496 q 323 319 310 397 q 364 187 336 241 q 437 104 392 133 q 547 76 482 76 q 657 104 612 76 q 729 187 702 133 q 770 319 757 241 q 782 496 782 397 q 770 674 782 596 q 729 806 757 752 q 657 888 702 860 q 548 916 612 916 q 438 888 483 916 q 364 806 392 860 q 323 674 336 752 q 310 496 310 596 m 299 1089 q 337 1134 315 1108 q 381 1187 359 1160 q 422 1242 402 1215 q 452 1293 441 1269 l 639 1293 q 669 1242 650 1269 q 710 1187 688 1215 q 754 1134 732 1160 q 792 1089 775 1108 l 792 1071 l 696 1071 q 662 1098 682 1082 q 621 1130 642 1113 q 580 1164 600 1147 q 545 1195 560 1181 q 509 1164 529 1181 q 468 1130 489 1147 q 428 1098 448 1113 q 395 1071 409 1082 l 299 1071 l 299 1089 "},"Є":{"x_min":77,"x_max":872,"ha":928,"o":"m 590 96 q 680 108 640 96 q 751 139 720 120 q 805 182 782 158 q 846 228 829 205 q 864 203 857 220 q 870 169 870 186 q 855 107 870 139 q 802 48 839 75 q 705 3 766 21 q 556 -14 645 -14 q 346 22 436 -14 q 196 126 255 59 q 106 288 136 193 q 77 497 77 382 q 107 703 77 609 q 197 864 138 796 q 347 968 257 931 q 555 1006 437 1006 q 694 993 635 1006 q 793 959 754 980 q 852 908 832 937 q 872 844 872 878 q 860 796 872 818 q 827 758 849 774 q 772 733 805 742 q 698 723 740 723 q 690 792 698 758 q 665 854 683 826 q 618 899 647 882 q 546 917 589 917 q 440 892 483 917 q 368 818 396 866 q 326 700 340 770 q 310 539 313 629 l 636 539 l 636 455 l 310 455 q 330 297 313 365 q 380 185 346 230 q 465 118 413 140 q 590 96 517 96 "},"Ï":{"x_min":38.453125,"x_max":517.953125,"ha":557,"o":"m 38 0 l 38 73 l 96 73 q 125 76 112 73 q 147 89 138 80 q 162 116 157 99 q 168 164 168 134 l 168 827 q 162 875 168 857 q 147 902 157 892 q 125 915 138 911 q 96 918 112 918 l 38 918 l 38 992 l 517 992 l 517 918 l 459 918 q 431 915 444 918 q 408 902 418 911 q 393 875 399 892 q 388 827 388 857 l 388 164 q 393 116 388 134 q 408 89 399 99 q 431 76 418 80 q 459 73 444 73 l 517 73 l 517 0 l 38 0 m 53 1184 q 59 1224 53 1207 q 77 1251 66 1240 q 103 1265 88 1261 q 134 1270 118 1270 q 165 1265 151 1270 q 192 1251 180 1261 q 210 1224 203 1240 q 218 1184 218 1207 q 210 1144 218 1160 q 192 1117 203 1127 q 165 1102 180 1107 q 134 1098 151 1098 q 103 1102 118 1098 q 77 1117 88 1107 q 59 1144 66 1127 q 53 1184 53 1160 m 338 1184 q 344 1224 338 1207 q 363 1251 351 1240 q 389 1265 374 1261 q 421 1270 404 1270 q 451 1265 436 1270 q 477 1251 465 1261 q 495 1224 488 1240 q 503 1184 503 1207 q 495 1144 503 1160 q 477 1117 488 1127 q 451 1102 465 1107 q 421 1098 436 1098 q 389 1102 404 1098 q 363 1117 374 1107 q 344 1144 351 1127 q 338 1184 338 1160 "},"ġ":{"x_min":3,"x_max":772,"ha":778,"o":"m 772 717 q 767 687 772 702 q 751 662 762 672 q 720 644 740 651 q 672 638 701 638 q 668 663 672 652 q 656 681 664 674 q 639 693 649 689 q 619 696 630 696 q 594 692 608 696 q 574 681 581 687 q 600 646 588 666 q 622 603 612 626 q 636 555 631 580 q 642 504 642 530 q 625 408 642 452 q 574 331 608 363 q 486 280 539 298 q 361 262 433 262 q 342 262 353 262 q 319 263 330 262 q 297 264 307 263 q 281 266 286 265 q 263 254 272 261 q 246 238 253 247 q 235 218 239 229 q 230 195 230 207 q 248 161 230 172 q 295 151 266 151 l 464 151 q 583 136 533 151 q 666 94 633 121 q 715 27 699 67 q 731 -61 731 -11 q 706 -176 731 -125 q 632 -261 682 -226 q 506 -315 582 -296 q 327 -334 431 -334 q 83 -284 163 -334 q 3 -140 3 -235 q 51 -26 3 -66 q 190 20 99 13 q 153 39 171 28 q 120 65 135 49 q 97 100 106 80 q 89 144 89 119 q 98 186 89 167 q 123 224 107 206 q 162 258 139 242 q 212 289 185 274 q 156 320 182 300 q 111 366 130 339 q 81 428 92 393 q 71 504 71 462 q 141 694 71 627 q 361 762 212 762 q 453 749 410 762 q 526 719 495 736 q 552 745 538 731 q 583 770 566 759 q 623 789 601 782 q 671 797 644 797 q 715 790 696 797 q 746 773 733 784 q 765 748 759 762 q 772 717 772 733 m 167 -137 q 208 -223 167 -195 q 330 -250 250 -250 q 508 -215 452 -250 q 564 -111 564 -180 q 536 -49 564 -67 q 452 -32 508 -32 l 290 -32 q 247 -35 269 -32 q 208 -51 226 -39 q 178 -83 190 -62 q 167 -137 167 -104 m 260 504 q 265 438 260 468 q 281 388 270 409 q 311 355 293 367 q 357 344 330 344 q 403 355 384 344 q 432 387 421 366 q 447 439 443 409 q 452 506 452 469 q 447 577 452 545 q 431 631 442 608 q 401 666 420 653 q 355 678 383 678 q 310 665 328 678 q 280 629 292 652 q 264 574 269 606 q 260 504 260 542 m 239 969 q 248 1014 239 995 q 273 1045 257 1033 q 310 1063 289 1057 q 357 1069 331 1069 q 402 1063 380 1069 q 440 1045 424 1057 q 466 1014 456 1033 q 476 969 476 995 q 466 924 476 943 q 440 893 456 905 q 402 875 424 881 q 357 869 380 869 q 310 875 331 869 q 273 893 289 881 q 248 924 257 905 q 239 969 239 943 "},"έ":{"x_min":52,"x_max":691,"ha":743,"o":"m 285 560 q 290 512 285 535 q 306 470 296 488 q 333 440 317 452 q 369 426 348 428 q 433 442 398 434 q 500 450 468 450 q 549 437 531 450 q 567 397 567 425 q 542 346 567 366 q 474 327 517 327 q 445 329 463 327 q 407 335 427 331 q 370 344 387 339 q 340 353 352 348 q 285 308 306 343 q 265 219 265 273 q 309 122 265 155 q 436 89 353 89 q 512 98 478 89 q 574 121 546 107 q 622 155 601 136 q 659 192 643 173 q 681 169 671 186 q 691 135 691 153 q 674 79 691 106 q 619 31 657 52 q 521 -1 582 11 q 374 -14 461 -14 q 232 3 292 -14 q 131 51 171 21 q 71 122 91 81 q 52 209 52 163 q 65 280 52 251 q 100 328 78 308 q 149 362 121 348 q 208 385 178 375 l 208 393 q 152 419 177 402 q 109 459 127 437 q 81 509 91 482 q 72 563 72 535 q 94 648 72 611 q 156 710 116 685 q 254 748 196 735 q 383 761 311 761 q 509 747 456 761 q 597 713 563 734 q 648 667 632 693 q 664 615 664 640 q 617 551 664 571 q 474 531 571 531 q 450 642 474 602 q 378 682 426 682 q 334 672 352 682 q 305 645 316 662 q 290 607 294 629 q 285 560 285 585 m 311 860 q 325 907 317 881 q 340 960 332 932 q 354 1014 347 987 q 364 1064 360 1041 l 554 1064 l 554 1050 q 527 1001 544 1028 q 491 947 511 974 q 449 892 471 919 q 407 842 427 865 l 311 842 l 311 860 "}," ":{"x_min":0,"x_max":0,"ha":463},"ϋ":{"x_min":37.6875,"x_max":815,"ha":879,"o":"m 458 -14 q 315 7 376 -14 q 213 69 253 29 q 153 165 173 109 q 134 291 134 222 l 134 586 q 127 630 134 613 q 109 656 121 647 q 80 668 98 665 q 37 671 62 671 l 37 745 l 343 745 l 343 291 q 355 198 343 237 q 387 136 366 160 q 440 100 409 112 q 511 89 472 89 q 601 111 563 89 q 664 173 639 133 q 701 268 689 213 q 713 390 713 324 q 698 503 713 456 q 658 580 682 549 q 607 627 634 610 q 556 650 579 643 q 562 691 556 671 q 580 724 568 710 q 610 747 592 739 q 652 756 628 756 q 718 732 688 756 q 769 666 747 709 q 802 562 790 623 q 815 425 815 501 q 808 317 815 371 q 786 214 802 263 q 743 124 770 165 q 677 51 717 82 q 584 3 638 20 q 458 -14 530 -14 m 240 955 q 246 995 240 978 q 264 1022 253 1011 q 290 1036 275 1032 q 321 1041 305 1041 q 352 1036 338 1041 q 379 1022 367 1032 q 397 995 390 1011 q 405 955 405 978 q 397 915 405 931 q 379 888 390 898 q 352 873 367 878 q 321 869 338 869 q 290 873 305 869 q 264 888 275 878 q 246 915 253 898 q 240 955 240 931 m 525 955 q 531 995 525 978 q 550 1022 538 1011 q 576 1036 561 1032 q 608 1041 591 1041 q 638 1036 623 1041 q 664 1022 652 1032 q 682 995 675 1011 q 690 955 690 978 q 682 915 690 931 q 664 888 675 898 q 638 873 652 878 q 608 869 623 869 q 576 873 591 869 q 550 888 561 878 q 531 915 538 898 q 525 955 525 931 "},"й":{"x_min":23.703125,"x_max":936.296875,"ha":960,"o":"m 821 164 q 830 116 821 134 q 855 89 840 99 q 887 76 869 80 q 920 73 905 73 l 936 73 l 936 0 l 515 0 l 515 73 l 518 73 q 548 76 532 73 q 578 89 564 80 q 600 116 591 99 q 610 164 610 134 l 610 462 l 349 177 l 349 164 q 359 116 349 134 q 381 89 368 99 q 411 76 395 80 q 441 73 427 73 l 444 73 l 444 0 l 23 0 l 23 73 l 39 73 q 72 76 55 73 q 104 89 90 80 q 129 116 119 99 q 139 164 139 134 l 139 580 q 129 628 139 610 q 104 655 119 645 q 72 668 90 664 q 39 671 55 671 l 23 671 l 23 745 l 444 745 l 444 671 l 441 671 q 411 668 427 671 q 381 655 395 664 q 359 628 368 645 q 349 580 349 610 l 349 284 l 610 569 l 610 580 q 600 628 610 610 q 578 655 591 645 q 548 668 564 664 q 518 671 532 671 l 515 671 l 515 745 l 936 745 l 936 671 l 920 671 q 887 668 905 671 q 855 655 869 664 q 830 628 840 645 q 821 580 821 610 l 821 164 m 479 918 q 571 952 539 918 q 611 1059 603 986 l 785 1059 q 767 977 780 1016 q 721 908 754 938 q 631 859 689 877 q 479 842 573 842 q 328 859 386 842 q 237 908 270 877 q 191 977 204 938 q 174 1059 178 1016 l 347 1059 q 387 952 355 986 q 479 918 420 918 "},"b":{"x_min":23.703125,"x_max":836,"ha":901,"o":"m 836 374 q 817 200 836 273 q 762 79 798 127 q 673 8 726 31 q 551 -14 620 -14 q 478 -5 511 -14 q 420 19 446 3 q 373 58 393 36 q 339 108 353 80 l 326 108 l 287 0 l 23 0 l 23 73 l 33 73 q 71 77 52 73 q 105 90 90 80 q 129 120 120 101 q 139 170 139 139 l 139 888 q 130 936 139 918 q 106 964 121 954 q 71 978 91 974 q 29 981 51 981 l 23 981 l 23 1055 l 349 1055 l 349 817 q 348 767 349 796 q 344 712 346 737 q 339 649 341 681 l 348 649 q 428 731 378 701 q 556 761 478 761 q 676 738 624 761 q 763 668 728 715 q 817 548 799 621 q 836 374 836 475 m 491 658 q 423 641 450 658 q 379 588 396 623 q 356 500 363 553 q 349 374 349 446 q 356 253 349 306 q 379 163 363 199 q 423 108 396 127 q 492 89 451 89 q 591 163 561 89 q 622 376 622 237 q 591 588 622 518 q 491 658 561 658 "},"ύ":{"x_min":37.6875,"x_max":815,"ha":879,"o":"m 458 -14 q 315 7 376 -14 q 213 69 253 29 q 153 165 173 109 q 134 291 134 222 l 134 586 q 127 630 134 613 q 109 656 121 647 q 80 668 98 665 q 37 671 62 671 l 37 745 l 343 745 l 343 291 q 355 198 343 237 q 387 136 366 160 q 440 100 409 112 q 511 89 472 89 q 601 111 563 89 q 664 173 639 133 q 701 268 689 213 q 713 390 713 324 q 698 503 713 456 q 658 580 682 549 q 607 627 634 610 q 556 650 579 643 q 562 691 556 671 q 580 724 568 710 q 610 747 592 739 q 652 756 628 756 q 718 732 688 756 q 769 666 747 709 q 802 562 790 623 q 815 425 815 501 q 808 317 815 371 q 786 214 802 263 q 743 124 770 165 q 677 51 717 82 q 584 3 638 20 q 458 -14 530 -14 m 397 860 q 411 907 403 881 q 426 960 418 932 q 440 1014 433 987 q 450 1064 446 1041 l 640 1064 l 640 1050 q 613 1001 630 1028 q 577 947 597 974 q 535 892 557 919 q 493 842 513 865 l 397 842 l 397 860 "},"ﬂ":{"x_min":26.140625,"x_max":975.296875,"ha":999,"o":"m 550 73 q 582 76 564 73 q 614 89 599 80 q 638 116 628 99 q 648 164 648 134 l 648 817 q 638 867 647 838 q 611 923 629 897 q 567 969 594 950 q 502 988 540 988 q 400 946 435 988 q 366 811 366 903 l 366 745 l 540 745 l 540 650 l 366 650 l 366 164 q 376 116 366 134 q 400 89 386 99 q 432 76 415 80 q 464 73 450 73 l 488 73 l 488 0 l 26 0 l 26 73 l 56 73 q 88 76 71 73 q 120 89 106 80 q 145 116 135 99 q 155 164 155 134 l 155 650 l 31 650 l 31 745 l 155 745 l 155 753 q 177 886 155 828 q 245 985 199 945 q 361 1047 291 1026 q 530 1068 432 1068 q 611 1064 572 1068 q 682 1055 649 1061 l 860 1055 l 860 164 q 869 116 860 134 q 894 89 879 99 q 926 76 908 80 q 958 73 943 73 l 975 73 l 975 0 l 547 0 l 547 73 l 550 73 "},"ф":{"x_min":65,"x_max":1075,"ha":1140,"o":"m 373 -260 q 405 -257 388 -260 q 437 -245 423 -254 q 462 -218 452 -236 q 472 -171 472 -201 l 472 -7 q 303 25 379 -2 q 175 102 228 54 q 93 219 122 151 q 65 373 65 287 q 92 525 65 458 q 171 641 119 593 q 298 717 223 689 q 472 751 374 745 l 472 896 q 462 941 472 924 q 437 967 452 958 q 405 979 422 976 q 373 981 387 981 l 356 981 l 356 1055 l 672 1055 l 672 749 q 838 715 764 743 q 965 639 913 687 q 1046 524 1018 591 q 1075 373 1075 457 q 1047 219 1075 287 q 969 102 1020 151 q 842 25 917 54 q 672 -7 767 -2 l 672 -171 q 681 -218 672 -201 q 706 -245 691 -236 q 738 -257 720 -254 q 771 -260 756 -260 l 787 -260 l 787 -334 l 356 -334 l 356 -260 l 373 -260 m 273 373 q 321 169 273 245 q 472 80 370 94 l 472 660 q 321 575 369 647 q 273 373 273 502 m 866 373 q 818 573 866 499 q 672 660 770 647 l 672 81 q 819 170 771 95 q 866 373 866 245 "},"Ŋ":{"x_min":38.453125,"x_max":1070.859375,"ha":1095,"o":"m 271 765 l 271 164 q 277 116 271 134 q 292 89 283 99 q 315 76 302 80 q 342 73 328 73 l 401 73 l 401 0 l 38 0 l 38 73 l 96 73 q 124 76 111 73 q 147 89 137 80 q 162 116 157 99 q 168 164 168 134 l 168 833 q 162 878 168 861 q 146 903 156 895 q 123 915 136 912 q 96 918 111 918 l 38 918 l 38 992 l 347 992 l 837 328 l 837 833 q 831 878 837 861 q 816 903 826 895 q 793 915 806 912 q 766 918 780 918 l 708 918 l 708 992 l 1070 992 l 1070 918 l 1012 918 q 985 915 998 918 q 962 903 972 912 q 947 876 952 893 q 942 828 942 858 l 942 -10 q 925 -166 942 -104 q 879 -265 909 -228 q 806 -318 849 -302 q 711 -334 763 -334 l 665 -334 l 665 -253 l 698 -253 q 750 -239 725 -253 q 795 -196 775 -226 q 826 -122 814 -167 q 837 -12 837 -76 l 837 0 l 271 765 "},"Ũ":{"x_min":22.78125,"x_max":1015.21875,"ha":1038,"o":"m 1015 918 l 955 918 q 928 915 941 918 q 905 903 915 912 q 890 875 895 893 q 885 828 885 858 l 885 286 q 865 160 885 216 q 802 66 845 104 q 694 6 760 27 q 537 -14 628 -14 q 375 3 447 -14 q 254 58 304 20 q 179 156 205 96 q 153 302 153 216 l 153 833 q 147 878 153 861 q 131 903 141 894 q 109 915 121 912 q 82 918 96 918 l 22 918 l 22 992 l 501 992 l 501 918 l 443 918 q 416 915 429 918 q 393 903 403 912 q 378 875 383 893 q 372 828 372 858 l 372 291 q 387 193 372 233 q 428 129 401 153 q 494 94 456 105 q 579 84 531 84 q 662 96 625 84 q 726 133 699 108 q 766 197 752 158 q 780 288 780 235 l 780 833 q 775 878 780 861 q 759 903 769 894 q 737 915 750 912 q 710 918 724 918 l 651 918 l 651 992 l 1015 992 l 1015 918 m 671 1203 q 698 1209 686 1203 q 719 1225 710 1215 q 732 1249 727 1235 q 739 1276 737 1262 l 830 1276 q 814 1197 827 1234 q 778 1131 800 1159 q 724 1087 755 1103 q 656 1071 693 1071 q 588 1084 619 1071 q 532 1114 558 1098 q 483 1145 506 1131 q 438 1158 461 1158 q 411 1152 423 1158 q 390 1136 399 1146 q 377 1112 382 1126 q 370 1085 372 1099 l 280 1085 q 295 1164 282 1127 q 332 1230 309 1202 q 386 1274 355 1258 q 454 1291 417 1291 q 522 1277 492 1291 q 578 1247 552 1263 q 627 1216 604 1230 q 671 1203 650 1203 "},"Щ":{"x_min":38.453125,"x_max":1545.9375,"ha":1589,"o":"m 1413 84 l 1545 84 l 1545 -292 l 1454 -292 q 1445 -161 1454 -216 q 1415 -70 1436 -105 q 1363 -17 1395 -34 q 1286 0 1331 0 l 38 0 l 38 73 l 96 73 q 123 76 111 73 q 146 88 136 79 q 162 114 156 97 q 168 158 168 130 l 168 828 q 162 876 168 858 q 147 903 157 893 q 124 915 137 912 q 96 918 111 918 l 38 918 l 38 992 l 495 992 l 495 918 l 450 918 q 422 915 435 918 q 399 903 409 912 q 384 876 390 893 q 378 828 378 858 l 378 84 l 685 84 l 685 828 q 679 876 685 858 q 664 903 674 893 q 641 915 654 912 q 613 918 628 918 l 568 918 l 568 992 l 1011 992 l 1011 918 l 966 918 q 939 916 952 918 q 917 904 927 913 q 901 879 907 895 q 895 835 895 863 l 895 84 l 1202 84 l 1202 828 q 1196 876 1202 858 q 1181 903 1190 893 q 1158 915 1171 912 q 1130 918 1145 918 l 1084 918 l 1084 992 l 1541 992 l 1541 918 l 1483 918 q 1456 915 1469 918 q 1433 903 1443 912 q 1418 876 1423 893 q 1413 828 1413 858 l 1413 84 "},"L":{"x_min":38.453125,"x_max":863,"ha":908,"o":"m 38 0 l 38 73 l 96 73 q 125 76 112 73 q 147 89 138 80 q 162 116 157 99 q 168 164 168 134 l 168 828 q 162 876 168 858 q 147 903 157 893 q 125 915 138 912 q 96 918 112 918 l 38 918 l 38 992 l 517 992 l 517 918 l 459 918 q 432 915 445 918 q 409 903 418 912 q 394 878 399 895 q 388 833 388 861 l 388 84 l 647 84 q 723 115 696 84 q 762 205 750 146 l 785 310 l 863 310 l 852 0 l 38 0 "},"ď":{"x_min":64,"x_max":1053,"ha":901,"o":"m 761 170 q 770 120 761 139 q 795 90 779 101 q 832 77 811 80 q 876 73 853 73 l 881 73 l 881 0 l 612 0 l 573 108 l 560 108 q 525 57 545 79 q 479 18 505 34 q 420 -5 453 2 q 347 -14 388 -14 q 226 8 279 -14 q 137 78 173 31 q 82 198 101 125 q 64 370 64 271 q 82 544 64 471 q 137 666 101 618 q 225 737 173 714 q 344 761 277 761 q 415 752 383 761 q 472 729 447 744 q 517 694 497 714 q 551 649 537 674 l 560 649 q 555 722 558 688 q 553 751 554 736 q 551 779 552 766 q 550 802 550 792 q 550 819 550 813 l 550 895 q 540 941 550 924 q 516 967 531 958 q 480 979 501 976 q 437 981 460 981 l 426 981 l 426 1055 l 761 1055 l 761 170 m 407 89 q 475 107 448 89 q 519 159 503 124 q 543 248 536 194 q 550 373 550 301 q 543 495 550 442 q 519 584 536 548 q 475 639 503 621 q 407 658 448 658 q 347 639 372 658 q 307 584 323 621 q 285 494 292 547 q 278 372 278 441 q 307 160 278 230 q 407 89 337 89 m 838 850 q 852 897 844 871 q 867 950 859 923 q 881 1005 874 978 q 891 1055 887 1031 l 1053 1055 l 1053 1041 q 1028 992 1043 1019 q 994 938 1012 966 q 957 882 976 909 q 920 833 938 855 l 838 833 l 838 850 "},"Ο":{"x_min":77,"x_max":1016,"ha":1093,"o":"m 1016 496 q 985 287 1016 382 q 894 126 954 193 q 747 22 834 59 q 547 -14 660 -14 q 340 22 428 -14 q 193 126 251 59 q 106 288 135 193 q 77 498 77 382 q 106 707 77 613 q 193 867 135 801 q 340 970 252 934 q 548 1007 429 1007 q 748 970 661 1007 q 894 867 835 934 q 985 706 954 800 q 1016 496 1016 612 m 310 496 q 323 319 310 397 q 364 187 336 241 q 437 104 392 133 q 547 76 482 76 q 657 104 612 76 q 729 187 702 133 q 770 319 757 241 q 782 496 782 397 q 770 674 782 596 q 729 806 757 752 q 657 888 702 860 q 548 916 612 916 q 438 888 483 916 q 364 806 392 860 q 323 674 336 752 q 310 496 310 596 "},"Ĭ":{"x_min":38.453125,"x_max":517.953125,"ha":557,"o":"m 38 0 l 38 73 l 96 73 q 125 76 112 73 q 147 89 138 80 q 162 116 157 99 q 168 164 168 134 l 168 827 q 162 875 168 857 q 147 902 157 892 q 125 915 138 911 q 96 918 112 918 l 38 918 l 38 992 l 517 992 l 517 918 l 459 918 q 431 915 444 918 q 408 902 418 911 q 393 875 399 892 q 388 827 388 857 l 388 164 q 393 116 388 134 q 408 89 399 99 q 431 76 418 80 q 459 73 444 73 l 517 73 l 517 0 l 38 0 m 277 1071 q 181 1090 222 1071 q 112 1140 140 1109 q 70 1210 84 1171 q 55 1289 56 1249 l 146 1289 q 192 1216 158 1238 q 277 1194 225 1194 q 362 1216 328 1194 q 407 1289 396 1238 l 500 1289 q 484 1210 498 1249 q 442 1140 470 1171 q 373 1090 414 1109 q 277 1071 332 1071 "},"ŧ":{"x_min":29.546875,"x_max":534,"ha":562,"o":"m 436 97 q 487 101 463 97 q 534 110 512 105 l 534 20 q 504 9 523 15 q 461 -2 485 2 q 405 -10 436 -7 q 337 -14 374 -14 q 253 -2 291 -14 q 188 34 215 8 q 148 102 162 60 q 134 205 134 144 l 134 390 l 37 390 l 37 464 l 134 464 l 134 650 l 29 650 l 29 721 q 109 738 74 721 q 165 779 144 756 q 229 917 208 824 l 343 917 l 343 745 l 521 745 l 521 650 l 343 650 l 343 464 l 499 464 l 499 390 l 343 390 l 343 219 q 365 127 343 156 q 436 97 387 97 "}}}
